<?xml version="1.0" encoding="UTF-8" standalone="no"?>
<!-- Created with Inkscape (http://www.inkscape.org/) -->

<svg
   xmlns:dc="http://purl.org/dc/elements/1.1/"
   xmlns:cc="http://creativecommons.org/ns#"
   xmlns:rdf="http://www.w3.org/1999/02/22-rdf-syntax-ns#"
   xmlns:svg="http://www.w3.org/2000/svg"
   xmlns="http://www.w3.org/2000/svg"
   xmlns:sodipodi="http://sodipodi.sourceforge.net/DTD/sodipodi-0.dtd"
   xmlns:inkscape="http://www.inkscape.org/namespaces/inkscape"
   id="svg3904"
   sodipodi:version="0.32"
   inkscape:version="0.48.5 r10040"
   width="744.09448"
   height="1052.3622"
   version="1.0"
   sodipodi:docname="white.svg"
   inkscape:output_extension="org.inkscape.output.svg.inkscape"
   inkscape:export-filename="/src_install/lvee/2008/logo2008.png"
   inkscape:export-xdpi="303.60001"
   inkscape:export-ydpi="303.60001">
  <metadata
     id="metadata3909">
    <rdf:RDF>
      <cc:Work
         rdf:about="">
        <dc:format>image/svg+xml</dc:format>
        <dc:type
           rdf:resource="http://purl.org/dc/dcmitype/StillImage" />
        <dc:title></dc:title>
      </cc:Work>
    </rdf:RDF>
  </metadata>
  <defs
     id="defs3907">
    <inkscape:perspective
       sodipodi:type="inkscape:persp3d"
       inkscape:vp_x="0 : 526.18109 : 1"
       inkscape:vp_y="0 : 1000 : 0"
       inkscape:vp_z="744.09448 : 526.18109 : 1"
       inkscape:persp3d-origin="372.04724 : 350.78739 : 1"
       id="perspective2954" />
    <inkscape:perspective
       sodipodi:type="inkscape:persp3d"
       inkscape:vp_x="0 : 526.18109 : 1"
       inkscape:vp_y="0 : 1000 : 0"
       inkscape:vp_z="744.09448 : 526.18109 : 1"
       inkscape:persp3d-origin="372.04724 : 350.78739 : 1"
       id="perspective2464" />
    <inkscape:perspective
       id="perspective3853"
       inkscape:persp3d-origin="372.04724 : 350.78739 : 1"
       inkscape:vp_z="744.09448 : 526.18109 : 1"
       inkscape:vp_y="0 : 1000 : 0"
       inkscape:vp_x="0 : 526.18109 : 1"
       sodipodi:type="inkscape:persp3d" />
    <inkscape:perspective
       sodipodi:type="inkscape:persp3d"
       inkscape:vp_x="0 : 526.18109 : 1"
       inkscape:vp_y="0 : 1000 : 0"
       inkscape:vp_z="744.09448 : 526.18109 : 1"
       inkscape:persp3d-origin="372.04724 : 350.78739 : 1"
       id="perspective4938" />
    <inkscape:perspective
       id="perspective4936"
       inkscape:persp3d-origin="372.04724 : 350.78739 : 1"
       inkscape:vp_z="744.09448 : 526.18109 : 1"
       inkscape:vp_y="0 : 1000 : 0"
       inkscape:vp_x="0 : 526.18109 : 1"
       sodipodi:type="inkscape:persp3d" />
    <inkscape:perspective
       id="perspective2433"
       inkscape:persp3d-origin="372.04724 : 350.78739 : 1"
       inkscape:vp_z="744.09448 : 526.18109 : 1"
       inkscape:vp_y="0 : 1000 : 0"
       inkscape:vp_x="0 : 526.18109 : 1"
       sodipodi:type="inkscape:persp3d" />
    <inkscape:perspective
       id="perspective2509"
       inkscape:persp3d-origin="372.04724 : 350.78739 : 1"
       inkscape:vp_z="744.09448 : 526.18109 : 1"
       inkscape:vp_y="0 : 1000 : 0"
       inkscape:vp_x="0 : 526.18109 : 1"
       sodipodi:type="inkscape:persp3d" />
  </defs>
  <sodipodi:namedview
     inkscape:window-height="997"
     inkscape:window-width="1400"
     inkscape:pageshadow="2"
     inkscape:pageopacity="0.0"
     guidetolerance="10.0"
     gridtolerance="10.0"
     objecttolerance="10.0"
     borderopacity="1.0"
     bordercolor="#666666"
     pagecolor="#ffffff"
     id="base"
     inkscape:zoom="1.03"
     inkscape:cx="316.51242"
     inkscape:cy="634.59085"
     inkscape:window-x="0"
     inkscape:window-y="31"
     inkscape:current-layer="svg3904"
     width="744.09449px"
     height="1052.3622px"
     showgrid="false"
     inkscape:window-maximized="1" />
  <g
     id="g6582">
    <path
       sodipodi:nodetypes="cssscccscccsssccccsccsssccssccssccccsssccssccssccssccsssccssccsssccsssssccsssccsssc"
       style="fill:#009933;fill-opacity:1"
       d="m 414.18075,445.52719 c 1.31634,-2.73851 5.77537,-4.84365 22.41603,-13.00385 11.83238,-5.80232 13.31826,-3.59662 10.86616,-1.8756 -3.11261,2.1846 -2.78011,1.64427 -22.32611,11.56065 -7.08671,3.59533 -8.87455,4.34582 -10.95608,3.3188 z m 44.95349,2.13228 c 1.04199,-0.8426 6.50066,-4.33609 7.65579,-5.13561 3.80879,-1.83657 4.38512,-1.03641 3.3121,0.51828 -1.48527,2.15204 -7.32279,6.0571 -10.18628,7.91058 -4.90831,3.05052 -6.23965,0.78137 -0.78161,-3.29325 z m 57.98951,-2.19899 c -32.21361,-11.18607 1.70712,0.99889 -31.75306,-11.41875 -8.08204,-2.99938 -5.95983,-6.99932 7.1724,-2.00914 23.88064,9.07453 38.03327,13.20608 38.03327,15.23944 0,1.05571 -2.27115,2.31399 -13.45261,-1.81155 z M 378.85598,430.00934 c 2.19312,-1.62472 26.83917,-14.79752 31.55981,-15.71039 4.21795,-0.62448 2.51308,0.75716 1.9068,1.75668 -1.65096,1.73877 -18.09044,9.95978 -22.00295,11.76548 -9.25724,4.27239 -15.24959,6.06363 -11.46366,2.18823 z m 73.82132,-11.84209 c -35.30562,-16.371 -50.62947,-25.40714 -43.08639,-25.40714 1.9613,0 54.58121,25.79596 56.89943,27.89392 0.95997,0.86877 1.74541,1.94933 1.74541,2.40127 0,1.7503 -3.85231,0.54002 -15.55845,-4.88805 z m 36.2724,2.01204 c -1.52524,-0.82133 -5.34887,-12.11011 -5.38809,-15.26376 -0.0314,-2.64059 2.12466,-2.74955 5.01364,7.07531 1.88698,6.41727 2.35487,9.43032 0.37445,8.18845 z m -31.16443,-13.46546 c -2.79163,-5.04945 -4.87776,-14.67148 -5.39344,-18.00306 -0.61087,-3.94665 1.78567,-2.71568 2.35249,-1.73088 1.24538,2.16373 5.92504,16.74762 5.5271,20.19137 -0.2837,1.21704 -0.49984,0.81288 -1.05375,0.67891 -0.47747,-0.15362 -1.02249,-0.84763 -1.4324,-1.13634 z m -31.08115,-22.13646 c -2.78331,-7.07098 -6.51534,-17.58797 -6.51534,-20.29133 0,-2.91555 0.91757,-3.26738 2.85368,-0.31248 1.84253,2.81204 6.48868,16.46057 7.46648,21.57468 0.82731,4.32706 -1.46625,3.979 -3.80482,-0.97087 z M 273.24439,343.7628 c -1.90646,-1.18443 0.96481,-2.02962 8.01625,-4.3966 39.9093,-13.39644 39.73229,-7.04698 8.00095,1.22162 -5.96186,1.55355 -15.48934,4.71595 -16.0172,3.17498 z m -28.42434,-19.29547 c 0.45927,-1.37783 12.8546,-4.58028 19.4494,-6.49435 33.2402,-9.64763 42.37152,-7.15072 5.35447,2.54413 -9.30595,2.43724 -26.21522,7.41999 -24.80387,3.95022 z m 75.51395,-7.14906 c -7.69528,-6.42922 -29.07555,-31.7979 -29.07555,-34.4995 0,-3.24401 7.89911,4.26033 23.09306,21.93891 12.68515,14.75952 15.37562,20.40833 5.98249,12.56059 z m 11.88024,-17.23725 c 2.77921,-12.74276 8.8464,-32.31025 9.91776,-34.81375 3.72373,-8.70139 3.18421,-0.18795 2.60469,2.05576 -6.53194,25.28919 -8.60357,33.28549 -10.4907,36.10959 -1.98339,2.96814 -3.17356,2.24267 -2.03175,-3.3516 z m -113.88601,-0.5934 c 0,-2.18749 39.38287,-11.7694 48.13394,-11.71106 9.56694,0.0638 -2.84873,4.01956 -31.92399,10.17136 -12.2803,2.59831 -16.20995,2.97155 -16.20995,1.5397 z m 89.34581,-25.13936 c 0.77076,-4.82005 8.66604,-36.43448 12.98869,-51.26278 3.20823,-11.00545 6.00743,-14.76888 5.35272,-7.60547 -0.54488,5.96172 -12.28694,53.81081 -15.63266,61.84296 -1.83966,4.4165 -3.44485,1.62864 -2.70875,-2.97471 z m -29.00118,-5.29888 c -14.62053,-20.06974 5.66977,9.52421 -17.0222,-24.82874 -9.14368,-13.84244 -10.57257,-19.66493 -5.54943,-15.79655 1.80241,1.38805 1.85654,1.11169 9.43484,13.61363 3.33033,5.49408 8.58841,13.57578 11.159,17.85435 4.51934,7.5221 6.08311,10.34533 4.42745,10.34533 -0.43475,0 -0.68598,1.22843 -2.44966,-1.18802 z m -78.82144,-7.5846 c -9.48871,-1.86744 -2.73343,-3.09292 0.74651,-3.24404 17.28855,-0.74493 53.09024,-0.10128 56.38331,0.96455 6.90568,2.23508 1.57725,2.82712 -22.41867,2.69518 -14.57389,-0.0801 -25.13445,0.3475 -34.71115,-0.41569 z m 84.60019,-23.80674 c 0,-2.66608 9.46944,-42.4277 12.79403,-53.72137 2.22256,-7.55009 3.73682,-9.08194 3.73682,-3.78023 0,7.03314 -10.18852,51.33603 -13.10136,56.96885 -1.86025,3.59733 -3.42949,3.8411 -3.42949,0.53275 z"
       id="path3857"
       inkscape:connector-curvature="0" />
    <path
       id="path2468"
       d="m 316.78264,427.88623 c 0,-1.79786 5.82049,-15.0896 7.2211,-16.49022 1.16654,-1.16653 1.94422,-1.23746 3.88293,-0.35412 2.61986,1.19368 8.73015,10.912 7.58243,12.05972 -0.38457,0.38459 -3.66239,1.81456 -7.28403,3.17775 -6.69435,2.51974 -11.40243,3.18322 -11.40243,1.60687 z m 12.08342,-5.27636 c 1.65425,-1.20961 1.66382,-1.46947 0.16089,-4.37582 -0.8788,-1.6994 -2.20015,-3.08981 -2.93632,-3.08981 -1.28252,0 -3.47358,4.69179 -3.47358,7.43812 0,1.68397 3.95983,1.7014 6.24901,0.0275 z m 17.67891,1.69266 c -1.09337,-2.8493 -0.60154,-10.71591 0.78896,-12.61895 1.16651,-1.59647 2.83537,-1.94019 10.82151,-2.22878 9.56563,-0.3457 11.64356,0.32057 10.47744,3.35946 -1.12255,2.9253 -16.71212,13.0264 -20.10436,13.0264 -0.76632,0 -1.65892,-0.69215 -1.98355,-1.53813 z m 11.27549,-6.36743 c 2.60863,-1.67395 4.57266,-3.53368 4.3645,-4.13271 -0.56956,-1.63914 -9.21687,-1.22623 -10.96677,0.52365 -1.62436,1.62437 -0.99375,6.65261 0.83434,6.65261 0.56374,0 3.1593,-1.3696 5.76793,-3.04355 z m -55.43124,2.38931 c -3.76007,-1.85308 -6.00238,-5.69028 -6.3004,-10.78172 -0.20924,-3.57482 -0.1266,-3.66489 4.88982,-5.3292 2.80646,-0.93111 7.51046,-1.9759 10.45333,-2.32178 5.24375,-0.61631 5.35067,-0.57963 5.35067,1.83527 0,3.10567 -5.32822,16.33091 -7.00907,17.39725 -1.85747,1.17841 -3.79645,0.96839 -7.38435,-0.79982 z m 8.46353,-8.44735 c 3.08735,-7.23443 2.22027,-8.19841 -5.25489,-5.84208 -3.0638,0.96579 -5.77544,2.28993 -6.02587,2.94253 -1.17123,3.05219 4.89439,9.72218 7.95706,8.74987 0.52615,-0.16703 2.02181,-2.79968 3.3237,-5.85032 z m 65.78428,-2.81034 c -0.20544,-0.66853 -0.61846,-3.59549 -0.91782,-6.50435 -0.29936,-2.90887 -1.48663,-8.46316 -2.63839,-12.34287 -2.93018,-9.87034 -2.53029,-10.48793 6.35577,-9.81589 9.20306,0.69603 11.24867,1.77122 11.24867,5.91247 0,4.19112 -2.58842,12.88387 -5.1095,17.15933 -3.31693,5.62513 -8.02356,8.56921 -8.93873,5.59131 z m 8.6213,-14.33979 c 1.93407,-6.89291 1.15007,-9.17256 -3.47248,-10.09708 -4.8199,-0.96396 -5.30513,0.33288 -3.31688,8.86493 0.96762,4.15229 1.96318,7.89906 2.21235,8.32614 0.96141,1.64781 3.01901,-1.5413 4.57701,-7.09399 z m -57.54939,2.16653 c -8.51843,-10.50885 -9.95389,-12.77309 -9.95389,-15.70086 0,-3.94872 9.66377,-3.83768 17.57073,0.20188 4.9832,2.54586 6.5546,6.03846 6.66536,14.81463 0.081,6.41355 -1.68413,10.1835 -4.76787,10.1835 -1.12158,0 -4.75448,-3.62711 -9.51433,-9.49915 z m 10.50553,1.64714 c 1.48449,-2.77382 0.25096,-9.20573 -2.34413,-12.22271 -2.32175,-2.69918 -10.95083,-4.98194 -12.59964,-3.33313 -0.57032,0.57031 0.71646,2.85754 3.42242,6.08338 2.38501,2.8432 5.31765,6.59158 6.51699,8.32975 2.54299,3.68548 3.52366,3.90941 5.00436,1.14271 z m 19.7359,3.7193 c -2.41324,-2.69797 -5.64794,-8.05295 -8.75542,-14.49447 -3.28887,-6.81751 -2.22741,-7.93642 7.08294,-7.46626 9.97733,0.50383 11.43178,1.98131 10.84941,11.0212 -0.73117,11.34966 -4.64108,16.01055 -9.17693,10.93953 z m 5.30798,-10.10706 c 0.21521,-4.47191 -0.10478,-6.34618 -1.28496,-7.52636 -1.86919,-1.86919 -8.23532,-2.14398 -8.24818,-0.35602 -0.005,0.66853 1.41734,4.15 3.16032,7.73662 4.07813,8.39181 5.9739,8.43517 6.37282,0.14576 z m -71.26232,3.55897 c -0.76435,-1.23675 5.61092,-14.75493 7.8252,-16.59264 2.43072,-2.0173 13.06594,9.62226 11.29909,12.36612 -2.15851,3.35213 -17.56091,6.75612 -19.12429,4.22652 z m 14.76907,-5.5153 c 0.68426,-1.78318 -2.79601,-5.19675 -5.29833,-5.19675 -1.81647,0 -4.05921,2.79168 -4.10125,5.10511 -0.0436,2.40136 8.48137,2.48447 9.39958,0.0916 z m 178.7321,-0.9135 c -10.82785,-2.6554 -10.54653,-5.97898 0.84654,-10.00107 8.60233,-3.03688 12.07893,-2.55995 14.42531,1.97891 1.01051,1.95476 1.92538,4.79903 2.03302,6.32062 0.19359,2.73658 0.1326,2.76848 -5.6387,2.9491 -3.20893,0.10044 -8.45871,-0.46096 -11.66617,-1.24756 z m 12.15237,-2.88857 c 0,-4.80884 -3.48265,-6.34193 -9.57893,-4.21676 -4.11464,1.43437 -3.86487,3.38813 0.58421,4.56978 5.73991,1.52451 8.99472,1.39676 8.99472,-0.35302 z m -37.03551,-0.34364 c -4.65118,-2.92169 -10.77147,-9.39341 -13.11761,-13.87078 -1.25317,-2.39157 -1.17362,-2.83826 0.95244,-5.34822 1.2759,-1.50628 4.72877,-4.03213 7.67305,-5.61299 6.6936,-3.59399 7.95516,-2.82343 8.88885,5.42929 0.36873,3.25914 1.51272,8.61215 2.54221,11.89558 1.02948,3.28343 1.87744,6.95443 1.88434,8.15778 0.0177,3.07956 -3.27107,2.83703 -8.82328,-0.65066 z m 2.22819,-4.94065 c 0.57476,-1.40302 -2.49037,-14.63538 -3.60426,-15.55982 -1.98259,-1.64541 -7.76546,3.78252 -6.90803,6.48405 1.43131,4.50967 9.52151,11.49431 10.51229,9.07577 z m 49.39336,-1.97603 c 0,-5.80562 2.1922,-11.6376 4.37448,-11.6376 2.84298,0 7.02381,2.79762 11.0983,7.42649 2.21465,2.51596 3.87313,5.04672 3.68551,5.62392 -0.40953,1.25989 -9.26553,3.25598 -15.02558,3.38666 l -4.13271,0.0938 0,-4.89323 z m 11.51791,-0.27314 c 0.80135,-0.96555 0.34883,-2.05498 -1.8564,-4.46942 -2.38994,-2.61662 -3.17367,-2.97883 -4.34397,-2.00758 -1.44847,1.20213 -1.96604,5.91911 -0.77965,7.10549 1.12822,1.12825 5.87694,0.70066 6.98002,-0.62849 z m -137.92744,-4.064 c -0.53638,-1.41077 -0.97523,-3.63267 -0.97523,-4.93753 0,-1.30486 -1.09396,-4.64012 -2.43101,-7.41171 -2.98515,-6.18792 -3.01214,-7.17961 -0.2431,-8.93319 3.82764,-2.42399 8.07524,-2.84324 9.9376,-0.98089 1.38205,1.38205 1.6086,3.1078 1.31508,10.01798 -0.37593,8.85034 -2.11072,13.94045 -4.93664,14.48466 -1.09997,0.21184 -2.03249,-0.57122 -2.6667,-2.23932 z m 4.65555,-15.56589 c -0.21093,-2.17763 -0.83725,-2.99598 -2.47047,-3.22793 -2.45685,-0.34893 -2.52902,-0.0896 -1.30446,4.68653 0.47994,1.87188 1.19693,4.71616 1.59331,6.32063 l 0.72069,2.91721 0.87175,-3.88962 c 0.47947,-2.13928 0.7446,-5.20236 0.58918,-6.80682 z m -53.27853,12.63683 c -12.42834,-8.24051 -13.61364,-9.20997 -13.61364,-11.13477 0,-2.53858 2.80623,-3.92407 10.0678,-4.97066 10.64793,-1.53468 14.24228,1.17682 14.24228,10.74407 0,5.55064 -1.37543,9.7814 -3.13624,9.64689 -0.68177,-0.0521 -4.08386,-1.98058 -7.5602,-4.28553 z m 7.76434,-5.58691 c -0.008,-1.73816 -0.39248,-3.75629 -0.85401,-4.48473 -1.76276,-2.78228 -14.7478,-3.43989 -14.64981,-0.74193 0.0494,1.3609 11.49648,8.2674 13.81701,8.33638 1.28489,0.0382 1.69806,-0.72348 1.68681,-3.10972 z m 20.86877,6.57454 c -4.72228,-5.00707 -12.10225,-15.53719 -12.10225,-17.26808 0,-3.62674 15.86728,-4.72969 19.25832,-1.33867 2.08878,2.08879 2.68107,12.55827 0.99626,17.61024 -1.72283,5.16601 -3.96186,5.4397 -8.15233,0.99651 z m 5.401,-7.39246 c 0,-2.1249 -0.64535,-5.40801 -1.43412,-7.29578 -1.3242,-3.16926 -1.71488,-3.4091 -5.09704,-3.12909 -2.33652,0.19345 -3.76424,0.83938 -3.94279,1.78378 -0.35283,1.86637 8.4099,13.7802 9.5962,13.04702 0.48276,-0.29836 0.87775,-2.28103 0.87775,-4.40593 z m 103.40484,5.49053 c -5.78415,-5.97179 -7.13793,-9.42838 -5.09857,-13.01812 2.23953,-3.94211 8.13447,-8.10456 11.71796,-8.27413 l 3.26069,-0.1543 0.72549,9.23782 c 0.39902,5.08081 0.48159,11.09755 0.18351,13.37054 -0.48233,3.678 -0.82358,4.13271 -3.10145,4.13271 -1.8231,0 -4.03491,-1.52329 -7.68763,-5.29452 z m 6.6871,-5.00168 c -0.47227,-8.17898 -1.30544,-12.06906 -2.58492,-12.06906 -1.56438,0 -6.37713,4.41638 -6.37713,5.85192 0,2.8836 6.45377,11.93339 8.11105,11.37372 0.70253,-0.23726 1.02294,-2.17876 0.851,-5.15658 z m -175.72914,3.94754 c -2.13929,-0.77071 -3.999,-1.40786 -4.13272,-1.41592 -0.1337,-0.008 -0.24409,-0.9992 -0.24532,-2.20255 -0.002,-1.45759 2.42473,-4.50112 7.26866,-9.11804 7.93543,-7.56351 10.6945,-8.97602 12.16521,-6.22797 1.4424,2.69514 -2.36925,15.54773 -5.41625,18.26323 -2.83437,2.526 -4.28219,2.63131 -9.63958,0.70125 z m 8.71507,-5.6141 c 0.80678,-1.23131 1.74673,-3.638 2.08877,-5.34822 0.85098,-4.25491 -0.93874,-4.0155 -6.42803,0.85989 -4.20263,3.73263 -4.3011,3.94265 -2.48825,5.30675 2.71537,2.0432 5.14318,1.75218 6.82751,-0.81842 z m 215.2698,1.49824 c -6.34386,-5.31257 -8.51714,-8.48058 -6.9161,-10.08164 1.36882,-1.36881 13.50252,-4.73631 17.06578,-4.73631 2.24083,0 3.01792,0.65373 4.23249,3.56061 0.91821,2.19758 1.25665,4.79231 0.88409,6.77819 -0.77727,4.14322 -4.96248,9.11244 -7.66259,9.09806 -1.15581,-0.006 -4.57747,-2.08467 -7.60367,-4.61891 z m 10.51111,-2.56031 c 2.15176,-4.51226 1.1538,-8.36802 -2.16583,-8.36802 -4.99617,0 -11.21627,2.12567 -10.90776,3.72764 0.35325,1.83428 8.12094,7.94119 10.10081,7.94119 0.76931,0 2.10706,-1.48537 2.97278,-3.30081 z m -40.21836,4.03011 c -3.13137,-3.4246 -5.19896,-8.18814 -5.81623,-13.40008 -0.49707,-4.19692 -0.23857,-5.21753 2.09701,-8.27963 6.03265,-7.90922 14.73382,-11.57637 17.0774,-7.19734 0.82539,1.54226 0.63635,3.36817 -0.83053,8.02231 -1.04454,3.31408 -2.6706,9.04589 -3.61349,12.73737 -1.56226,6.11649 -4.04609,10.30527 -6.11071,10.30527 -0.44158,0 -1.70315,-0.98455 -2.80345,-2.1879 z m 6.15039,-13.12485 c 1.22378,-4.68111 2.51581,-9.49567 2.87115,-10.69902 1.06039,-3.59103 -2.95509,-2.7388 -7.62645,1.61859 -3.56454,3.32497 -4.06765,4.3075 -3.97694,7.7667 0.0708,2.70075 0.94793,5.06683 2.75803,7.43999 1.4598,1.91389 2.90054,3.23344 3.20165,2.93234 0.30111,-0.30112 1.54876,-4.37748 2.77256,-9.0586 z m -65.12705,7.52334 c -3.51344,-3.08484 -9.3748,-13.4766 -9.3748,-16.62083 0,-3.82857 9.89174,-6.65304 12.41984,-3.54633 0.54402,0.66852 1.24005,4.71615 1.54672,8.99472 0.30668,4.27858 0.68091,9.04925 0.83164,10.6015 0.38189,3.93283 -1.38285,4.1186 -5.4234,0.57094 z m -0.20842,-11.60685 c -0.60738,-5.36849 -0.88984,-5.95672 -2.73396,-5.69353 -1.62891,0.23249 -1.99539,0.8687 -1.76231,3.05935 0.27104,2.54737 4.13748,9.6574 4.85921,8.93565 0.17294,-0.17292 0.01,-3.00858 -0.36294,-6.30147 z m 14.72914,0.55723 c -7.80103,-7.80103 -7.23199,-12.50156 2.28687,-18.89056 4.16778,-2.79738 7.06198,-4.085 8.74269,-3.88961 2.35315,0.27358 2.50218,0.60036 2.35062,5.15411 -0.22192,6.66767 -5.16855,21.29981 -7.33597,21.69987 -0.95389,0.17606 -3.53198,-1.56157 -6.04421,-4.07381 z m 6.83505,-8.92291 c 2.6758,-8.07279 2.78181,-9.18936 0.87253,-9.18936 -2.24123,0 -9.23783,7.50149 -9.23783,9.90446 0,2.32303 3.70196,6.85102 5.19446,6.35351 0.51189,-0.17064 1.93878,-3.35151 3.17084,-7.06861 z m -121.65023,8.10096 c -3.20893,-1.67013 -8.4599,-3.94697 -11.66883,-5.05965 -7.41362,-2.57063 -7.80346,-4.78545 -1.45861,-8.28699 3.54714,-1.95754 6.09345,-2.49013 13.44575,-2.81235 6.13193,-0.26872 9.4393,-0.0278 10.21023,0.74375 1.19462,1.1956 1.3228,12.96181 0.18042,16.56116 -0.87807,2.76651 -3.79051,2.45487 -10.70896,-1.14592 z m 7.10598,-7.33434 c 0.26337,-3.63358 0.01,-4.23704 -2.11957,-5.04668 -3.37689,-1.28388 -14.22424,0.16706 -14.22424,1.90264 0,1.24107 12.70981,7.76519 14.58605,7.48722 0.97609,-0.14461 1.55757,-1.58135 1.75776,-4.34318 z m 21.34335,3.01135 c -2.4169,-1.95992 -6.30222,-4.26825 -8.63402,-5.12961 -5.50655,-2.0341 -6.00826,-4.35213 -1.27978,-5.91267 4.14473,-1.36788 13.63542,-0.58167 18.74379,1.55274 3.12029,1.30374 3.29281,1.61257 2.75441,4.9304 -0.58474,3.60329 -3.94256,8.12265 -6.03502,8.12265 -0.63524,0 -3.13246,-1.60357 -5.54938,-3.56351 z m 7.84343,-4.53655 c 0.40149,-2.0701 -3.87806,-3.76355 -8.52436,-3.37315 l -3.45833,0.29059 4.86202,2.62616 c 5.28172,2.85286 6.63904,2.93985 7.12067,0.4564 z m 145.70864,3.56219 c -1.30773,-1.30773 -0.56851,-5.80287 1.78602,-10.86061 l 2.4153,-5.18826 3.65272,2.20248 c 7.77627,4.68884 11.97817,8.1167 11.70272,9.54695 -0.53637,2.78516 -17.37022,6.48598 -19.55676,4.29944 z m 9.20604,-3.39526 c 2.06763,-0.61948 3.75933,-1.70219 3.75933,-2.40604 0,-1.08272 -4.65463,-4.24686 -6.24736,-4.24686 -0.98316,0 -3.5499,5.90165 -2.97282,6.83538 0.73419,1.18794 0.90594,1.18221 5.46085,-0.18248 z m -48.12689,1.06061 c -5.58247,-4.39117 -8.17285,-13.63891 -4.77277,-17.039 2.59021,-2.5902 13.5203,-7.38981 16.02107,-7.03514 4.03139,0.57175 3.42738,5.81959 -1.87754,16.31287 -2.55534,5.05454 -5.11904,9.33275 -5.69712,9.50714 -0.57807,0.17438 -2.2312,-0.61125 -3.67364,-1.74587 z m 5.64563,-11.35379 c 5.18815,-9.77048 4.74667,-10.81208 -2.60624,-6.14901 -6.89366,4.37183 -7.64798,7.11544 -3.42372,12.45269 1.39151,1.75814 2.19532,0.91784 6.02996,-6.30368 z m -46.62388,1.75179 c -1.06965,-0.44882 -2.96686,-1.91656 -4.21602,-3.26164 -2.71527,-2.92374 -2.11239,-4.60283 3.38599,-9.43047 10.17681,-8.93535 23.25455,-9.09589 14.65811,-0.17994 -1.89732,1.96786 -4.72144,5.76571 -6.27581,8.43969 -2.92914,5.039 -4.25376,5.8164 -7.55227,4.43236 z m 9.20439,-14.45649 c -1.00868,-0.38048 -7.83046,3.89345 -9.58082,6.00249 -1.07017,1.28946 -1.08669,1.87236 -0.0873,3.07659 1.06844,1.2874 1.84917,0.80064 5.84868,-3.64651 2.53859,-2.82273 4.25733,-5.26739 3.8194,-5.43257 z m 52.1873,2.61947 c -5.708,-6.30753 -7.6064,-10.24186 -5.554,-11.51031 3.4771,-2.14895 22.68163,5.529 23.21778,9.28246 0.3466,2.42656 -5.05039,6.93814 -9.3217,7.7924 -2.48657,0.49732 -3.41968,-0.12511 -8.34208,-5.56455 z m 10.51066,-0.79925 c 2.2294,-2.46345 1.48953,-3.4451 -4.0085,-5.31848 -8.00752,-2.72842 -9.001,-1.81633 -4.10073,3.76476 3.40423,3.8772 5.62198,4.30211 8.10923,1.55372 z m -45.94048,2.12663 c -2.69847,-3.83008 -6.02761,-10.61736 -6.02761,-12.28881 0,-5.22784 21.07348,-11.66815 27.29121,-8.34053 2.81591,1.50703 2.29554,3.36355 -1.86679,6.66018 -2.06121,1.6325 -5.64744,5.49811 -7.96941,8.59023 -6.79712,9.0516 -8.3311,9.77366 -11.4274,5.37893 z m 9.43462,-9.85607 c 2.72703,-3.14783 4.95823,-6.26816 4.95823,-6.93404 0,-3.0175 -13.83062,1.9651 -14.42906,5.19819 -0.45212,2.44264 1.74586,7.45921 3.26818,7.45921 0.68444,0 3.47562,-2.5755 6.20265,-5.72336 z m -93.19533,-16.83531 c -5.77286,-2.85746 -12.97337,-9.82075 -12.53462,-12.12167 0.44639,-2.34094 3.84818,-2.75946 7.41922,-0.9128 1.57002,0.81189 5.32059,1.66127 8.3346,1.88753 8.34415,0.62636 9.92428,2.86997 6.98153,9.91298 -1.6982,4.06435 -3.93575,4.33501 -10.20073,1.23396 z m 6.5246,-3.74207 c 0.20275,-1.05283 -1.5544,-2.08031 -6.06635,-3.54726 -3.49349,-1.13582 -6.35179,-1.70841 -6.35179,-1.27243 0,1.29843 9.05322,6.89489 10.65473,6.58646 0.81289,-0.15655 1.60641,-0.95159 1.76341,-1.76677 z m 14.91979,0.45189 c -4.42692,-5.62792 -3.50926,-8.9891 2.97706,-10.90427 2.33679,-0.68997 6.17442,-2.77836 8.52806,-4.64087 2.35364,-1.8625 4.75057,-3.23149 5.32652,-3.04219 3.40841,1.12031 -0.0136,9.64431 -6.95722,17.33008 -4.02659,4.45695 -7.05428,4.84245 -9.87442,1.25725 z m 7.24501,-3.10175 c 2.20418,-1.84473 5.65499,-6.98302 5.07752,-7.56048 -0.19989,-0.1999 -2.31337,0.93004 -4.69661,2.51094 -2.38324,1.58093 -4.74008,3.01203 -5.23741,3.18025 -1.30005,0.43971 0.11716,3.59679 1.60303,3.57099 0.68532,-0.0119 2.14938,-0.77766 3.25347,-1.7017 z m -54.55357,-12.9831 c -2.89748,-2.74032 -6.37193,-6.86587 -7.72101,-9.16788 -2.44212,-4.16717 -3.2448,-9.55556 -1.57695,-10.58633 0.48173,-0.29773 3.87299,0.72215 7.53611,2.26642 3.66314,1.54426 8.19177,3.10605 10.06365,3.47065 7.60638,1.48156 9.72402,2.53646 9.72402,4.84398 0,3.34157 -8.73305,14.15557 -11.43159,14.15557 -0.72933,0 -3.69673,-2.24209 -6.59423,-4.98241 z m 10.20224,-3.44748 c 1.12287,-1.4275 1.89353,-3.06843 1.71257,-3.6465 -0.37953,-1.21242 -11.7585,-5.25005 -15.09372,-5.35577 -2.23902,-0.071 -2.23986,-0.0659 -0.48621,2.94121 2.33945,4.01159 7.69742,8.65652 9.98537,8.65652 1.01222,0 2.75911,-1.16795 3.88199,-2.59546 z m 22.40963,4.9456 c -9.19576,-5.22949 -12.15694,-10.22489 -7.18227,-12.11627 3.18239,-1.20994 21.82805,-3.66652 23.47001,-3.09218 1.75592,0.61419 1.45684,4.9397 -0.66457,9.61193 -3.85562,8.49164 -7.95195,9.95903 -15.62317,5.59652 z m 9.19426,-1.98176 c 2.20316,-0.84543 4.83623,-6.17489 3.6412,-7.36992 -1.30144,-1.30143 -15.96904,0.33708 -16.46594,1.8394 -0.38619,1.16757 3.97647,3.8542 8.4862,5.226 1.34052,0.40777 2.51091,0.779 2.60087,0.82497 0.09,0.046 0.87191,-0.18823 1.73767,-0.52045 z m 22.40883,-5.89304 c -1.60447,-0.85646 -4.58135,-2.86319 -6.6153,-4.45943 -4.99933,-3.92347 -4.52088,-6.08228 2.23948,-10.10479 2.94152,-1.75022 7.64991,-5.19756 10.46308,-7.66073 6.8484,-5.99638 8.50395,-5.60512 8.48206,2.00453 -0.0239,8.29923 -6.59728,21.94933 -10.50608,21.81655 -0.63031,-0.0215 -2.45878,-0.73967 -4.06324,-1.59613 z m 7.09578,-7.35967 c 2.34486,-3.8876 4.48877,-10.37553 3.69188,-11.17243 -0.88224,-0.88223 -14.19107,8.50099 -14.19107,10.00523 0,1.76088 3.83004,4.32752 6.45767,4.32752 1.36982,0 2.8187,-1.13298 4.04152,-3.16032 z m -61.26267,-6.85872 c -10.65408,-8.68498 -9.95725,-12.04112 2.67984,-12.90685 10.42295,-0.71404 16.38357,0.41973 16.78266,3.19224 0.36923,2.56515 -2.09259,7.6291 -5.45706,11.22513 -3.78809,4.04879 -7.70374,3.62647 -14.00544,-1.51052 z m 12.80188,-1.83315 c 3.91471,-4.20193 2.77688,-5.31872 -6.03425,-5.92265 -4.40933,-0.30223 -8.22268,-0.34376 -8.47413,-0.0923 -1.55182,1.55182 7.18886,8.09181 10.86187,8.12712 0.91511,0.009 2.55604,-0.94167 3.64651,-2.11216 z m 20.68613,-0.89902 c -4.56239,-2.25832 -8.18756,-6.17416 -7.38254,-7.97441 0.75478,-1.6879 19.08901,-10.44596 22.35508,-10.67879 3.74125,-0.26669 4.10884,2.58243 1.30162,10.08882 -3.92977,10.5081 -8.00972,12.65521 -16.27416,8.56438 z m 9.63297,-4.41886 c 2.95386,-3.36349 4.96952,-8.25714 3.85862,-9.36803 -0.72797,-0.72797 -1.5405,-0.58441 -2.75687,0.48707 -0.94857,0.83559 -4.02198,2.67046 -6.82979,4.0775 -2.80782,1.40703 -5.10511,3.15258 -5.10511,3.879 0,0.72643 1.40164,1.99961 3.11477,2.8293 3.30729,1.60177 5.00725,1.18223 7.71838,-1.90484 z m -60.80934,-1.13965 c -0.27413,-0.44354 -0.98767,-3.8348 -1.58564,-7.53611 -1.22134,-7.55993 -0.49756,-16.53149 1.39221,-17.25665 1.71128,-0.65669 8.43818,2.50475 10.67103,5.01506 2.38807,2.68481 1.66314,6.34559 -2.85728,14.42885 -2.33596,4.1771 -4.03354,6.15532 -5.28207,6.15532 -1.01191,0 -2.06411,-0.36291 -2.33825,-0.80647 z m 6.27753,-10.28413 c 2.17745,-4.92248 1.70544,-7.14909 -1.69653,-8.00293 -3.48458,-0.87457 -4.17584,0.43731 -3.52962,6.69853 0.71251,6.90362 2.54683,7.36145 5.22615,1.3044 z m 27.65401,-1.68488 c -5.62177,-1.29845 -13.12744,-7.04527 -13.12744,-10.05121 0,-3.12735 1.75007,-3.93303 11.66883,-5.37204 15.28392,-2.21738 20.32226,-2.36073 20.99889,-0.59744 1.05892,2.75948 -0.47972,6.22996 -4.71954,10.64521 -6.30756,6.56855 -7.60999,7.04094 -14.82074,5.37548 z m 8.9417,-4.24084 c 2.52382,-1.76775 6.5916,-8.12922 5.74164,-8.97918 -0.33591,-0.33591 -3.33949,-0.10312 -6.67464,0.51731 -3.33514,0.62042 -8.14241,1.40554 -10.68281,1.7447 -4.92109,0.65699 -5.7595,1.9794 -2.89721,4.56974 3.9692,3.59208 10.97131,4.62815 14.51302,2.14743 z m 26.70667,-0.96147 c -3.29455,-3.52188 -5.9872,-7.15319 -5.98368,-8.06955 0.0148,-3.83045 7.50307,-11.58869 10.19024,-10.55752 1.87451,0.71931 5.3379,12.49122 5.61987,19.10162 0.20351,4.77117 0.009,5.37953 -1.8041,5.63854 -1.44731,0.20677 -3.75633,-1.55273 -8.02233,-6.11309 z m 6.33977,-3.72577 c -0.31663,-2.31016 -1.04004,-5.42159 -1.60756,-6.91427 -0.96909,-2.5489 -1.1639,-2.62672 -3.20296,-1.27957 -3.39874,2.24546 -3.2733,5.34543 0.36835,9.10265 1.75463,1.81032 3.60146,3.29151 4.10407,3.29151 0.51798,0 0.66445,-1.81947 0.3381,-4.20032 z m -67.11904,-12.0001 c -1.90906,-0.54111 -1.89779,-0.89598 0.39621,-12.48545 1.31409,-6.63882 2.24824,-8.03525 4.25894,-6.36651 2.98786,2.47971 10.26552,12.89693 10.26552,14.69406 0,0.99783 -0.79947,2.24211 -1.77661,2.76505 -2.19958,1.17718 -10.71967,2.08004 -13.14406,1.39285 z m 10.59369,-5.27145 c 0.74304,-1.20226 -4.17484,-6.7278 -5.98792,-6.7278 -1.35751,0 -2.79592,5.26032 -1.8548,6.78309 0.81844,1.32426 7.01712,1.28057 7.84272,-0.0552 z m 27.29114,-1.43658 c -1.18064,-3.07667 4.06466,-18.90486 6.26488,-18.90486 1.5147,0 10.63947,14.00988 10.63947,16.3355 0,1.3322 -8.89512,4.08495 -13.19988,4.08495 -1.93105,0 -3.34485,-0.57841 -3.70447,-1.51559 z m 10.22799,-3.95068 c 1.58608,-1.43539 1.61248,-1.82747 0.2947,-4.37581 -0.79613,-1.53954 -2.08141,-2.79915 -2.85616,-2.79915 -1.50691,0 -4.37581,4.74983 -4.37581,7.24473 0,2.0324 4.66625,1.98547 6.93727,-0.0698 z m -26.38001,0.41073 c -2.22845,-2.30025 -5.15612,-6.04904 -6.50593,-8.33065 -2.3527,-3.97686 -2.38653,-4.25159 -0.81836,-6.64494 3.34298,-5.10202 11.24404,-6.3908 16.8123,-2.74233 2.59158,1.69807 2.50789,2.96819 -0.90338,13.71168 -2.73613,8.61714 -3.6875,9.06113 -8.58463,4.00624 z m 6.65728,-7.98613 c 1.30901,-5.36336 1.28378,-5.82404 -0.38585,-7.0449 -2.55462,-1.86798 -5.62199,-1.61501 -8.57412,0.70713 -2.86335,2.25231 -2.60879,3.33683 2.21339,9.42973 3.49874,4.42072 5.09112,3.69093 6.74658,-3.09196 z"
       style="fill:#663300;fill-opacity:1"
       inkscape:connector-curvature="0" />
    <path
       inkscape:connector-curvature="0"
       id="path2437"
       d="m 184.37968,492.38216 c -4.85753,0.16496 -11.51591,5.7726 -16.89444,16.76597 -7.96695,16.28385 -15.50735,52.26862 -13.36137,63.72347 0.81461,4.34837 -0.99486,21.98473 -3.98272,39.18481 -6.58081,37.88345 -6.75688,47.33098 -1.02779,53.06006 3.60071,3.60068 7.72036,4.09516 22.61155,2.82644 29.82222,-2.54075 46.70057,-12.4197 46.70057,-27.30088 0,-7.6337 -0.69094,-8.74892 -4.56085,-7.13035 -12.21018,5.10681 -36.08272,11.75544 -42.07548,11.75544 -6.61822,0 -6.6807,-0.20969 -5.3317,-16.44477 0.75191,-9.04922 4.91007,-31.23585 9.25018,-49.3343 7.63234,-31.82698 11.78592,-51.86872 14.83884,-71.11077 1.72447,-10.86926 -1.30928,-16.16005 -6.16679,-15.99512 z m 85.05028,0.57815 c -1.98183,0.13273 -4.57579,1.36157 -8.02967,3.14763 -7.02609,3.63335 -11.45308,9.79985 -14.90307,20.68444 -1.94793,6.14557 5.10759,73.74084 9.69984,92.95148 2.07664,8.68726 6.35047,22.23998 9.50712,30.12733 4.77847,11.93975 5.16609,15.32722 2.50526,20.299 -2.52917,4.72583 -2.45978,6.825 0.19272,10.02104 1.84342,2.22117 4.93987,4.04695 6.8734,4.04695 5.1726,0 24.79563,-19.52325 24.79563,-24.66716 0,-2.42812 4.60188,-13.54251 10.21373,-24.73138 19.98178,-39.83959 34.49548,-80.85603 34.49548,-97.25539 0,-7.00446 0.51207,-6.86133 -9.95679,-3.21187 -8.36431,2.91581 -9.82764,6.04617 -12.46206,26.85123 -1.42346,11.24166 -10.10605,32.96014 -25.50223,63.59499 -12.40991,24.69282 -13.2477,24.1601 -19.39969,-13.29713 -3.15749,-19.22533 -3.94559,-36.52566 -3.01915,-66.35721 1.03077,-33.19223 0.93494,-42.60216 -5.01052,-42.20395 z m 176.26735,0.12847 c -11.33603,-0.0279 -26.41026,2.88195 -33.59614,7.32306 -20.42619,12.62409 -33.08324,31.62724 -36.87226,55.37262 -8.12971,50.94834 -11.12631,99.92252 -6.29525,102.90827 1.94253,1.20056 3.67335,3.44558 3.85424,4.94628 0.18099,1.50069 0.46127,3.46658 0.64236,4.36815 0.83597,4.1642 36.16836,-2.32008 52.16075,-9.57138 16.28366,-7.38336 29.80615,-18.20501 29.80615,-23.83205 0,-3.17007 -6.08824,-3.25649 -9.37866,-0.12848 -4.37145,4.15569 -35.28471,10.79187 -50.29787,10.79187 -14.37247,0 -14.4815,-0.007 -13.10442,-7.19458 0.76281,-3.98168 2.16167,-14.51017 3.0834,-23.38241 1.40113,-13.48694 2.70076,-16.60981 7.83697,-18.95002 6.18694,-2.81896 30.91498,-6.30743 48.43497,-6.80916 8.56542,-0.24529 9.4956,-0.99185 10.21374,-8.35086 1.27281,-13.04346 -4.39521,-15.81882 -25.11681,-12.26934 -9.55501,1.6367 -20.77727,5.49442 -24.98834,8.60781 -4.20678,3.11021 -8.2915,5.00562 -9.05746,4.23966 -2.43756,-2.43756 10.77604,-52.48284 15.35272,-58.13482 3.8386,-4.74045 7.3636,-5.39594 27.68631,-5.39594 12.79683,0 24.1173,-1.18586 25.18105,-2.63373 4.056,-5.52072 2.03126,-16.93565 -3.53305,-19.91359 -2.51188,-1.34432 -6.85965,-1.9787 -12.0124,-1.99136 z m 131.62239,0 c -11.33604,-0.0279 -26.41026,2.88195 -33.59614,7.32306 -20.42621,12.62409 -33.08324,31.62724 -36.87226,55.37262 -8.12972,50.94834 -11.12631,99.92252 -6.29526,102.90827 1.94254,1.20056 3.67335,3.44558 3.85424,4.94628 0.18099,1.50069 0.46127,3.46658 0.64237,4.36815 0.83594,4.1642 36.16836,-2.32008 52.16075,-9.57138 16.28365,-7.38336 29.80614,-18.20501 29.80614,-23.83205 0,-3.17007 -6.08824,-3.25649 -9.37865,-0.12848 -4.37146,4.15569 -35.28473,10.79187 -50.29787,10.79187 -14.37247,0 -14.48151,-0.007 -13.10442,-7.19458 0.76281,-3.98168 2.16166,-14.51017 3.08339,-23.38241 1.40113,-13.48694 2.70076,-16.60981 7.83695,-18.95002 6.18697,-2.81896 30.915,-6.30743 48.43499,-6.80916 8.56542,-0.24529 9.55984,-0.99185 10.27798,-8.35086 1.27281,-13.04346 -4.45945,-15.81882 -25.18105,-12.26934 -9.55501,1.6367 -20.77727,5.49442 -24.98834,8.60781 -4.20677,3.11021 -8.29149,5.00562 -9.05748,4.23966 -2.43753,-2.43756 10.77607,-52.48284 15.35274,-58.13482 3.8386,-4.74045 7.3636,-5.39594 27.68631,-5.39594 12.79683,0 24.1173,-1.18586 25.18105,-2.63373 4.056,-5.52072 2.03126,-16.93565 -3.53306,-19.91359 -2.51187,-1.34432 -6.85964,-1.9787 -12.01238,-1.99136 z"
       style="fill:#009933;fill-opacity:1" />
    <path
       style="fill:#ffffff;fill-opacity:1"
       d="m 632.35681,756.17543 c -0.76535,-1.23834 0.12438,-12.47872 1.42514,-18.00436 0.66302,-2.81658 0.65633,-2.81909 -1.77253,-0.66662 -4.00031,3.54508 -3.65513,1.62071 0.97134,-5.41511 2.3968,-3.64501 4.96513,-8.09346 5.70739,-9.88544 1.37182,-3.31184 3.35642,-4.41669 3.31324,-1.84451 -0.0131,0.77748 -1.28531,5.71318 -2.82725,10.96819 -3.45016,11.75837 -3.56619,15.71452 -0.17015,5.80149 1.3683,-3.9941 3.08687,-7.46167 3.81903,-7.70572 0.73217,-0.24405 2.15386,1.14707 3.15933,3.09142 2.35631,4.5566 5.05722,4.06169 7.62785,-1.39771 2.21807,-4.71062 6.75182,-8.2306 9.32786,-7.24209 2.76993,1.06292 1.97347,3.74847 -2.35985,7.95692 -5.79503,5.62806 -2.81079,8.898 3.89035,4.26282 5.30159,-3.66714 6.21802,-4.06257 5.12391,-2.211 -1.90222,3.21916 -9.2242,8.81097 -11.53718,8.81097 -1.28211,0 -3.07475,-1.06172 -3.98366,-2.35935 -1.40261,-2.00252 -2.02709,-2.15891 -4.12898,-1.03402 -2.08602,1.11641 -2.89007,0.93675 -5.1003,-1.13964 -2.5068,-2.35502 -2.67317,-2.37195 -3.7288,-0.37963 -0.60769,1.14696 -2.19336,5.75446 -3.5237,10.23889 -2.45556,8.27742 -3.83172,10.42187 -5.23304,8.1545 z m 3.56616,-10.91267 c -0.37579,-0.37579 -0.64308,0.29216 -0.59397,1.4843 0.0543,1.31745 0.32224,1.58542 0.68324,0.68327 0.32668,-0.81637 0.28652,-1.79178 -0.0893,-2.16757 z m 24.19656,-16.41584 c 0,-0.63086 -0.75008,-0.50839 -1.69635,0.27695 -0.93299,0.77431 -1.69634,1.91675 -1.69634,2.53875 0,0.63084 0.75008,0.50838 1.69634,-0.27696 0.933,-0.77431 1.69635,-1.91674 1.69635,-2.53874 z m -302.55606,19.62845 c 1.88964,-5.95373 15.26073,-36.71141 16.4496,-37.83921 1.06721,-1.01239 1.18914,-0.67237 0.54661,1.52419 -2.07687,7.10001 -12.16086,33.62502 -13.65039,35.90611 -2.01812,3.09056 -4.28487,3.36759 -3.34582,0.40891 z M 70.204123,746.66833 c -0.406415,-1.05911 -0.186715,-5.31265 0.488223,-9.45233 0.67493,-4.13968 1.22101,-9.12075 1.213486,-11.06904 -0.0309,-8.01562 4.384525,-18.05648 6.866413,-15.61446 0.870222,0.85622 0.406643,5.18807 -1.620217,15.13996 -3.807304,18.69394 -3.814521,18.5878 1.199254,17.64722 2.22116,-0.41669 4.765681,-1.03668 5.654507,-1.37775 0.971881,-0.37295 1.616047,0.0777 1.616047,1.13046 0,2.58803 -2.302802,3.625 -11.014821,4.96008 -2.752737,0.42185 -3.847725,0.0826 -4.402892,-1.36414 z m 122.966957,-0.86367 c 0.0486,-1.39949 -0.72813,-4.73683 -1.726,-7.4163 -0.99787,-2.67947 -2.12988,-9.31737 -2.51556,-14.75089 -0.59741,-8.41644 -0.4155,-10.16486 1.22865,-11.80902 1.06145,-1.06144 2.33973,-1.9299 2.84063,-1.9299 0.50091,0 1.12719,5.97964 1.39171,13.28809 0.26454,7.30845 1.00339,14.21397 1.64188,15.34561 0.99561,1.76458 1.68169,0.99963 4.81869,-5.37249 2.01178,-4.08651 3.94992,-9.23029 4.307,-11.43062 0.62753,-3.86705 4.87069,-8.06277 4.85655,-4.80225 -0.021,4.82842 -8.42728,25.13803 -12.18682,29.44322 -2.40976,2.75952 -4.76223,2.47387 -4.65673,-0.56545 z m 199.1511,1.18744 c -0.7464,-0.74639 -1.33932,-3.41815 -1.31763,-5.93722 0.062,-7.19202 3.0086,-21.98015 4.97889,-24.98717 3.89372,-5.94255 15.90333,-8.46624 15.90333,-3.34191 0,1.8706 -0.63203,2.19854 -3.65407,1.89608 -7.42444,-0.74307 -8.08804,5.5e-4 -11.08109,12.41731 l -0.72421,3.00439 4.97958,-1.79065 c 5.26166,-1.89208 8.78344,-1.38654 8.78344,1.26084 0,1.11424 -1.87806,1.74755 -6.25976,2.11093 -3.44287,0.28551 -6.71333,0.98466 -7.26768,1.55366 -0.55437,0.56901 -1.33547,3.27166 -1.73578,6.00591 l -0.72786,4.97134 6.45958,-0.7592 c 6.16208,-0.72423 6.90394,-1.17978 16.10613,-9.89044 5.30557,-5.02217 10.83351,-9.67207 12.28428,-10.33307 4.80765,-2.19053 4.36684,0.38443 -0.88693,5.18085 -2.84853,2.60055 -5.89468,5.70217 -6.76923,6.89249 -1.46505,1.99404 -1.41125,2.06898 0.68436,0.95293 1.25093,-0.66621 3.23821,-2.27625 4.41614,-3.57785 2.87699,-3.17904 5.18385,-3.00372 5.18385,0.39395 0,4.72984 1.86955,4.26869 8.83376,-2.17892 3.70463,-3.42985 7.36858,-6.23609 8.14208,-6.23609 1.49675,0 1.09349,8.58644 -0.61079,13.00537 -1.24865,3.23753 6.70922,-4.37259 10.93887,-10.46084 l 3.33906,-4.80633 -5.14338,0 c -4.38944,0 -5.14338,-0.33155 -5.14338,-2.2618 0,-1.98425 0.75394,-2.26181 6.14374,-2.26181 5.15053,0 6.25981,-0.36565 6.86162,-2.26179 0.70931,-2.23483 2.82725,-3.18792 2.82725,-1.27228 0,0.54425 0.31807,2.57987 0.70682,4.52361 0.54089,2.70446 0.30769,3.53407 -0.99342,3.53407 -1.6185,0 -5.3679,11.56644 -5.3679,16.55935 0,2.79455 6.48587,-3.53254 8.47993,-8.27236 1.73439,-4.12259 6.53908,-7.71029 9.04031,-6.75048 2.76993,1.06292 1.97346,3.74847 -2.35986,7.95692 -4.00847,3.893 -4.31001,6.33918 -0.78139,6.33918 2.64946,0 9.03513,-5.21349 10.73838,-8.76718 1.94181,-4.05145 4.96261,-4.49382 8.43174,-1.23475 2.46057,2.31158 2.7249,3.2808 2.10982,7.73594 l -0.70316,5.09325 7.20117,-7.63358 c 3.96064,-4.19847 7.8561,-7.63358 8.65657,-7.63358 1.55341,0 1.25615,5.37174 -0.53194,9.61265 -0.70773,1.67856 0.1501,1.29887 3.32668,-1.47243 4.82747,-4.21155 6.2588,-4.18908 8.36505,0.13138 1.41879,2.91028 1.56803,2.95136 4.27617,1.17693 4.36173,-2.85791 4.25703,-1.22112 -0.19629,3.06867 l -4.02877,3.88085 -2.53405,-3.15338 c -3.03187,-3.77288 -5.01903,-3.31298 -9.16353,2.12073 -3.43383,4.502 -6.80652,5.26037 -5.84979,1.31538 2.5032,-10.32182 2.85275,-9.89981 -3.39321,-4.09678 -5.22226,4.85192 -10.01323,7.55454 -11.23182,6.33595 -0.28152,-0.28153 0.0112,-1.88783 0.65067,-3.56957 3.09239,-8.13356 -0.45865,-12.60862 -5.19889,-6.55173 -3.28497,4.19742 -9.43206,8.16486 -12.65051,8.16486 -1.2908,0 -3.08328,-1.05131 -3.98327,-2.33623 -1.62374,-2.31822 -1.66785,-2.30859 -5.72169,1.25072 -5.67544,4.98311 -7.92634,3.95075 -7.22818,-3.31517 l 0.52785,-5.49353 -3.69481,3.69482 c -2.03215,2.03215 -5.55432,5.11313 -7.82706,6.84664 -3.40551,2.5975 -4.3122,2.86747 -5.15543,1.535 -1.57178,-2.48369 -1.25273,-6.70586 0.5067,-6.70586 1.52712,0 3.20413,-5.0325 2.05872,-6.17791 -0.31712,-0.31712 -2.77742,1.45209 -5.46733,3.93157 -5.50802,5.07712 -8.43937,5.63718 -10.81085,2.06556 l -1.62181,-2.44257 -2.19156,2.28922 c -4.52859,4.73042 -10.66595,6.02419 -9.08953,1.91609 0.33389,-0.87008 0.24134,-1.56577 -0.20563,-1.54599 -1.41795,0.0628 -4.77083,2.99523 -4.77083,4.17264 0,1.25275 -11.51723,5.96951 -14.57617,5.96951 -1.06424,0 -2.54568,-0.61069 -3.29207,-1.35709 z m 84.59139,-18.14518 c 0,-0.63086 -0.75009,-0.50839 -1.69636,0.27695 -0.93299,0.77431 -1.69635,1.91675 -1.69635,2.53875 0,0.63084 0.75007,0.50838 1.69635,-0.27696 0.933,-0.77431 1.69636,-1.91674 1.69636,-2.53874 z m 70.34203,18.14518 c -0.74639,-0.74639 -1.33932,-3.41815 -1.31762,-5.93722 0.062,-7.19202 3.00861,-21.98015 4.97889,-24.98717 3.89371,-5.94255 15.90332,-8.46624 15.90332,-3.34191 0,1.8706 -0.63202,2.19854 -3.65406,1.89608 -7.42445,-0.74307 -8.08804,5.5e-4 -11.08109,12.41731 l -0.7242,3.00439 4.97956,-1.79065 c 5.26168,-1.89208 8.78344,-1.38654 8.78344,1.26084 0,1.11424 -1.87806,1.74755 -6.25975,2.11093 -3.44287,0.28551 -6.71332,0.98466 -7.26768,1.55366 -0.55438,0.56901 -1.33547,3.27166 -1.73579,6.00591 l -0.72786,4.97134 6.58192,-0.73901 c 6.91114,-0.77597 8.14516,-1.70092 18.74781,-14.05234 3.38969,-3.94877 6.12902,-4.89589 4.78387,-1.65401 -1.81053,4.36343 -3.0618,10.58835 -2.2814,11.34961 0.45532,0.44417 2.69859,-1.35529 4.98504,-3.99877 2.28646,-2.64347 4.46138,-4.80632 4.83317,-4.80632 0.37178,0 0.98131,1.52671 1.35451,3.3927 0.37319,1.86599 1.16551,3.3927 1.76071,3.3927 1.02417,0 3.67233,-3.48625 6.44644,-8.48661 1.8127,-3.2674 4.76262,-3.40946 7.98263,-0.38442 2.47188,2.32221 2.72369,3.2603 2.07652,7.73594 l -0.73648,5.09325 7.74635,-7.63358 c 4.2605,-4.19847 8.39976,-7.63358 9.19835,-7.63358 0.7986,0 1.1668,0.46143 0.81824,1.02542 -0.34857,0.564 0.29308,0.78306 1.42589,0.48684 1.1328,-0.29624 2.71704,0.25353 3.52053,1.22168 4.42154,5.32761 -7.74854,18.52806 -13.03608,14.13979 -0.87351,-0.72493 -1.58819,-2.32629 -1.58819,-3.55855 0,-2.00634 -0.4059,-1.88411 -3.88385,1.16959 -3.79781,3.3345 -8.21733,5.45624 -9.23838,4.43518 -0.28153,-0.28153 0.0112,-1.88783 0.65067,-3.56957 3.29073,-8.65529 -0.41356,-12.41507 -5.79709,-5.88392 -4.89551,5.93911 -7.18782,6.92042 -9.87911,4.22912 -2.16455,-2.16456 -2.22215,-2.15151 -5.18549,1.17433 -3.45825,3.88129 -6.43185,3.84482 -7.3608,-0.0903 -0.93956,-3.98003 -2.74505,-4.02319 -6.00944,-0.1437 -2.79325,3.3196 -12.39774,7.98211 -16.44266,7.98211 -1.09656,0 -2.60444,-0.61069 -3.35084,-1.35709 z m 77.06108,-10.23773 c 1.78863,-2.39795 2.01444,-3.42064 0.983,-4.45209 -1.70712,-1.70711 -7.02348,2.94718 -7.02348,6.14885 0,3.02284 3.1881,2.12732 6.04048,-1.69676 z m -517.96673,5.65758 c 0.33939,-1.39948 0.9864,-4.05466 1.4378,-5.9004 l 0.82073,-3.35585 -4.91148,4.20403 c -5.743901,4.91658 -8.580149,5.29333 -10.364631,1.3768 -1.319807,-2.89667 -3.640958,-3.70649 -4.879526,-1.70244 -0.382351,0.61865 -1.723166,1.67499 -2.979602,2.34742 -2.013971,1.07783 -2.151389,0.97814 -1.160729,-0.84211 1.896326,-3.48437 8.962482,-9.71165 10.171806,-8.96425 0.627889,0.38806 1.475644,2.22643 1.88392,4.08529 0.408268,1.85886 1.288832,3.37973 1.956817,3.37973 0.667975,0 3.904965,-2.54452 7.193305,-5.65451 3.28835,-3.10997 6.57385,-5.65449 7.30112,-5.65449 1.41797,0 1.03129,5.58946 -0.66501,9.61265 -0.70772,1.67856 0.15011,1.29887 3.32669,-1.47243 4.82468,-4.20912 6.25903,-4.18852 8.3596,0.12002 1.74024,3.56943 3.67384,2.80282 8.14801,-3.23052 2.58018,-3.4793 5.44291,-5.61829 6.33089,-4.73033 0.19394,0.19395 -0.36547,2.36877 -1.24314,4.83294 -3.31759,9.31455 -1.57923,10.97625 4.09544,3.91487 3.94662,-4.91105 5.50885,-5.62912 5.53583,-2.54453 0.009,1.0885 0.49163,2.7291 1.07134,3.6458 1.77647,2.80914 6.55991,-2.51837 5.95594,-6.63339 -0.58928,-4.0151 1.44438,-5.54037 3.1465,-2.35993 1.23728,2.31189 1.32009,2.29434 5.18515,-1.09923 4.48865,-3.94108 5.5797,-4.20219 6.58731,-1.57647 0.65456,1.70577 -3.84871,9.72271 -6.31906,11.24948 -1.51868,0.93858 -1.08878,2.41296 0.92938,3.1874 1.12583,0.43203 3.61355,-0.48838 6.24044,-2.3088 6.33815,-4.39235 6.57145,-2.51397 0.28404,2.28684 -5.52155,4.21601 -8.19406,4.95026 -10.31137,2.83295 -0.89431,-0.89431 -2.05151,-0.70196 -4.18433,0.69552 -3.55268,2.32781 -3.84692,1.07769 -0.56786,-2.41271 3.92168,-4.17443 1.35728,-5.50004 -3.08855,-1.59654 -3.20137,2.81085 -4.3258,3.22541 -6.12975,2.25996 -1.21505,-0.65028 -2.21155,-1.80056 -2.21443,-2.55615 -0.003,-0.75562 -1.55538,0.28009 -3.45002,2.30158 -3.56429,3.80294 -6.48303,4.71788 -7.2153,2.2618 -1.72848,-5.79746 -1.47351,-5.65779 -5.24716,-2.87407 l -3.51287,2.59134 -2.51898,-3.15338 c -3.01478,-3.77402 -5.00404,-3.31288 -9.14846,2.12073 -3.43385,4.502 -6.80654,5.26037 -5.8498,1.31538 z m 57.93442,-15.29647 c -0.99119,-0.9912 -5.1574,3.31776 -5.11824,5.29365 0.0255,1.28674 0.85252,0.87494 2.88524,-1.43667 1.56724,-1.78227 2.57209,-3.5179 2.233,-3.85698 z m 110.5862,16.09075 c -0.36939,-0.96264 -0.39746,-3.79435 -0.0623,-6.29267 l 0.60927,-4.54242 -3.91475,4.03086 c -4.48213,4.61511 -7.35275,5.08636 -9.67539,1.58829 l -1.62181,-2.44257 -2.19156,2.28922 c -4.58693,4.79135 -10.66194,6.0137 -9.05328,1.8216 0.35383,-0.92206 0.26129,-1.49495 -0.20563,-1.27309 -0.46691,0.22184 -3.2453,1.62786 -6.17417,3.12449 -4.49188,2.29528 -5.77496,2.5162 -8.19903,1.41172 -1.58061,-0.72017 -2.87381,-2.08366 -2.87381,-3.02999 0,-1.94024 -1.76504,-2.30839 -2.82726,-0.5897 -1.2076,1.95395 -4.74551,1.2328 -6.43499,-1.31168 l -1.62182,-2.44257 -2.19154,2.28922 c -4.52861,4.73042 -10.66597,6.02419 -9.08955,1.91609 0.74096,-1.93089 -0.64562,-2.06774 -2.46963,-0.24373 -0.73604,0.73604 -1.62047,1.056 -1.96542,0.71105 -0.81266,-0.81264 15.06847,-15.55004 18.40596,-17.08036 4.72889,-2.16835 4.23831,0.45393 -0.97539,5.21376 -2.84853,2.60055 -5.89467,5.70217 -6.76923,6.89249 -1.46505,1.99404 -1.41124,2.06898 0.68436,0.95293 1.25095,-0.66621 3.23822,-2.27625 4.41616,-3.57785 2.83187,-3.12917 5.18384,-3.00568 5.18384,0.27221 0,1.45133 0.30787,2.94663 0.68413,3.32291 0.37628,0.37627 4.31669,-2.08344 8.75646,-5.46602 7.48422,-5.70208 10.94082,-7.38371 10.89833,-5.30198 -0.0304,1.48563 -1.5653,3.14412 -5.97544,6.4563 -2.97285,2.23274 -4.1922,3.95267 -3.95816,5.58318 0.62689,4.36724 3.93555,3.09054 15.6769,-6.04919 6.42987,-5.00515 12.35206,-9.10027 13.16044,-9.10027 2.58621,0 1.58385,2.05969 -2.52901,5.19673 -2.19934,1.67751 -5.07491,4.56129 -6.39017,6.40838 -2.21321,3.10818 -2.23031,3.27217 -0.22942,2.20133 1.18906,-0.63637 3.1257,-2.22198 4.30363,-3.52358 2.87699,-3.17904 5.18385,-3.00372 5.18385,0.39395 0,1.51828 0.42827,3.02519 0.95171,3.34871 1.06354,0.65729 6.41081,-4.73962 10.25487,-10.35009 l 2.51825,-3.67543 -5.16606,0 c -4.41213,0 -5.16607,-0.33009 -5.16607,-2.2618 0,-1.98425 0.75394,-2.26181 6.14375,-2.26181 5.15053,0 6.25981,-0.36565 6.86162,-2.26179 0.70931,-2.23483 2.82725,-3.18792 2.82725,-1.27228 0,0.54425 0.31807,2.57987 0.70681,4.52361 0.54089,2.70446 0.3077,3.53407 -0.99342,3.53407 -1.14807,0 -2.29577,2.3709 -3.53406,7.30055 -2.91075,11.58773 -2.56862,12.00771 4.27566,5.24845 3.36022,-3.31849 6.62896,-5.71257 7.26385,-5.32018 0.63489,0.39238 1.48839,2.2343 1.89668,4.09316 0.40825,1.85886 1.36364,3.37973 2.12305,3.37973 0.75942,0 4.23564,-2.54452 7.72495,-5.65451 5.61424,-5.00388 10.07705,-7.49026 8.30873,-4.62907 -0.34856,0.564 0.2931,0.78306 1.42589,0.48684 1.1328,-0.29624 2.71705,0.25353 3.52054,1.22168 4.37721,5.2742 -7.73812,18.53672 -12.9682,14.19614 -0.83615,-0.69396 -1.67806,-2.29338 -1.87091,-3.5543 -0.34979,-2.28725 -0.35757,-2.28707 -3.35624,0.0821 -3.86869,3.0566 -6.19889,3.0062 -7.85132,-0.16982 -0.72813,-1.39949 -1.50659,-2.75378 -1.72993,-3.00952 -0.22332,-0.25576 -2.91744,1.65264 -5.98693,4.24087 -6.043,5.09553 -7.7079,5.65823 -8.74498,2.95562 z m 38.44833,-6.45186 c 1.78863,-2.39795 2.01445,-3.42064 0.98301,-4.45209 -1.70712,-1.70711 -7.02349,2.94718 -7.02349,6.14885 0,3.02284 3.18809,2.12732 6.04048,-1.69676 z m 11.29493,5.65758 c 0.33939,-1.39948 0.98013,-4.02958 1.42383,-5.84467 l 0.80674,-3.30016 -4.6935,3.7718 c -2.58141,2.07449 -4.91956,3.54574 -5.19587,3.26943 -0.81628,-0.8163 12.38692,-14.57718 13.98642,-14.57718 1.56245,0 1.27088,5.35778 -0.52309,9.61265 -0.70773,1.67856 0.15011,1.29887 3.3267,-1.47243 4.82746,-4.21155 6.25878,-4.18908 8.36504,0.13138 1.41879,2.91028 1.56803,2.95136 4.27617,1.17693 4.36172,-2.85791 4.25702,-1.22112 -0.19628,3.06867 l -4.02879,3.88085 -2.53405,-3.15338 c -3.03186,-3.77288 -5.01902,-3.31298 -9.16352,2.12073 -3.43383,4.502 -6.80653,5.26037 -5.8498,1.31538 z M 92.407239,719.57533 c 0,-1.57373 4.102455,-5.15318 5.906139,-5.15318 1.52135,0 0.955805,3.15461 -0.897869,5.00828 -2.225261,2.22527 -5.00827,2.3058 -5.00827,0.1449 z m 197.907671,0 c 0,-1.57373 4.10245,-5.15318 5.90614,-5.15318 1.52134,0 0.9558,3.15461 -0.89787,5.00828 -2.22526,2.22527 -5.00827,2.3058 -5.00827,0.1449 z"
       id="path2513"
       inkscape:connector-curvature="0" />
  </g>
</svg>
