<?xml version="1.0" encoding="UTF-8" standalone="no"?>
<!-- Created with Inkscape (http://www.inkscape.org/) -->

<svg
   xmlns:dc="http://purl.org/dc/elements/1.1/"
   xmlns:cc="http://creativecommons.org/ns#"
   xmlns:rdf="http://www.w3.org/1999/02/22-rdf-syntax-ns#"
   xmlns:svg="http://www.w3.org/2000/svg"
   xmlns="http://www.w3.org/2000/svg"
   xmlns:sodipodi="http://sodipodi.sourceforge.net/DTD/sodipodi-0.dtd"
   xmlns:inkscape="http://www.inkscape.org/namespaces/inkscape"
   id="svg3904"
   sodipodi:version="0.32"
   inkscape:version="0.48.5 r10040"
   width="744.09448"
   height="1052.3622"
   version="1.0"
   sodipodi:docname="blue_black_.svg"
   inkscape:output_extension="org.inkscape.output.svg.inkscape"
   inkscape:export-filename="/src_install/lvee/2008/logo2008.png"
   inkscape:export-xdpi="303.60001"
   inkscape:export-ydpi="303.60001">
  <metadata
     id="metadata3909">
    <rdf:RDF>
      <cc:Work
         rdf:about="">
        <dc:format>image/svg+xml</dc:format>
        <dc:type
           rdf:resource="http://purl.org/dc/dcmitype/StillImage" />
        <dc:title></dc:title>
      </cc:Work>
    </rdf:RDF>
  </metadata>
  <defs
     id="defs3907">
    <inkscape:perspective
       sodipodi:type="inkscape:persp3d"
       inkscape:vp_x="0 : 526.18109 : 1"
       inkscape:vp_y="0 : 1000 : 0"
       inkscape:vp_z="744.09448 : 526.18109 : 1"
       inkscape:persp3d-origin="372.04724 : 350.78739 : 1"
       id="perspective2954" />
    <inkscape:perspective
       sodipodi:type="inkscape:persp3d"
       inkscape:vp_x="0 : 526.18109 : 1"
       inkscape:vp_y="0 : 1000 : 0"
       inkscape:vp_z="744.09448 : 526.18109 : 1"
       inkscape:persp3d-origin="372.04724 : 350.78739 : 1"
       id="perspective2464" />
    <inkscape:perspective
       id="perspective3853"
       inkscape:persp3d-origin="372.04724 : 350.78739 : 1"
       inkscape:vp_z="744.09448 : 526.18109 : 1"
       inkscape:vp_y="0 : 1000 : 0"
       inkscape:vp_x="0 : 526.18109 : 1"
       sodipodi:type="inkscape:persp3d" />
    <inkscape:perspective
       sodipodi:type="inkscape:persp3d"
       inkscape:vp_x="0 : 526.18109 : 1"
       inkscape:vp_y="0 : 1000 : 0"
       inkscape:vp_z="744.09448 : 526.18109 : 1"
       inkscape:persp3d-origin="372.04724 : 350.78739 : 1"
       id="perspective4938" />
    <inkscape:perspective
       id="perspective4936"
       inkscape:persp3d-origin="372.04724 : 350.78739 : 1"
       inkscape:vp_z="744.09448 : 526.18109 : 1"
       inkscape:vp_y="0 : 1000 : 0"
       inkscape:vp_x="0 : 526.18109 : 1"
       sodipodi:type="inkscape:persp3d" />
    <inkscape:perspective
       id="perspective2433"
       inkscape:persp3d-origin="372.04724 : 350.78739 : 1"
       inkscape:vp_z="744.09448 : 526.18109 : 1"
       inkscape:vp_y="0 : 1000 : 0"
       inkscape:vp_x="0 : 526.18109 : 1"
       sodipodi:type="inkscape:persp3d" />
    <inkscape:perspective
       id="perspective2509"
       inkscape:persp3d-origin="372.04724 : 350.78739 : 1"
       inkscape:vp_z="744.09448 : 526.18109 : 1"
       inkscape:vp_y="0 : 1000 : 0"
       inkscape:vp_x="0 : 526.18109 : 1"
       sodipodi:type="inkscape:persp3d" />
  </defs>
  <sodipodi:namedview
     inkscape:window-height="997"
     inkscape:window-width="1400"
     inkscape:pageshadow="2"
     inkscape:pageopacity="0.0"
     guidetolerance="10.0"
     gridtolerance="10.0"
     objecttolerance="10.0"
     borderopacity="1.0"
     bordercolor="#666666"
     pagecolor="#ffffff"
     id="base"
     inkscape:zoom="0.83972969"
     inkscape:cx="250.37769"
     inkscape:cy="562.00492"
     inkscape:window-x="0"
     inkscape:window-y="31"
     inkscape:current-layer="svg3904"
     width="744.09449px"
     height="1052.3622px"
     showgrid="false"
     inkscape:window-maximized="1" />
  <g
     id="g4005">
    <path
       sodipodi:nodetypes="cssscccscccsssccccsccsssccssccssccccsssccssccssccssccsssccssccsssccsssssccsssccsssc"
       style="fill:#0099ff;fill-opacity:1"
       d="m 195.24614,670.45347 c 0.75219,-1.56486 3.30021,-2.7678 12.80916,-7.43078 6.76136,-3.31562 7.61043,-2.05521 6.20923,-1.07177 -1.77863,1.24834 -1.58863,0.93958 -12.75777,6.60609 -4.04955,2.05448 -5.07117,2.48333 -6.26062,1.89646 z m 25.68771,1.21845 c 0.59542,-0.48149 3.71466,-2.47777 4.37474,-2.93464 2.17645,-1.04947 2.50578,-0.59223 1.89262,0.29616 -0.84872,1.22974 -4.18445,3.46121 -5.82073,4.52034 -2.80475,1.74315 -3.56551,0.44649 -0.44663,-1.88186 z m 33.13686,-1.25657 c -18.40778,-6.39204 0.9755,0.5708 -18.1446,-6.525 -4.61831,-1.71394 -3.40562,-3.99962 4.09851,-1.14809 13.64608,5.18545 21.7333,7.54634 21.7333,8.70827 0,0.60326 -1.2978,1.32228 -7.68721,-1.03518 z m -79.01015,-8.82923 c 1.25321,-0.92841 15.33667,-8.45574 18.03417,-8.97738 2.41026,-0.35685 1.43605,0.43267 1.0896,1.00382 -0.9434,0.99359 -10.33739,5.69131 -12.57311,6.72314 -5.28985,2.44137 -8.71405,3.46493 -6.55066,1.25042 z m 42.18361,-6.76692 c -20.17464,-9.35487 -28.93112,-14.51838 -24.6208,-14.51838 1.12075,0 31.18927,14.74057 32.51396,15.9394 0.54856,0.49644 0.99738,1.11391 0.99738,1.37215 0,1.00018 -2.20132,0.30859 -8.89054,-2.79317 z m 20.72708,1.14974 c -0.87156,-0.46933 -3.05649,-6.92007 -3.0789,-8.72216 -0.0179,-1.50891 1.21409,-1.57117 2.86493,4.04304 1.07828,3.66701 1.34564,5.38876 0.21397,4.67912 z m -17.80824,-7.69456 c -1.59522,-2.8854 -2.78729,-8.38371 -3.08197,-10.28747 -0.34907,-2.25524 1.02039,-1.55182 1.34428,-0.98908 0.71165,1.23642 3.38574,9.57008 3.15835,11.53794 -0.16212,0.69545 -0.28563,0.4645 -0.60215,0.38795 -0.27284,-0.0878 -0.58428,-0.48436 -0.81851,-0.64934 z m -17.76066,-12.64942 c -1.59046,-4.04057 -3.72305,-10.05028 -3.72305,-11.59506 0,-1.66603 0.52433,-1.86707 1.63067,-0.17856 1.05288,1.60688 3.70782,9.40605 4.26656,12.32841 0.47276,2.4726 -0.83785,2.27371 -2.17418,-0.55479 z m -87.69127,-23.32264 c -1.08941,-0.67682 0.55132,-1.15979 4.58071,-2.51235 22.80532,-7.65511 22.70417,-4.02684 4.57198,0.69808 -3.40678,0.88774 -8.85106,2.69482 -9.15269,1.81427 z M 98.468601,601.27633 c 0.26244,-0.78734 7.345489,-2.61731 11.113939,-3.71107 18.9944,-5.51293 24.2123,-4.08613 3.0597,1.45379 -5.31769,1.39272 -14.980126,4.24 -14.173639,2.25728 z m 43.150829,-4.08519 c -4.3973,-3.67384 -16.6146,-18.17025 -16.6146,-19.71402 0,-1.85373 4.51378,2.43447 13.19603,12.53653 7.24866,8.43402 8.78607,11.66192 3.41857,7.17749 z m 6.7887,-9.84987 c 1.58812,-7.28158 5.05509,-18.46302 5.6673,-19.89359 2.12784,-4.97223 1.81954,-0.1074 1.48839,1.17472 -3.73253,14.45098 -4.91633,19.0203 -5.99469,20.63407 -1.13336,1.69609 -1.81346,1.28153 -1.161,-1.9152 z m -65.07771,-0.33908 c 0,-1.25 22.50449,-6.72538 27.50511,-6.69204 5.46682,0.0365 -1.62785,2.29689 -18.242283,5.81221 -7.017313,1.48475 -9.262827,1.69803 -9.262827,0.87983 z m 51.05475,-14.36537 c 0.44043,-2.75431 4.95202,-20.81973 7.4221,-29.29305 1.83328,-6.28884 3.43282,-8.43937 3.0587,-4.34599 -0.31136,3.4067 -7.02111,30.74907 -8.93295,35.33888 -1.05123,2.52371 -1.96849,0.93065 -1.54785,-1.69984 z m -16.57211,-3.02793 c -8.35459,-11.46844 3.23987,5.44241 -9.72697,-14.18787 -5.22496,-7.90998 -6.04147,-11.23712 -3.1711,-9.02661 1.02995,0.79317 1.06088,0.63525 5.39134,7.77922 1.90304,3.13948 4.90766,7.7576 6.37657,10.2025 2.58248,4.29835 3.47606,5.91162 2.52997,5.91162 -0.24843,0 -0.39199,0.70196 -1.39981,-0.67886 z m -45.04082,-4.33406 c -5.42212,-1.06712 -1.56196,-1.76739 0.42658,-1.85374 9.879167,-0.42568 30.33728,-0.0579 32.21903,0.55116 3.9461,1.2772 0.90129,1.6155 -12.810669,1.54011 -8.327934,-0.0458 -14.362541,0.19857 -19.834941,-0.23753 z m 48.34297,-13.60388 c 0,-1.52347 5.4111,-24.24442 7.31087,-30.69796 1.27003,-4.31434 2.13533,-5.18968 2.13533,-2.16013 0,4.01894 -5.82202,29.33491 -7.4865,32.55367 -1.063,2.05562 -1.9597,2.19492 -1.9597,0.30442 z"
       id="path3857"
       inkscape:connector-curvature="0" />
    <path
       id="path2468"
       d="m 139.59008,660.37291 c 0,-1.02735 3.32599,-8.62264 4.12634,-9.423 0.66659,-0.66658 1.11099,-0.70712 2.21882,-0.20235 1.49706,0.68211 4.98865,6.23544 4.33281,6.89128 -0.21975,0.21977 -2.09279,1.03689 -4.1623,1.81586 -3.82534,1.43985 -6.51567,1.81898 -6.51567,0.91821 z m 6.90481,-3.01506 c 0.94528,-0.69121 0.95076,-0.8397 0.0919,-2.50048 -0.50218,-0.97108 -1.25723,-1.7656 -1.6779,-1.7656 -0.73287,0 -1.9849,2.68102 -1.9849,4.25036 0,0.96226 2.26276,0.97222 3.57086,0.0157 z m 10.10224,0.96723 c -0.62479,-1.62817 -0.34374,-6.12339 0.45083,-7.21084 0.66657,-0.91227 1.62021,-1.10868 6.18372,-1.27359 5.46607,-0.19754 6.65346,0.18318 5.98711,1.9197 -0.64146,1.6716 -9.54978,7.44366 -11.48821,7.44366 -0.43789,0 -0.94795,-0.39551 -1.13345,-0.87893 z m 6.44313,-3.63853 c 1.49065,-0.95655 2.61295,-2.01926 2.494,-2.36156 -0.32546,-0.93665 -5.26678,-0.7007 -6.26673,0.29923 -0.9282,0.92821 -0.56785,3.8015 0.47677,3.8015 0.32214,0 1.80531,-0.78263 3.29596,-1.73917 z m -31.67499,1.36532 c -2.14862,-1.05891 -3.42994,-3.2516 -3.60023,-6.161 -0.11957,-2.04275 -0.0724,-2.09422 2.79418,-3.04526 1.60369,-0.53206 4.29169,-1.12908 5.97333,-1.32673 2.99643,-0.35217 3.05753,-0.33121 3.05753,1.04873 0,1.77467 -3.0447,9.33196 -4.00519,9.9413 -1.0614,0.67338 -2.1694,0.55336 -4.21962,-0.45704 z m 4.8363,-4.82707 c 1.7642,-4.13396 1.26872,-4.68481 -3.0028,-3.33833 -1.75074,0.55188 -3.30024,1.30853 -3.44335,1.68144 -0.66927,1.74412 2.79679,5.55554 4.54689,4.99994 0.30066,-0.0955 1.15532,-1.59982 1.89926,-3.34305 z m 37.59102,-1.60591 c -0.1174,-0.38202 -0.35341,-2.05456 -0.52447,-3.71678 -0.17107,-1.66221 -0.84951,-4.83609 -1.50765,-7.05307 -1.67439,-5.6402 -1.44588,-5.99311 3.63186,-5.60909 5.2589,0.39774 6.42782,1.01213 6.42782,3.37856 0,2.39493 -1.4791,7.36222 -2.91972,9.80534 -1.89538,3.21437 -4.58489,4.8967 -5.10784,3.19504 z m 4.92646,-8.19418 c 1.10518,-3.9388 0.65718,-5.24146 -1.98428,-5.76976 -2.75423,-0.55084 -3.0315,0.19022 -1.89536,5.06568 0.55292,2.37274 1.12182,4.51376 1.2642,4.7578 0.54938,0.9416 1.72515,-0.88074 2.61544,-4.05372 z m -32.88537,1.23802 c -4.86767,-6.00506 -5.68794,-7.29891 -5.68794,-8.97192 0,-2.25642 5.52215,-2.19297 10.04042,0.11536 2.84754,1.45477 3.74549,3.45055 3.80877,8.46551 0.0463,3.66489 -0.96236,5.81915 -2.72449,5.81915 -0.64091,0 -2.71685,-2.07264 -5.43676,-5.4281 z m 6.00316,0.94123 c 0.84828,-1.58504 0.14341,-5.26043 -1.33951,-6.98441 -1.32671,-1.5424 -6.25761,-2.84683 -7.19979,-1.90466 -0.32589,0.3259 0.40941,1.63289 1.95567,3.47623 1.36286,1.62469 3.03866,3.76662 3.724,4.75986 1.45313,2.10599 2.01352,2.23395 2.85963,0.65298 z m 11.27765,2.12531 c -1.37899,-1.5417 -3.22739,-4.60168 -5.00309,-8.28256 -1.87935,-3.89572 -1.27281,-4.5351 4.04739,-4.26644 5.70134,0.2879 6.53245,1.13218 6.19966,6.29784 -0.4178,6.48552 -2.65204,9.1489 -5.24396,6.25116 z m 3.03314,-5.77546 c 0.12298,-2.55538 -0.0599,-3.6264 -0.73426,-4.30078 -1.06812,-1.06812 -4.7059,-1.22514 -4.71325,-0.20345 -0.003,0.38202 0.80991,2.37143 1.80589,4.42093 2.33036,4.79533 3.41366,4.82011 3.64162,0.0833 z m -40.72133,2.0337 c -0.43677,-0.70672 3.20624,-8.4314 4.47155,-9.48152 1.38898,-1.15275 7.46624,5.49844 6.45662,7.06636 -1.23344,1.9155 -10.03481,3.86064 -10.92817,2.41516 z m 8.43947,-3.15161 c 0.391,-1.01896 -1.59772,-2.96957 -3.02762,-2.96957 -1.03798,0 -2.31954,1.59524 -2.34357,2.9172 -0.0249,1.37221 4.8465,1.4197 5.37119,0.0523 z m 102.13263,-0.522 c -6.18735,-1.51737 -6.02659,-3.41656 0.48373,-5.7149 4.91562,-1.73537 6.90225,-1.46283 8.24304,1.13081 0.57743,1.117 1.10022,2.7423 1.16172,3.61178 0.11063,1.56376 0.0758,1.58199 -3.22211,1.6852 -1.83367,0.0574 -4.83355,-0.2634 -6.66638,-0.71289 z m 6.94421,-1.65061 c 0,-2.74792 -1.99009,-3.62397 -5.47368,-2.40958 -2.35122,0.81964 -2.20849,1.93608 0.33384,2.6113 3.27995,0.87115 5.13984,0.79815 5.13984,-0.20172 z m -21.16315,-0.19637 c -2.65782,-1.66954 -6.15513,-5.36767 -7.49577,-7.92617 -0.7161,-1.36661 -0.67064,-1.62186 0.54424,-3.05613 0.72909,-0.86073 2.70216,-2.30407 4.3846,-3.20743 3.82492,-2.0537 4.54581,-1.61338 5.07935,3.10246 0.2107,1.86237 0.86441,4.92124 1.45269,6.79748 0.58827,1.87625 1.07282,3.97397 1.07676,4.6616 0.0101,1.75975 -1.86918,1.62116 -5.04187,-0.37181 z m 1.27325,-2.82323 c 0.32844,-0.80173 -1.42307,-8.36308 -2.05958,-8.89134 -1.1329,-0.94023 -4.4374,2.16144 -3.94744,3.70518 0.81789,2.57696 5.44086,6.56818 6.00702,5.18616 z m 28.22478,-1.12916 c 0,-3.3175 1.25268,-6.65007 2.4997,-6.65007 1.62456,0 4.01361,1.59865 6.34189,4.24371 1.26551,1.4377 2.21321,2.88385 2.106,3.21368 -0.23401,0.71994 -5.29459,1.86056 -8.58604,1.93524 l -2.36155,0.0536 0,-2.79614 z m 6.58166,-0.15608 c 0.45792,-0.55174 0.19933,-1.17428 -1.0608,-2.55396 -1.36568,-1.49521 -1.81352,-1.70219 -2.48227,-1.14719 -0.82769,0.68693 -1.12345,3.38235 -0.44551,4.06029 0.6447,0.64471 3.35825,0.40037 3.98858,-0.35914 z m -78.81568,-2.32229 c -0.3065,-0.80615 -0.55727,-2.07581 -0.55727,-2.82145 0,-0.74564 -0.62512,-2.6515 -1.38915,-4.23527 -1.7058,-3.53595 -1.72122,-4.10264 -0.13892,-5.10469 2.18723,-1.38513 4.61443,-1.6247 5.67864,-0.5605 0.78974,0.78974 0.9192,1.77588 0.75147,5.72456 -0.21482,5.05735 -1.20613,7.96598 -2.82094,8.27696 -0.62855,0.12106 -1.16142,-0.32641 -1.52383,-1.27961 z m 2.66032,-8.89481 c -0.12054,-1.24436 -0.47843,-1.71198 -1.4117,-1.84453 -1.40392,-0.19939 -1.44516,-0.0512 -0.7454,2.67802 0.27424,1.06965 0.68396,2.69495 0.91046,3.61179 l 0.41182,1.66698 0.49814,-2.22264 c 0.27398,-1.22245 0.42549,-2.97278 0.33668,-3.88962 z m -30.44488,7.22106 c -7.1019,-4.70887 -7.77922,-5.26285 -7.77922,-6.36274 0,-1.45062 1.60356,-2.24232 5.75303,-2.84038 6.08453,-0.87696 8.13845,0.67248 8.13845,6.13948 0,3.1718 -0.78596,5.58938 -1.79214,5.51252 -0.38958,-0.0298 -2.33364,-1.13176 -4.32012,-2.44888 z m 4.43677,-3.19252 c -0.005,-0.99324 -0.22427,-2.14646 -0.48801,-2.56271 -1.00729,-1.58988 -8.42731,-1.96565 -8.37132,-0.42396 0.0282,0.77765 6.56942,4.72423 7.89544,4.76365 0.73422,0.0219 0.97032,-0.41342 0.96389,-1.77698 z m 11.92501,3.75688 c -2.69844,-2.86119 -6.91557,-8.8784 -6.91557,-9.86749 0,-2.07242 9.06701,-2.70268 11.00475,-0.76495 1.19359,1.1936 1.53204,7.17616 0.5693,10.063 -0.98448,2.95202 -2.26392,3.10841 -4.65848,0.56944 z m 3.08628,-4.22427 c 0,-1.21423 -0.36876,-3.09029 -0.81949,-4.16902 -0.75669,-1.81101 -0.97993,-1.94806 -2.91259,-1.78805 -1.33516,0.11054 -2.151,0.47964 -2.25303,1.0193 -0.20161,1.0665 4.80566,7.87441 5.48355,7.45545 0.27586,-0.17049 0.50156,-1.30345 0.50156,-2.51768 z m 59.08848,3.13745 c -3.30522,-3.41246 -4.07881,-5.38765 -2.91346,-7.43894 1.27973,-2.25263 4.64826,-4.63118 6.69597,-4.72808 l 1.86325,-0.0882 0.41457,5.27876 c 0.22801,2.90332 0.27519,6.34146 0.10486,7.64031 -0.27561,2.10172 -0.47061,2.36155 -1.77225,2.36155 -1.04178,0 -2.30567,-0.87045 -4.39294,-3.02544 z m 3.8212,-2.8581 c -0.26986,-4.67372 -0.74596,-6.89662 -1.47709,-6.89662 -0.89393,0 -3.64408,2.52365 -3.64408,3.34396 0,1.64777 3.68787,6.81909 4.63489,6.49928 0.40144,-0.13558 0.58454,-1.24501 0.48628,-2.94662 z m -100.41664,2.25574 c -1.22246,-0.44041 -2.28515,-0.8045 -2.36156,-0.8091 -0.0764,-0.005 -0.13948,-0.57098 -0.14018,-1.2586 -0.001,-0.83292 1.38556,-2.57208 4.15352,-5.21032 4.53453,-4.32201 6.11114,-5.12916 6.95154,-3.55884 0.82424,1.54008 -1.35385,8.88442 -3.095,10.43614 -1.61964,1.44343 -2.44696,1.50361 -5.50832,0.40072 z m 4.98004,-3.20806 c 0.46101,-0.70361 0.99812,-2.07886 1.19358,-3.05614 0.48627,-2.43138 -0.53642,-2.29457 -3.67316,0.49137 -2.4015,2.13293 -2.45778,2.25295 -1.42186,3.03243 1.55164,1.16755 2.93896,1.00125 3.90144,-0.46766 z m 123.01131,0.85613 c -3.62507,-3.03575 -4.86694,-4.84605 -3.95206,-5.76094 0.78218,-0.78218 7.71573,-2.70647 9.75187,-2.70647 1.28048,0 1.72453,0.37356 2.41857,2.03464 0.52469,1.25576 0.71809,2.73846 0.50519,3.87326 -0.44415,2.36755 -2.8357,5.20711 -4.37862,5.19889 -0.66046,-0.003 -2.6157,-1.19124 -4.34495,-2.63938 z m 6.00635,-1.46303 c 1.22957,-2.57844 0.65931,-4.78174 -1.23762,-4.78174 -2.85496,0 -6.4093,1.21468 -6.23301,2.13009 0.20186,1.04816 4.64054,4.53783 5.77189,4.53783 0.43961,0 1.20404,-0.84879 1.69874,-1.88618 z m -22.98192,2.30292 c -1.78936,-1.95692 -2.97084,-4.67894 -3.32356,-7.6572 -0.28404,-2.39824 -0.13633,-2.98145 1.19829,-4.73122 3.44723,-4.51956 8.41932,-6.61508 9.75851,-4.11277 0.47165,0.88129 0.36363,1.92467 -0.47459,4.58418 -0.59688,1.89376 -1.52605,5.16909 -2.06485,7.27851 -0.89272,3.49514 -2.31205,5.88873 -3.49183,5.88873 -0.25233,0 -0.97323,-0.5626 -1.60197,-1.25023 z m 3.5145,-7.49992 c 0.69931,-2.67493 1.43761,-5.42611 1.64066,-6.11374 0.60594,-2.05202 -1.68862,-1.56503 -4.35797,0.92491 -2.03688,1.89999 -2.32437,2.46143 -2.27254,4.43812 0.0405,1.54329 0.54168,2.89533 1.57602,4.25143 0.83417,1.09365 1.65745,1.84768 1.82951,1.67562 0.17207,-0.17206 0.88501,-2.50142 1.58432,-5.17634 z m -37.21545,4.29905 c -2.00768,-1.76277 -5.35703,-7.70092 -5.35703,-9.49763 0,-2.18776 5.65242,-3.80174 7.09705,-2.02648 0.31087,0.38202 0.7086,2.69495 0.88384,5.13985 0.17525,2.44491 0.38909,5.17101 0.47523,6.05801 0.21822,2.24734 -0.7902,2.35349 -3.09909,0.32625 z m -0.1191,-6.63249 c -0.34707,-3.06772 -0.50848,-3.40384 -1.56226,-3.25345 -0.93081,0.13285 -1.14023,0.4964 -1.00703,1.7482 0.15488,1.45564 2.36427,5.51852 2.77668,5.10609 0.0988,-0.0988 0.006,-1.71919 -0.20739,-3.60084 z m 8.41665,0.31842 c -4.45773,-4.45774 -4.13256,-7.14376 1.30678,-10.79462 2.38159,-1.59851 4.03542,-2.33429 4.99583,-2.22264 1.34465,0.15633 1.42981,0.34306 1.34321,2.94521 -0.12681,3.8101 -2.95346,12.17133 -4.19198,12.39994 -0.54508,0.10061 -2.01828,-0.89233 -3.45384,-2.32789 z m 3.90574,-5.09882 c 1.52903,-4.61302 1.58961,-5.25106 0.49859,-5.25106 -1.2807,0 -5.27876,4.28656 -5.27876,5.65969 0,1.32745 2.11541,3.91487 2.96827,3.63059 0.2925,-0.0975 1.10787,-1.91516 1.8119,-4.03922 z m -69.51441,4.62913 c -1.83367,-0.95436 -4.83423,-2.25541 -6.66791,-2.89123 -4.23635,-1.46894 -4.45912,-2.73455 -0.83348,-4.73543 2.02693,-1.1186 3.48196,-1.42293 7.68328,-1.60706 3.50396,-0.15355 5.39388,-0.0159 5.83442,0.425 0.68264,0.6832 0.75588,7.40676 0.1031,9.46353 -0.50176,1.58086 -2.16601,1.40278 -6.11941,-0.65481 z m 4.06056,-4.19106 c 0.15049,-2.07633 0.006,-2.42117 -1.21119,-2.88382 -1.92964,-0.73365 -8.12813,0.0955 -8.12813,1.08723 0,0.70918 7.26275,4.43725 8.33489,4.27841 0.55776,-0.0826 0.89004,-0.90363 1.00443,-2.48182 z m 12.1962,1.72077 c -1.38109,-1.11995 -3.60127,-2.439 -4.93373,-2.9312 -3.1466,-1.16235 -3.43329,-2.48694 -0.7313,-3.37868 2.36842,-0.78164 7.79167,-0.33238 10.71074,0.88728 1.78302,0.745 1.8816,0.92148 1.57394,2.81738 -0.33413,2.05902 -2.25288,4.64152 -3.44858,4.64152 -0.36299,0 -1.78998,-0.91633 -3.17107,-2.0363 z m 4.48196,-2.59231 c 0.22942,-1.18292 -2.21603,-2.15061 -4.87107,-1.92752 l -1.97618,0.16605 2.7783,1.50067 c 3.01812,1.63021 3.79373,1.67991 4.06895,0.2608 z m 83.26208,2.03554 c -0.74728,-0.74728 -0.32487,-3.31593 1.02058,-6.20607 l 1.38017,-2.96472 2.08727,1.25856 c 4.44358,2.67934 6.84467,4.63812 6.68727,5.4554 -0.3065,1.59152 -9.92584,3.70628 -11.17529,2.45683 z m 5.26059,-1.94015 c 1.1815,-0.35399 2.14819,-0.97268 2.14819,-1.37488 0,-0.6187 -2.65979,-2.42678 -3.56992,-2.42678 -0.56181,0 -2.02851,3.37237 -1.69875,3.90593 0.41953,0.67883 0.51768,0.67555 3.12048,-0.10427 z m -27.50108,0.60606 c -3.18998,-2.50924 -4.6702,-7.79367 -2.7273,-9.73658 1.48012,-1.48012 7.72589,-4.22276 9.1549,-4.02009 2.30365,0.32672 1.9585,3.32549 -1.07288,9.32165 -1.46019,2.88832 -2.92516,5.33301 -3.2555,5.43266 -0.33032,0.0996 -1.27497,-0.34928 -2.09922,-0.99764 z m 3.22608,-6.48789 c 2.96465,-5.58313 2.71238,-6.17833 -1.48928,-3.51372 -3.93924,2.49819 -4.37028,4.06597 -1.95642,7.11583 0.79515,1.00465 1.25447,0.52448 3.4457,-3.60211 z m -26.64222,1.00103 c -0.61123,-0.25647 -1.69535,-1.09518 -2.40916,-1.8638 -1.55158,-1.67071 -1.20708,-2.63019 1.93486,-5.38884 5.81532,-5.10592 13.28831,-5.19766 8.37606,-0.10283 -1.08418,1.12449 -2.69797,3.29469 -3.58618,4.82269 -1.67379,2.87943 -2.43072,3.32366 -4.31558,2.53278 z m 5.25965,-8.26086 c -0.57639,-0.21742 -4.47455,2.22483 -5.47475,3.43 -0.61153,0.73683 -0.62097,1.06992 -0.0499,1.75805 0.61054,0.73565 1.05667,0.45751 3.34211,-2.08373 1.45062,-1.61298 2.43275,-3.00994 2.18251,-3.10432 z m 29.82131,1.49684 c -3.26171,-3.60431 -4.34651,-5.8525 -3.17371,-6.57733 1.98691,-1.22797 12.96093,3.15943 13.2673,5.30427 0.19806,1.3866 -2.88593,3.96466 -5.32668,4.4528 -1.4209,0.28419 -1.95411,-0.0715 -4.76691,-3.17974 z m 6.0061,-0.45672 c 1.27394,-1.40768 0.85116,-1.96863 -2.29058,-3.03913 -4.57572,-1.5591 -5.14342,-1.03791 -2.34327,2.15129 1.94527,2.21555 3.21256,2.45835 4.63385,0.88784 z m -26.25171,1.21522 c -1.54198,-2.18862 -3.44435,-6.06707 -3.44435,-7.02218 0,-2.98734 12.04199,-6.66753 15.59498,-4.76603 1.60909,0.86117 1.31174,1.92203 -1.06674,3.80583 -1.17783,0.93285 -3.2271,3.14178 -4.55394,4.9087 -3.88407,5.17235 -4.76063,5.58496 -6.52995,3.07368 z m 5.39121,-5.63204 c 1.55831,-1.79877 2.83328,-3.58182 2.83328,-3.96232 0,-1.72429 -7.90321,1.12292 -8.24518,2.9704 -0.25835,1.3958 0.99764,4.26241 1.86753,4.26241 0.39111,0 1.98607,-1.47171 3.54437,-3.27049 z m -53.25447,-9.6202 c -3.29877,-1.63283 -7.41335,-5.61186 -7.16264,-6.92667 0.25508,-1.33768 2.19896,-1.57684 4.23955,-0.5216 0.89716,0.46393 3.04034,0.94929 4.76264,1.07859 4.76808,0.35792 5.67101,1.63998 3.98944,5.66456 -0.9704,2.32249 -2.249,2.47716 -5.82899,0.70512 z m 3.72835,-2.13832 c 0.11585,-0.60162 -0.88824,-1.18875 -3.46649,-2.02701 -1.99628,-0.64904 -3.62959,-0.97623 -3.62959,-0.72711 0,0.74196 5.17326,3.93995 6.08841,3.7637 0.46451,-0.0895 0.91795,-0.54376 1.00767,-1.00958 z m 8.52559,0.25822 c -2.52967,-3.21596 -2.00529,-5.13664 1.70117,-6.23102 1.33532,-0.39427 3.52824,-1.58764 4.87318,-2.65193 1.34494,-1.06429 2.71462,-1.84657 3.04373,-1.73839 1.94766,0.64018 -0.008,5.51104 -3.97555,9.90291 -2.30092,2.54683 -4.03102,2.76712 -5.64253,0.71843 z m 4.14001,-1.77243 c 1.25952,-1.05413 3.23142,-3.9903 2.90144,-4.32028 -0.11423,-0.11423 -1.32193,0.53145 -2.68378,1.43483 -1.36186,0.90338 -2.70862,1.72116 -2.99281,1.81728 -0.74289,0.25126 0.0669,2.05532 0.91602,2.04057 0.39161,-0.007 1.22821,-0.44438 1.85913,-0.9724 z m -31.17348,-7.41893 c -1.6557,-1.56589 -3.6411,-3.92335 -4.412,-5.23879 -1.3955,-2.38124 -1.85417,-5.46033 -0.90112,-6.04934 0.27528,-0.17013 2.21314,0.41266 4.30636,1.2951 2.09322,0.88244 4.681,1.77489 5.75065,1.98323 4.34651,0.84661 5.55659,1.44941 5.55659,2.768 0,1.90946 -4.99032,8.0889 -6.53234,8.0889 -0.41676,0 -2.11242,-1.2812 -3.76814,-2.8471 z m 5.82986,-1.96998 c 0.64164,-0.81572 1.08202,-1.7534 0.97861,-2.08372 -0.21687,-0.69282 -6.71915,-3.00004 -8.62499,-3.06044 -1.27944,-0.0406 -1.27992,-0.0377 -0.27783,1.68069 1.33683,2.29234 4.39853,4.94659 5.70593,4.94659 0.57841,0 1.57663,-0.6674 2.21828,-1.48312 z m 12.8055,2.82606 c -5.25472,-2.98829 -6.94682,-5.8428 -4.10416,-6.9236 1.81852,-0.69139 12.47318,-2.09515 13.41144,-1.76696 1.00338,0.35097 0.83248,2.82269 -0.37976,5.49254 -2.2032,4.85237 -4.54396,5.69088 -8.92752,3.19802 z m 5.25386,-1.13244 c 1.25895,-0.4831 2.76356,-3.52851 2.08069,-4.21139 -0.74368,-0.74367 -9.12517,0.19262 -9.40911,1.05109 -0.22068,0.66718 2.27227,2.2024 4.84926,2.98629 0.76601,0.23301 1.4348,0.44514 1.48621,0.47141 0.0514,0.0263 0.49823,-0.10756 0.99295,-0.2974 z m 12.80505,-3.36746 c -0.91684,-0.4894 -2.61791,-1.6361 -3.78017,-2.54824 -2.85676,-2.24199 -2.58336,-3.4756 1.2797,-5.77418 1.68087,-1.00012 4.37138,-2.97004 5.9789,-4.37756 3.91338,-3.42651 4.8594,-3.20293 4.8469,1.14544 -0.0137,4.74243 -3.76988,12.5425 -6.00348,12.46662 -0.36018,-0.0123 -1.40502,-0.42267 -2.32185,-0.91208 z m 4.05473,-4.20552 c 1.33992,-2.2215 2.56501,-5.92889 2.10964,-6.38426 -0.50413,-0.50413 -8.10918,4.85772 -8.10918,5.71728 0,1.00622 2.1886,2.47288 3.6901,2.47288 0.78276,0 1.61068,-0.64742 2.30944,-1.8059 z m -35.00724,-3.91928 c -6.08804,-4.96285 -5.68986,-6.88065 1.53134,-7.37535 5.95597,-0.40803 9.36204,0.23985 9.59009,1.82414 0.21099,1.4658 -1.19577,4.35949 -3.11832,6.41437 -2.16463,2.31359 -4.40214,2.07227 -8.00311,-0.86316 z m 7.31536,-1.04752 c 2.23698,-2.4011 1.58679,-3.03927 -3.44814,-3.38437 -2.51962,-0.17271 -4.69868,-0.19643 -4.84236,-0.0527 -0.88676,0.88676 4.10792,4.6239 6.20678,4.64408 0.52292,0.005 1.4606,-0.5381 2.08372,-1.20696 z m 11.82064,-0.51372 c -2.60708,-1.29047 -4.6786,-3.5281 -4.21859,-4.55681 0.43131,-0.96452 10.90801,-5.96913 12.77433,-6.10217 2.13786,-0.1524 2.34791,1.47567 0.74378,5.76504 -2.24558,6.00464 -4.57698,7.23156 -9.29952,4.89394 z m 5.50456,-2.52507 c 1.68792,-1.92199 2.83972,-4.71837 2.20492,-5.35317 -0.41598,-0.41598 -0.88028,-0.33394 -1.57535,0.27833 -0.54204,0.47748 -2.29827,1.52598 -3.90273,2.33001 -1.60448,0.80402 -2.91721,1.80147 -2.91721,2.21657 0,0.4151 0.80093,1.14263 1.77987,1.61675 1.88988,0.91529 2.86128,0.67556 4.4105,-1.08849 z m -34.7482,-0.65123 c -0.15664,-0.25345 -0.56438,-2.19132 -0.90608,-4.30635 -0.6979,-4.31997 -0.28432,-9.44658 0.79556,-9.86095 0.97787,-0.37526 4.82181,1.43128 6.09772,2.86575 1.36462,1.53417 0.95037,3.62605 -1.63272,8.24507 -1.33484,2.38691 -2.30488,3.51732 -3.01833,3.51732 -0.57823,0 -1.17949,-0.20738 -1.33615,-0.46084 z m 3.58716,-5.87665 c 1.24426,-2.81285 0.97454,-4.0852 -0.96944,-4.57311 -1.99119,-0.49975 -2.3862,0.2499 -2.01692,3.82774 0.40714,3.94493 1.45532,4.20654 2.98636,0.74537 z m 15.8023,-0.96279 c -3.21244,-0.74197 -7.5014,-4.02587 -7.5014,-5.74356 0,-1.78706 1.00004,-2.24744 6.6679,-3.06974 8.73368,-1.26707 11.61272,-1.34898 11.99937,-0.34139 0.6051,1.57685 -0.27413,3.55998 -2.69688,6.08299 -3.60432,3.75346 -4.34857,4.0234 -8.46899,3.0717 z m 5.10954,-2.42334 c 1.44218,-1.01014 3.76663,-4.64528 3.28094,-5.13096 -0.19195,-0.19196 -1.90828,-0.0589 -3.81408,0.2956 -1.9058,0.35453 -4.65281,0.80317 -6.10446,0.99697 -2.81206,0.37543 -3.29115,1.13109 -1.65556,2.61129 2.26812,2.05262 6.26932,2.64466 8.29316,1.2271 z m 15.26096,-0.54941 c -1.8826,-2.01251 -3.42126,-4.08755 -3.41925,-4.61118 0.008,-2.18883 4.28747,-6.62211 5.82299,-6.03287 1.07115,0.41103 3.05023,7.13784 3.21136,10.91522 0.11629,2.72638 0.005,3.07402 -1.03092,3.22203 -0.82703,0.11815 -2.14647,-0.88728 -4.58418,-3.4932 z m 3.62272,-2.12901 c -0.18093,-1.3201 -0.59431,-3.09806 -0.9186,-3.95102 -0.55377,-1.45652 -0.66509,-1.50098 -1.83027,-0.73118 -1.94213,1.28312 -1.87045,3.05453 0.21049,5.20152 1.00264,1.03446 2.05798,1.88086 2.34518,1.88086 0.29599,0 0.37968,-1.0397 0.1932,-2.40018 z m -38.35374,-6.85722 c -1.09089,-0.3092 -1.08445,-0.51198 0.22641,-7.13454 0.75091,-3.79362 1.28471,-4.59158 2.43368,-3.63802 1.70735,1.41698 5.86601,7.36969 5.86601,8.39662 0,0.57019 -0.45684,1.28121 -1.0152,1.58003 -1.25691,0.67267 -6.12553,1.1886 -7.5109,0.79591 z m 6.05354,-3.01226 c 0.4246,-0.687 -2.38562,-3.84446 -3.42167,-3.84446 -0.77572,0 -1.59767,3.0059 -1.05989,3.87606 0.46768,0.75672 4.00979,0.73176 4.48156,-0.0315 z m 15.59494,-0.8209 c -0.67466,-1.7581 2.32266,-10.80279 3.57993,-10.80279 0.86554,0 6.07969,8.00566 6.07969,9.33459 0,0.76125 -5.08292,2.33426 -7.54278,2.33426 -1.10346,0 -1.91134,-0.33052 -2.11684,-0.86606 z m 5.84456,-2.25753 c 0.90634,-0.82023 0.92142,-1.04427 0.1684,-2.50047 -0.45493,-0.87974 -1.18938,-1.59952 -1.63209,-1.59952 -0.86109,0 -2.50046,2.7142 -2.50046,4.13986 0,1.16137 2.66643,1.13455 3.96415,-0.0399 z m -15.07429,0.2347 c -1.2734,-1.31443 -2.94635,-3.4566 -3.71767,-4.76037 -1.3444,-2.2725 -1.36374,-2.42949 -0.46764,-3.79712 1.91028,-2.91544 6.42517,-3.65189 9.60703,-1.56705 1.48091,0.97033 1.43308,1.69611 -0.51621,7.83526 -1.56351,4.92409 -2.10715,5.17779 -4.90551,2.28928 z m 3.80416,-4.56351 c 0.74801,-3.06478 0.73359,-3.32802 -0.22049,-4.02566 -1.45978,-1.06742 -3.21256,-0.92286 -4.89949,0.40408 -1.6362,1.28703 -1.49074,1.90676 1.26479,5.38842 1.99928,2.52613 2.90922,2.1091 3.85519,-1.76684 z"
       style="fill:#884400;fill-opacity:1"
       inkscape:connector-curvature="0" />
    <path
       inkscape:connector-curvature="0"
       id="path2437"
       d="m 350.62864,523.78704 c -3.77807,0.1283 -8.95681,4.48979 -13.14012,13.04014 -6.19652,12.66519 -12.06127,40.65323 -10.39218,49.56253 0.63359,3.38207 -0.77378,17.0992 -3.09767,30.47699 -5.11841,29.4648 -5.25534,36.81285 -0.79939,41.26879 2.80055,2.80051 6.00472,3.18512 17.58677,2.19833 23.19506,-1.97612 36.32266,-9.65973 36.32266,-21.23394 0,-5.9373 -0.5374,-6.80468 -3.54733,-5.54581 -9.49681,3.97194 -28.06433,9.1431 -32.72538,9.1431 -5.14749,0 -5.1961,-0.1631 -4.14687,-12.79035 0.58482,-7.03826 3.81895,-24.29447 7.19458,-38.371 5.93627,-24.75422 9.16683,-40.34218 11.54132,-55.30818 1.34126,-8.45383 -1.01833,-12.56889 -4.79639,-12.4406 z m 66.15022,0.44967 c -1.54142,0.10325 -3.55895,1.05898 -6.24529,2.44816 -5.46475,2.82592 -8.90796,7.62207 -11.59129,16.08785 -1.51506,4.77987 3.97257,57.35378 7.54432,72.29533 1.61517,6.75674 4.93926,17.29771 7.39444,23.43228 3.71658,9.28646 4.01807,11.92114 1.94853,15.78807 -1.96714,3.67563 -1.91317,5.30831 0.14989,7.79411 1.43378,1.72757 3.84213,3.14762 5.34598,3.14762 4.02314,0 19.28549,-15.1847 19.28549,-19.1855 0,-1.88852 3.57924,-10.53302 7.94401,-19.23546 15.54138,-30.98623 26.82982,-62.8878 26.82982,-75.64281 0,-5.44791 0.39827,-5.33658 -7.74417,-2.49812 -6.50556,2.26786 -7.64372,4.70256 -9.69272,20.88421 -1.10713,8.74349 -7.86024,25.63559 -19.83506,49.46261 -9.65216,19.20545 -10.30377,18.79111 -15.08865,-10.34218 -2.45581,-14.953 -3.06879,-28.40875 -2.34822,-51.61099 0.80171,-25.81608 0.72717,-33.1349 -3.89708,-32.82518 z m 137.09683,0.0999 c -8.81692,-0.0217 -20.54132,2.2415 -26.13033,5.69569 -15.88704,9.8187 -25.73141,24.59888 -28.67843,43.06746 -6.32311,39.62634 -8.6538,77.71723 -4.8963,80.03947 1.51087,0.93379 2.85705,2.6799 2.99774,3.84712 0.14077,1.16718 0.35876,2.69619 0.49961,3.39743 0.65021,3.2388 28.13095,-1.80451 40.56947,-7.4444 12.66509,-5.74257 23.18256,-14.1594 23.18256,-18.53595 0,-2.4656 -4.73529,-2.53283 -7.29451,-0.1 -3.40002,3.23219 -27.44366,8.39365 -39.12056,8.39365 -11.17859,0 -11.26339,-0.005 -10.19233,-5.59578 0.5933,-3.09684 1.6813,-11.28563 2.3982,-18.18624 1.08977,-10.48982 2.1006,-12.91869 6.09543,-14.73886 4.81205,-2.1925 24.04497,-4.90575 37.67163,-5.29599 6.662,-0.19077 7.38549,-0.77142 7.94402,-6.4951 0.98997,-10.14486 -3.41849,-12.30349 -19.53529,-9.54278 -7.43166,1.27299 -16.1601,4.27342 -19.43538,6.69493 -3.27194,2.41905 -6.44894,3.89325 -7.04468,3.29751 -1.89588,-1.89587 8.38135,-40.81986 11.94099,-45.21582 2.9856,-3.687 5.72725,-4.19681 21.5338,-4.19681 9.95309,0 18.7579,-0.92234 19.58528,-2.04846 3.15465,-4.29388 1.57985,-13.17212 -2.74795,-15.4883 -1.95366,-1.04558 -5.33528,-1.53898 -9.34297,-1.54882 z m 102.37297,0 c -8.81692,-0.0217 -20.54132,2.2415 -26.13033,5.69569 -15.88706,9.8187 -25.73141,24.59888 -28.67843,43.06746 -6.32311,39.62634 -8.6538,77.71723 -4.8963,80.03947 1.51087,0.93379 2.85705,2.6799 2.99775,3.84712 0.14077,1.16718 0.35875,2.69619 0.4996,3.39743 0.65018,3.2388 28.13096,-1.80451 40.56947,-7.4444 12.66506,-5.74257 23.18256,-14.1594 23.18256,-18.53595 0,-2.4656 -4.7353,-2.53283 -7.29451,-0.1 -3.40002,3.23219 -27.44367,8.39365 -39.12056,8.39365 -11.17858,0 -11.2634,-0.005 -10.19233,-5.59578 0.5933,-3.09684 1.68131,-11.28563 2.39819,-18.18624 1.08977,-10.48982 2.10061,-12.91869 6.09541,-14.73886 4.81208,-2.1925 24.045,-4.90575 37.67166,-5.29599 6.66199,-0.19077 7.43543,-0.77142 7.994,-6.4951 0.98994,-10.14486 -3.46848,-12.30349 -19.58528,-9.54278 -7.43168,1.27299 -16.16008,4.27342 -19.43538,6.69493 -3.27193,2.41905 -6.44893,3.89325 -7.0447,3.29751 -1.89584,-1.89587 8.38138,-40.81986 11.94102,-45.21582 2.98557,-3.687 5.72724,-4.19681 21.53379,-4.19681 9.95309,0 18.7579,-0.92234 19.58526,-2.04846 3.15467,-4.29388 1.57988,-13.17212 -2.74793,-15.4883 -1.95367,-1.04558 -5.33528,-1.53898 -9.34296,-1.54882 z"
       style="fill:#0099ff;fill-opacity:1" />
    <path
       style="fill:#000000;fill-opacity:1"
       d="m 632.35681,756.17543 c -0.76535,-1.23834 0.12438,-12.47872 1.42514,-18.00436 0.66302,-2.81658 0.65633,-2.81909 -1.77253,-0.66662 -4.00031,3.54508 -3.65513,1.62071 0.97134,-5.41511 2.3968,-3.64501 4.96513,-8.09346 5.70739,-9.88544 1.37182,-3.31184 3.35642,-4.41669 3.31324,-1.84451 -0.0131,0.77748 -1.28531,5.71318 -2.82725,10.96819 -3.45016,11.75837 -3.56619,15.71452 -0.17015,5.80149 1.3683,-3.9941 3.08687,-7.46167 3.81903,-7.70572 0.73217,-0.24405 2.15386,1.14707 3.15933,3.09142 2.35631,4.5566 5.05722,4.06169 7.62785,-1.39771 2.21807,-4.71062 6.75182,-8.2306 9.32786,-7.24209 2.76993,1.06292 1.97347,3.74847 -2.35985,7.95692 -5.79503,5.62806 -2.81079,8.898 3.89035,4.26282 5.30159,-3.66714 6.21802,-4.06257 5.12391,-2.211 -1.90222,3.21916 -9.2242,8.81097 -11.53718,8.81097 -1.28211,0 -3.07475,-1.06172 -3.98366,-2.35935 -1.40261,-2.00252 -2.02709,-2.15891 -4.12898,-1.03402 -2.08602,1.11641 -2.89007,0.93675 -5.1003,-1.13964 -2.5068,-2.35502 -2.67317,-2.37195 -3.7288,-0.37963 -0.60769,1.14696 -2.19336,5.75446 -3.5237,10.23889 -2.45556,8.27742 -3.83172,10.42187 -5.23304,8.1545 z m 3.56616,-10.91267 c -0.37579,-0.37579 -0.64308,0.29216 -0.59397,1.4843 0.0543,1.31745 0.32224,1.58542 0.68324,0.68327 0.32668,-0.81637 0.28652,-1.79178 -0.0893,-2.16757 z m 24.19656,-16.41584 c 0,-0.63086 -0.75008,-0.50839 -1.69635,0.27695 -0.93299,0.77431 -1.69634,1.91675 -1.69634,2.53875 0,0.63084 0.75008,0.50838 1.69634,-0.27696 0.933,-0.77431 1.69635,-1.91674 1.69635,-2.53874 z m -302.55606,19.62845 c 1.88964,-5.95373 15.26073,-36.71141 16.4496,-37.83921 1.06721,-1.01239 1.18914,-0.67237 0.54661,1.52419 -2.07687,7.10001 -12.16086,33.62502 -13.65039,35.90611 -2.01812,3.09056 -4.28487,3.36759 -3.34582,0.40891 z M 70.204123,746.66833 c -0.406415,-1.05911 -0.186715,-5.31265 0.488223,-9.45233 0.67493,-4.13968 1.22101,-9.12075 1.213486,-11.06904 -0.0309,-8.01562 4.384525,-18.05648 6.866413,-15.61446 0.870222,0.85622 0.406643,5.18807 -1.620217,15.13996 -3.807304,18.69394 -3.814521,18.5878 1.199254,17.64722 2.22116,-0.41669 4.765681,-1.03668 5.654507,-1.37775 0.971881,-0.37295 1.616047,0.0777 1.616047,1.13046 0,2.58803 -2.302802,3.625 -11.014821,4.96008 -2.752737,0.42185 -3.847725,0.0826 -4.402892,-1.36414 z m 122.966957,-0.86367 c 0.0486,-1.39949 -0.72813,-4.73683 -1.726,-7.4163 -0.99787,-2.67947 -2.12988,-9.31737 -2.51556,-14.75089 -0.59741,-8.41644 -0.4155,-10.16486 1.22865,-11.80902 1.06145,-1.06144 2.33973,-1.9299 2.84063,-1.9299 0.50091,0 1.12719,5.97964 1.39171,13.28809 0.26454,7.30845 1.00339,14.21397 1.64188,15.34561 0.99561,1.76458 1.68169,0.99963 4.81869,-5.37249 2.01178,-4.08651 3.94992,-9.23029 4.307,-11.43062 0.62753,-3.86705 4.87069,-8.06277 4.85655,-4.80225 -0.021,4.82842 -8.42728,25.13803 -12.18682,29.44322 -2.40976,2.75952 -4.76223,2.47387 -4.65673,-0.56545 z m 199.1511,1.18744 c -0.7464,-0.74639 -1.33932,-3.41815 -1.31763,-5.93722 0.062,-7.19202 3.0086,-21.98015 4.97889,-24.98717 3.89372,-5.94255 15.90333,-8.46624 15.90333,-3.34191 0,1.8706 -0.63203,2.19854 -3.65407,1.89608 -7.42444,-0.74307 -8.08804,5.5e-4 -11.08109,12.41731 l -0.72421,3.00439 4.97958,-1.79065 c 5.26166,-1.89208 8.78344,-1.38654 8.78344,1.26084 0,1.11424 -1.87806,1.74755 -6.25976,2.11093 -3.44287,0.28551 -6.71333,0.98466 -7.26768,1.55366 -0.55437,0.56901 -1.33547,3.27166 -1.73578,6.00591 l -0.72786,4.97134 6.45958,-0.7592 c 6.16208,-0.72423 6.90394,-1.17978 16.10613,-9.89044 5.30557,-5.02217 10.83351,-9.67207 12.28428,-10.33307 4.80765,-2.19053 4.36684,0.38443 -0.88693,5.18085 -2.84853,2.60055 -5.89468,5.70217 -6.76923,6.89249 -1.46505,1.99404 -1.41125,2.06898 0.68436,0.95293 1.25093,-0.66621 3.23821,-2.27625 4.41614,-3.57785 2.87699,-3.17904 5.18385,-3.00372 5.18385,0.39395 0,4.72984 1.86955,4.26869 8.83376,-2.17892 3.70463,-3.42985 7.36858,-6.23609 8.14208,-6.23609 1.49675,0 1.09349,8.58644 -0.61079,13.00537 -1.24865,3.23753 6.70922,-4.37259 10.93887,-10.46084 l 3.33906,-4.80633 -5.14338,0 c -4.38944,0 -5.14338,-0.33155 -5.14338,-2.2618 0,-1.98425 0.75394,-2.26181 6.14374,-2.26181 5.15053,0 6.25981,-0.36565 6.86162,-2.26179 0.70931,-2.23483 2.82725,-3.18792 2.82725,-1.27228 0,0.54425 0.31807,2.57987 0.70682,4.52361 0.54089,2.70446 0.30769,3.53407 -0.99342,3.53407 -1.6185,0 -5.3679,11.56644 -5.3679,16.55935 0,2.79455 6.48587,-3.53254 8.47993,-8.27236 1.73439,-4.12259 6.53908,-7.71029 9.04031,-6.75048 2.76993,1.06292 1.97346,3.74847 -2.35986,7.95692 -4.00847,3.893 -4.31001,6.33918 -0.78139,6.33918 2.64946,0 9.03513,-5.21349 10.73838,-8.76718 1.94181,-4.05145 4.96261,-4.49382 8.43174,-1.23475 2.46057,2.31158 2.7249,3.2808 2.10982,7.73594 l -0.70316,5.09325 7.20117,-7.63358 c 3.96064,-4.19847 7.8561,-7.63358 8.65657,-7.63358 1.55341,0 1.25615,5.37174 -0.53194,9.61265 -0.70773,1.67856 0.1501,1.29887 3.32668,-1.47243 4.82747,-4.21155 6.2588,-4.18908 8.36505,0.13138 1.41879,2.91028 1.56803,2.95136 4.27617,1.17693 4.36173,-2.85791 4.25703,-1.22112 -0.19629,3.06867 l -4.02877,3.88085 -2.53405,-3.15338 c -3.03187,-3.77288 -5.01903,-3.31298 -9.16353,2.12073 -3.43383,4.502 -6.80652,5.26037 -5.84979,1.31538 2.5032,-10.32182 2.85275,-9.89981 -3.39321,-4.09678 -5.22226,4.85192 -10.01323,7.55454 -11.23182,6.33595 -0.28152,-0.28153 0.0112,-1.88783 0.65067,-3.56957 3.09239,-8.13356 -0.45865,-12.60862 -5.19889,-6.55173 -3.28497,4.19742 -9.43206,8.16486 -12.65051,8.16486 -1.2908,0 -3.08328,-1.05131 -3.98327,-2.33623 -1.62374,-2.31822 -1.66785,-2.30859 -5.72169,1.25072 -5.67544,4.98311 -7.92634,3.95075 -7.22818,-3.31517 l 0.52785,-5.49353 -3.69481,3.69482 c -2.03215,2.03215 -5.55432,5.11313 -7.82706,6.84664 -3.40551,2.5975 -4.3122,2.86747 -5.15543,1.535 -1.57178,-2.48369 -1.25273,-6.70586 0.5067,-6.70586 1.52712,0 3.20413,-5.0325 2.05872,-6.17791 -0.31712,-0.31712 -2.77742,1.45209 -5.46733,3.93157 -5.50802,5.07712 -8.43937,5.63718 -10.81085,2.06556 l -1.62181,-2.44257 -2.19156,2.28922 c -4.52859,4.73042 -10.66595,6.02419 -9.08953,1.91609 0.33389,-0.87008 0.24134,-1.56577 -0.20563,-1.54599 -1.41795,0.0628 -4.77083,2.99523 -4.77083,4.17264 0,1.25275 -11.51723,5.96951 -14.57617,5.96951 -1.06424,0 -2.54568,-0.61069 -3.29207,-1.35709 z m 84.59139,-18.14518 c 0,-0.63086 -0.75009,-0.50839 -1.69636,0.27695 -0.93299,0.77431 -1.69635,1.91675 -1.69635,2.53875 0,0.63084 0.75007,0.50838 1.69635,-0.27696 0.933,-0.77431 1.69636,-1.91674 1.69636,-2.53874 z m 70.34203,18.14518 c -0.74639,-0.74639 -1.33932,-3.41815 -1.31762,-5.93722 0.062,-7.19202 3.00861,-21.98015 4.97889,-24.98717 3.89371,-5.94255 15.90332,-8.46624 15.90332,-3.34191 0,1.8706 -0.63202,2.19854 -3.65406,1.89608 -7.42445,-0.74307 -8.08804,5.5e-4 -11.08109,12.41731 l -0.7242,3.00439 4.97956,-1.79065 c 5.26168,-1.89208 8.78344,-1.38654 8.78344,1.26084 0,1.11424 -1.87806,1.74755 -6.25975,2.11093 -3.44287,0.28551 -6.71332,0.98466 -7.26768,1.55366 -0.55438,0.56901 -1.33547,3.27166 -1.73579,6.00591 l -0.72786,4.97134 6.58192,-0.73901 c 6.91114,-0.77597 8.14516,-1.70092 18.74781,-14.05234 3.38969,-3.94877 6.12902,-4.89589 4.78387,-1.65401 -1.81053,4.36343 -3.0618,10.58835 -2.2814,11.34961 0.45532,0.44417 2.69859,-1.35529 4.98504,-3.99877 2.28646,-2.64347 4.46138,-4.80632 4.83317,-4.80632 0.37178,0 0.98131,1.52671 1.35451,3.3927 0.37319,1.86599 1.16551,3.3927 1.76071,3.3927 1.02417,0 3.67233,-3.48625 6.44644,-8.48661 1.8127,-3.2674 4.76262,-3.40946 7.98263,-0.38442 2.47188,2.32221 2.72369,3.2603 2.07652,7.73594 l -0.73648,5.09325 7.74635,-7.63358 c 4.2605,-4.19847 8.39976,-7.63358 9.19835,-7.63358 0.7986,0 1.1668,0.46143 0.81824,1.02542 -0.34857,0.564 0.29308,0.78306 1.42589,0.48684 1.1328,-0.29624 2.71704,0.25353 3.52053,1.22168 4.42154,5.32761 -7.74854,18.52806 -13.03608,14.13979 -0.87351,-0.72493 -1.58819,-2.32629 -1.58819,-3.55855 0,-2.00634 -0.4059,-1.88411 -3.88385,1.16959 -3.79781,3.3345 -8.21733,5.45624 -9.23838,4.43518 -0.28153,-0.28153 0.0112,-1.88783 0.65067,-3.56957 3.29073,-8.65529 -0.41356,-12.41507 -5.79709,-5.88392 -4.89551,5.93911 -7.18782,6.92042 -9.87911,4.22912 -2.16455,-2.16456 -2.22215,-2.15151 -5.18549,1.17433 -3.45825,3.88129 -6.43185,3.84482 -7.3608,-0.0903 -0.93956,-3.98003 -2.74505,-4.02319 -6.00944,-0.1437 -2.79325,3.3196 -12.39774,7.98211 -16.44266,7.98211 -1.09656,0 -2.60444,-0.61069 -3.35084,-1.35709 z m 77.06108,-10.23773 c 1.78863,-2.39795 2.01444,-3.42064 0.983,-4.45209 -1.70712,-1.70711 -7.02348,2.94718 -7.02348,6.14885 0,3.02284 3.1881,2.12732 6.04048,-1.69676 z m -517.96673,5.65758 c 0.33939,-1.39948 0.9864,-4.05466 1.4378,-5.9004 l 0.82073,-3.35585 -4.91148,4.20403 c -5.743901,4.91658 -8.580149,5.29333 -10.364631,1.3768 -1.319807,-2.89667 -3.640958,-3.70649 -4.879526,-1.70244 -0.382351,0.61865 -1.723166,1.67499 -2.979602,2.34742 -2.013971,1.07783 -2.151389,0.97814 -1.160729,-0.84211 1.896326,-3.48437 8.962482,-9.71165 10.171806,-8.96425 0.627889,0.38806 1.475644,2.22643 1.88392,4.08529 0.408268,1.85886 1.288832,3.37973 1.956817,3.37973 0.667975,0 3.904965,-2.54452 7.193305,-5.65451 3.28835,-3.10997 6.57385,-5.65449 7.30112,-5.65449 1.41797,0 1.03129,5.58946 -0.66501,9.61265 -0.70772,1.67856 0.15011,1.29887 3.32669,-1.47243 4.82468,-4.20912 6.25903,-4.18852 8.3596,0.12002 1.74024,3.56943 3.67384,2.80282 8.14801,-3.23052 2.58018,-3.4793 5.44291,-5.61829 6.33089,-4.73033 0.19394,0.19395 -0.36547,2.36877 -1.24314,4.83294 -3.31759,9.31455 -1.57923,10.97625 4.09544,3.91487 3.94662,-4.91105 5.50885,-5.62912 5.53583,-2.54453 0.009,1.0885 0.49163,2.7291 1.07134,3.6458 1.77647,2.80914 6.55991,-2.51837 5.95594,-6.63339 -0.58928,-4.0151 1.44438,-5.54037 3.1465,-2.35993 1.23728,2.31189 1.32009,2.29434 5.18515,-1.09923 4.48865,-3.94108 5.5797,-4.20219 6.58731,-1.57647 0.65456,1.70577 -3.84871,9.72271 -6.31906,11.24948 -1.51868,0.93858 -1.08878,2.41296 0.92938,3.1874 1.12583,0.43203 3.61355,-0.48838 6.24044,-2.3088 6.33815,-4.39235 6.57145,-2.51397 0.28404,2.28684 -5.52155,4.21601 -8.19406,4.95026 -10.31137,2.83295 -0.89431,-0.89431 -2.05151,-0.70196 -4.18433,0.69552 -3.55268,2.32781 -3.84692,1.07769 -0.56786,-2.41271 3.92168,-4.17443 1.35728,-5.50004 -3.08855,-1.59654 -3.20137,2.81085 -4.3258,3.22541 -6.12975,2.25996 -1.21505,-0.65028 -2.21155,-1.80056 -2.21443,-2.55615 -0.003,-0.75562 -1.55538,0.28009 -3.45002,2.30158 -3.56429,3.80294 -6.48303,4.71788 -7.2153,2.2618 -1.72848,-5.79746 -1.47351,-5.65779 -5.24716,-2.87407 l -3.51287,2.59134 -2.51898,-3.15338 c -3.01478,-3.77402 -5.00404,-3.31288 -9.14846,2.12073 -3.43385,4.502 -6.80654,5.26037 -5.8498,1.31538 z m 57.93442,-15.29647 c -0.99119,-0.9912 -5.1574,3.31776 -5.11824,5.29365 0.0255,1.28674 0.85252,0.87494 2.88524,-1.43667 1.56724,-1.78227 2.57209,-3.5179 2.233,-3.85698 z m 110.5862,16.09075 c -0.36939,-0.96264 -0.39746,-3.79435 -0.0623,-6.29267 l 0.60927,-4.54242 -3.91475,4.03086 c -4.48213,4.61511 -7.35275,5.08636 -9.67539,1.58829 l -1.62181,-2.44257 -2.19156,2.28922 c -4.58693,4.79135 -10.66194,6.0137 -9.05328,1.8216 0.35383,-0.92206 0.26129,-1.49495 -0.20563,-1.27309 -0.46691,0.22184 -3.2453,1.62786 -6.17417,3.12449 -4.49188,2.29528 -5.77496,2.5162 -8.19903,1.41172 -1.58061,-0.72017 -2.87381,-2.08366 -2.87381,-3.02999 0,-1.94024 -1.76504,-2.30839 -2.82726,-0.5897 -1.2076,1.95395 -4.74551,1.2328 -6.43499,-1.31168 l -1.62182,-2.44257 -2.19154,2.28922 c -4.52861,4.73042 -10.66597,6.02419 -9.08955,1.91609 0.74096,-1.93089 -0.64562,-2.06774 -2.46963,-0.24373 -0.73604,0.73604 -1.62047,1.056 -1.96542,0.71105 -0.81266,-0.81264 15.06847,-15.55004 18.40596,-17.08036 4.72889,-2.16835 4.23831,0.45393 -0.97539,5.21376 -2.84853,2.60055 -5.89467,5.70217 -6.76923,6.89249 -1.46505,1.99404 -1.41124,2.06898 0.68436,0.95293 1.25095,-0.66621 3.23822,-2.27625 4.41616,-3.57785 2.83187,-3.12917 5.18384,-3.00568 5.18384,0.27221 0,1.45133 0.30787,2.94663 0.68413,3.32291 0.37628,0.37627 4.31669,-2.08344 8.75646,-5.46602 7.48422,-5.70208 10.94082,-7.38371 10.89833,-5.30198 -0.0304,1.48563 -1.5653,3.14412 -5.97544,6.4563 -2.97285,2.23274 -4.1922,3.95267 -3.95816,5.58318 0.62689,4.36724 3.93555,3.09054 15.6769,-6.04919 6.42987,-5.00515 12.35206,-9.10027 13.16044,-9.10027 2.58621,0 1.58385,2.05969 -2.52901,5.19673 -2.19934,1.67751 -5.07491,4.56129 -6.39017,6.40838 -2.21321,3.10818 -2.23031,3.27217 -0.22942,2.20133 1.18906,-0.63637 3.1257,-2.22198 4.30363,-3.52358 2.87699,-3.17904 5.18385,-3.00372 5.18385,0.39395 0,1.51828 0.42827,3.02519 0.95171,3.34871 1.06354,0.65729 6.41081,-4.73962 10.25487,-10.35009 l 2.51825,-3.67543 -5.16606,0 c -4.41213,0 -5.16607,-0.33009 -5.16607,-2.2618 0,-1.98425 0.75394,-2.26181 6.14375,-2.26181 5.15053,0 6.25981,-0.36565 6.86162,-2.26179 0.70931,-2.23483 2.82725,-3.18792 2.82725,-1.27228 0,0.54425 0.31807,2.57987 0.70681,4.52361 0.54089,2.70446 0.3077,3.53407 -0.99342,3.53407 -1.14807,0 -2.29577,2.3709 -3.53406,7.30055 -2.91075,11.58773 -2.56862,12.00771 4.27566,5.24845 3.36022,-3.31849 6.62896,-5.71257 7.26385,-5.32018 0.63489,0.39238 1.48839,2.2343 1.89668,4.09316 0.40825,1.85886 1.36364,3.37973 2.12305,3.37973 0.75942,0 4.23564,-2.54452 7.72495,-5.65451 5.61424,-5.00388 10.07705,-7.49026 8.30873,-4.62907 -0.34856,0.564 0.2931,0.78306 1.42589,0.48684 1.1328,-0.29624 2.71705,0.25353 3.52054,1.22168 4.37721,5.2742 -7.73812,18.53672 -12.9682,14.19614 -0.83615,-0.69396 -1.67806,-2.29338 -1.87091,-3.5543 -0.34979,-2.28725 -0.35757,-2.28707 -3.35624,0.0821 -3.86869,3.0566 -6.19889,3.0062 -7.85132,-0.16982 -0.72813,-1.39949 -1.50659,-2.75378 -1.72993,-3.00952 -0.22332,-0.25576 -2.91744,1.65264 -5.98693,4.24087 -6.043,5.09553 -7.7079,5.65823 -8.74498,2.95562 z m 38.44833,-6.45186 c 1.78863,-2.39795 2.01445,-3.42064 0.98301,-4.45209 -1.70712,-1.70711 -7.02349,2.94718 -7.02349,6.14885 0,3.02284 3.18809,2.12732 6.04048,-1.69676 z m 11.29493,5.65758 c 0.33939,-1.39948 0.98013,-4.02958 1.42383,-5.84467 l 0.80674,-3.30016 -4.6935,3.7718 c -2.58141,2.07449 -4.91956,3.54574 -5.19587,3.26943 -0.81628,-0.8163 12.38692,-14.57718 13.98642,-14.57718 1.56245,0 1.27088,5.35778 -0.52309,9.61265 -0.70773,1.67856 0.15011,1.29887 3.3267,-1.47243 4.82746,-4.21155 6.25878,-4.18908 8.36504,0.13138 1.41879,2.91028 1.56803,2.95136 4.27617,1.17693 4.36172,-2.85791 4.25702,-1.22112 -0.19628,3.06867 l -4.02879,3.88085 -2.53405,-3.15338 c -3.03186,-3.77288 -5.01902,-3.31298 -9.16352,2.12073 -3.43383,4.502 -6.80653,5.26037 -5.8498,1.31538 z M 92.407239,719.57533 c 0,-1.57373 4.102455,-5.15318 5.906139,-5.15318 1.52135,0 0.955805,3.15461 -0.897869,5.00828 -2.225261,2.22527 -5.00827,2.3058 -5.00827,0.1449 z m 197.907671,0 c 0,-1.57373 4.10245,-5.15318 5.90614,-5.15318 1.52134,0 0.9558,3.15461 -0.89787,5.00828 -2.22526,2.22527 -5.00827,2.3058 -5.00827,0.1449 z"
       id="path2513"
       inkscape:connector-curvature="0" />
  </g>
</svg>
