<?xml version="1.0" encoding="UTF-8" standalone="no"?>
<!-- Created with Inkscape (http://www.inkscape.org/) -->

<svg
   xmlns:dc="http://purl.org/dc/elements/1.1/"
   xmlns:cc="http://creativecommons.org/ns#"
   xmlns:rdf="http://www.w3.org/1999/02/22-rdf-syntax-ns#"
   xmlns:svg="http://www.w3.org/2000/svg"
   xmlns="http://www.w3.org/2000/svg"
   xmlns:sodipodi="http://sodipodi.sourceforge.net/DTD/sodipodi-0.dtd"
   xmlns:inkscape="http://www.inkscape.org/namespaces/inkscape"
   id="svg3904"
   sodipodi:version="0.32"
   inkscape:version="0.48.5 r10040"
   width="744.09448"
   height="1052.3622"
   version="1.0"
   sodipodi:docname="engine_white.svg"
   inkscape:output_extension="org.inkscape.output.svg.inkscape"
   inkscape:export-filename="/src_install/lvee/2008/logo2008.png"
   inkscape:export-xdpi="303.60001"
   inkscape:export-ydpi="303.60001">
  <metadata
     id="metadata3909">
    <rdf:RDF>
      <cc:Work
         rdf:about="">
        <dc:format>image/svg+xml</dc:format>
        <dc:type
           rdf:resource="http://purl.org/dc/dcmitype/StillImage" />
        <dc:title></dc:title>
      </cc:Work>
    </rdf:RDF>
  </metadata>
  <defs
     id="defs3907">
    <inkscape:perspective
       sodipodi:type="inkscape:persp3d"
       inkscape:vp_x="0 : 526.18109 : 1"
       inkscape:vp_y="0 : 1000 : 0"
       inkscape:vp_z="744.09448 : 526.18109 : 1"
       inkscape:persp3d-origin="372.04724 : 350.78739 : 1"
       id="perspective2954" />
    <inkscape:perspective
       sodipodi:type="inkscape:persp3d"
       inkscape:vp_x="0 : 526.18109 : 1"
       inkscape:vp_y="0 : 1000 : 0"
       inkscape:vp_z="744.09448 : 526.18109 : 1"
       inkscape:persp3d-origin="372.04724 : 350.78739 : 1"
       id="perspective2464" />
    <inkscape:perspective
       id="perspective3853"
       inkscape:persp3d-origin="372.04724 : 350.78739 : 1"
       inkscape:vp_z="744.09448 : 526.18109 : 1"
       inkscape:vp_y="0 : 1000 : 0"
       inkscape:vp_x="0 : 526.18109 : 1"
       sodipodi:type="inkscape:persp3d" />
    <inkscape:perspective
       sodipodi:type="inkscape:persp3d"
       inkscape:vp_x="0 : 526.18109 : 1"
       inkscape:vp_y="0 : 1000 : 0"
       inkscape:vp_z="744.09448 : 526.18109 : 1"
       inkscape:persp3d-origin="372.04724 : 350.78739 : 1"
       id="perspective4938" />
    <inkscape:perspective
       id="perspective4936"
       inkscape:persp3d-origin="372.04724 : 350.78739 : 1"
       inkscape:vp_z="744.09448 : 526.18109 : 1"
       inkscape:vp_y="0 : 1000 : 0"
       inkscape:vp_x="0 : 526.18109 : 1"
       sodipodi:type="inkscape:persp3d" />
    <inkscape:perspective
       id="perspective2433"
       inkscape:persp3d-origin="372.04724 : 350.78739 : 1"
       inkscape:vp_z="744.09448 : 526.18109 : 1"
       inkscape:vp_y="0 : 1000 : 0"
       inkscape:vp_x="0 : 526.18109 : 1"
       sodipodi:type="inkscape:persp3d" />
    <inkscape:perspective
       id="perspective2509"
       inkscape:persp3d-origin="372.04724 : 350.78739 : 1"
       inkscape:vp_z="744.09448 : 526.18109 : 1"
       inkscape:vp_y="0 : 1000 : 0"
       inkscape:vp_x="0 : 526.18109 : 1"
       sodipodi:type="inkscape:persp3d" />
  </defs>
  <sodipodi:namedview
     inkscape:window-height="997"
     inkscape:window-width="1400"
     inkscape:pageshadow="2"
     inkscape:pageopacity="0.0"
     guidetolerance="10.0"
     gridtolerance="10.0"
     objecttolerance="10.0"
     borderopacity="1.0"
     bordercolor="#666666"
     pagecolor="#ffffff"
     id="base"
     inkscape:zoom="0.83039936"
     inkscape:cx="298.72426"
     inkscape:cy="616.82389"
     inkscape:window-x="0"
     inkscape:window-y="31"
     inkscape:current-layer="svg3904"
     width="744.09449px"
     height="1052.3622px"
     showgrid="false"
     inkscape:window-maximized="1" />
  <g
     id="g3844">
    <path
       inkscape:connector-curvature="0"
       id="rect3820"
       d="m 275,252.36218 0,20 0.125,0 c -44.90044,25.9188 -75.125,74.42993 -75.125,130 0,43.46545 18.49099,82.60471 48.03125,110 l -48.03125,0 0,40 300,0 0,-40 -48.03125,0 C 481.50901,484.96689 500,445.82763 500,402.36218 c 0,-55.57007 -30.22456,-104.0812 -75.125,-130 l 0.125,0 0,-20 -75,0 -75,0 z m 75,20 c 71.79702,0 130,58.20298 130,130 0,71.79702 -58.20298,130 -130,130 -71.79702,0 -130,-58.20298 -130,-130 0,-71.79702 58.20298,-130 130,-130 z"
       style="fill:#009999;fill-opacity:1;stroke:none" />
    <path
       id="path2468"
       d="m 273.17817,491.91167 c 0,-1.54103 4.98899,-12.93396 6.18951,-14.1345 0.99989,-0.99988 1.66648,-1.06068 3.32823,-0.30353 2.24559,1.02316 7.48298,9.35316 6.49922,10.33692 -0.32963,0.32965 -3.13919,1.55534 -6.24345,2.72379 -5.73801,2.15978 -9.77351,2.72847 -9.77351,1.37732 z m 10.35722,-4.5226 c 1.41792,-1.03681 1.42613,-1.25955 0.1379,-3.75071 -0.75326,-1.45663 -1.88584,-2.64841 -2.51684,-2.64841 -1.09931,0 -2.97736,4.02154 -2.97736,6.37554 0,1.4434 3.39414,1.45834 5.3563,0.0236 z m 15.15335,1.45085 c -0.93718,-2.44226 -0.51561,-9.18508 0.67625,-10.81626 0.99986,-1.3684 2.43032,-1.66302 9.27558,-1.91038 8.19911,-0.29632 9.98019,0.27477 8.98066,2.87954 -0.96219,2.5074 -14.32467,11.1655 -17.23231,11.1655 -0.65684,0 -1.42193,-0.59327 -1.70018,-1.3184 z m 9.6647,-5.4578 c 2.23597,-1.43482 3.91943,-3.02888 3.741,-3.54233 -0.48819,-1.40498 -7.90017,-1.05106 -9.40009,0.44884 -1.3923,1.39232 -0.85178,5.70225 0.71515,5.70225 0.48321,0 2.70797,-1.17395 4.94394,-2.60876 z m -47.51249,2.04798 c -3.22292,-1.58836 -5.1449,-4.87739 -5.40034,-9.24149 -0.17935,-3.06413 -0.10852,-3.14134 4.19127,-4.56789 2.40554,-0.79809 6.43754,-1.69363 8.96,-1.9901 4.49464,-0.52826 4.58629,-0.49682 4.58629,1.57309 0,2.66201 -4.56705,13.99794 -6.00778,14.91195 -1.59211,1.01007 -3.2541,0.83005 -6.32944,-0.68556 z m 7.25446,-7.2406 c 2.6463,-6.20094 1.90308,-7.02721 -4.5042,-5.0075 -2.62611,0.82782 -4.95037,1.9628 -5.16503,2.52217 -1.00391,2.61617 4.19519,8.33331 6.82034,7.4999 0.45099,-0.14317 1.73298,-2.39973 2.84889,-5.01457 z m 56.38652,-2.40886 c -0.17609,-0.57303 -0.53011,-3.08185 -0.7867,-5.57517 -0.2566,-2.49332 -1.27426,-7.25414 -2.26148,-10.57961 -2.51158,-8.4603 -2.16882,-8.98967 5.4478,-8.41363 7.88834,0.5966 9.64172,1.51819 9.64172,5.06784 0,3.59239 -2.21865,11.04333 -4.37957,14.70801 -2.84308,4.82155 -6.87734,7.34505 -7.66177,4.79256 z m 7.38969,-12.29127 c 1.65777,-5.90821 0.98577,-7.8622 -2.97642,-8.65465 -4.13134,-0.82625 -4.54725,0.28533 -2.84304,7.59852 0.82939,3.55911 1.68273,6.77064 1.8963,7.1367 0.82407,1.41241 2.58773,-1.32111 3.92316,-6.08057 z m -49.32805,1.85703 c -7.30151,-9.00759 -8.53191,-10.94837 -8.53191,-13.45789 0,-3.38463 8.28323,-3.28945 15.06063,0.17304 4.27131,2.18216 5.61823,5.17583 5.71316,12.69827 0.0694,5.49733 -1.44354,8.72872 -4.08674,8.72872 -0.96136,0 -4.07527,-3.10895 -8.15514,-8.14214 z m 9.00474,1.41184 c 1.27242,-2.37756 0.21511,-7.89064 -2.00926,-10.47662 -1.99007,-2.31359 -9.38642,-4.27024 -10.79969,-2.85698 -0.48884,0.48884 0.61411,2.44933 2.93351,5.21434 2.04429,2.43703 4.55798,5.64993 5.58599,7.13979 2.1797,3.15899 3.02028,3.35093 4.28945,0.97947 z m 16.91648,3.18797 c -2.06849,-2.31255 -4.84109,-6.90253 -7.50464,-12.42384 -2.81903,-5.84359 -1.90921,-6.80266 6.07109,-6.39966 8.552,0.43185 9.79867,1.69827 9.29949,9.44675 -0.62671,9.72829 -3.97806,13.72335 -7.86594,9.37675 z m 4.5497,-8.6632 c 0.18447,-3.83307 -0.0898,-5.43959 -1.10139,-6.45117 -1.60217,-1.60217 -7.05885,-1.8377 -7.06987,-0.30517 -0.004,0.57303 1.21486,3.55715 2.70884,6.6314 3.49554,7.19299 5.12049,7.23016 5.46242,0.12494 z m -61.08199,3.05055 c -0.65515,-1.06007 4.80936,-12.6471 6.70732,-14.22228 2.08347,-1.72912 11.19937,8.24766 9.68493,10.59954 -1.85015,2.87326 -15.05221,5.79097 -16.39225,3.62274 z m 12.65921,-4.72741 c 0.5865,-1.52844 -2.39658,-4.45436 -4.54143,-4.45436 -1.55697,0 -3.47932,2.39287 -3.51536,4.37581 -0.0374,2.05831 7.26975,2.12955 8.05679,0.0785 z m 153.19894,-0.783 c -9.28102,-2.27606 -9.03989,-5.12484 0.7256,-8.57235 7.37343,-2.60305 10.35337,-2.19425 12.36455,1.69621 0.86615,1.67551 1.65033,4.11346 1.74259,5.41768 0.16594,2.34564 0.11366,2.37298 -4.83317,2.5278 -2.75051,0.0861 -7.25032,-0.39511 -9.99957,-1.06934 z m 10.41631,-2.47592 c 0,-4.12187 -2.98513,-5.43595 -8.21051,-3.61437 -3.52683,1.22946 -3.31274,2.90412 0.50075,3.91696 4.91993,1.30672 7.70976,1.19722 7.70976,-0.30259 z m -31.74472,-0.29455 c -3.98673,-2.50431 -9.23269,-8.0515 -11.24366,-11.88925 -1.07415,-2.04992 -1.00596,-2.4328 0.81637,-4.5842 1.09363,-1.2911 4.05323,-3.45611 6.5769,-4.81114 5.73737,-3.08056 6.81871,-2.42008 7.61902,4.65369 0.31605,2.79355 1.29661,7.38185 2.17903,10.19622 0.88241,2.81437 1.60924,5.96095 1.61515,6.99239 0.0152,2.63963 -2.80377,2.43174 -7.56281,-0.55771 z m 1.90988,-4.23485 c 0.49265,-1.20259 -2.13461,-12.54462 -3.08937,-13.337 -1.69936,-1.41035 -6.65611,3.24216 -5.92117,5.55776 1.22684,3.86544 8.1613,9.85228 9.01054,7.77924 z m 42.33716,-1.69374 c 0,-4.97625 1.87903,-9.9751 3.74956,-9.9751 2.43684,0 6.02041,2.39797 9.51283,6.36557 1.89827,2.15654 3.31982,4.32577 3.159,4.82051 -0.35102,1.07991 -7.94188,2.79085 -12.87906,2.90286 l -3.54233,0.0804 0,-4.1942 z m 9.8725,-0.23412 c 0.68687,-0.82761 0.29899,-1.76141 -1.5912,-3.83093 -2.04852,-2.24282 -2.72029,-2.55329 -3.72341,-1.72079 -1.24154,1.0304 -1.68517,5.07353 -0.66827,6.09043 0.96705,0.96707 5.03738,0.60056 5.98288,-0.53871 z m -118.22352,-3.48343 c -0.45976,-1.20923 -0.83591,-3.11372 -0.83591,-4.23217 0,-1.11846 -0.93768,-3.97726 -2.08373,-6.35291 -2.5587,-5.30393 -2.58183,-6.15396 -0.20837,-7.65703 3.28084,-2.0777 6.92164,-2.43706 8.51795,-0.84076 1.18461,1.18462 1.3788,2.66383 1.12721,8.58685 -0.32223,7.58602 -1.80919,11.94897 -4.23141,12.41544 -0.94283,0.18158 -1.74213,-0.48962 -2.28574,-1.91942 z m 3.99047,-13.34221 c -0.1808,-1.86654 -0.71764,-2.56798 -2.11755,-2.7668 -2.10587,-0.29908 -2.16773,-0.0768 -1.1181,4.01703 0.41137,1.60447 1.02594,4.04243 1.36569,5.41769 l 0.61773,2.50047 0.74722,-3.33396 c 0.41097,-1.83368 0.63823,-4.45918 0.50501,-5.83443 z m -45.66731,10.83158 c -10.65286,-7.0633 -11.66883,-7.89427 -11.66883,-9.5441 0,-2.17593 2.40534,-3.36349 8.62954,-4.26057 9.1268,-1.31544 12.20767,1.00871 12.20767,9.20922 0,4.75769 -1.17894,8.38406 -2.68821,8.26877 -0.58437,-0.0447 -3.50045,-1.69764 -6.48017,-3.67332 z m 6.65515,-4.78878 c -0.007,-1.48986 -0.33641,-3.21968 -0.73201,-3.84406 -1.51094,-2.38482 -12.64097,-2.94848 -12.55698,-0.63594 0.0423,1.16648 9.85413,7.08635 11.84315,7.14547 1.10134,0.0328 1.45548,-0.62012 1.44584,-2.66547 z m 17.88752,5.63532 c -4.04767,-4.29178 -10.37336,-13.3176 -10.37336,-14.80123 0,-3.10863 13.60052,-4.05402 16.50713,-1.14743 1.79038,1.7904 2.29806,10.76425 0.85394,15.09451 -1.47672,4.42802 -3.39588,4.66261 -6.98771,0.85415 z m 4.62942,-6.3364 c 0,-1.82134 -0.55315,-4.63544 -1.22924,-6.25353 -1.13503,-2.71651 -1.4699,-2.92209 -4.36889,-2.68208 -2.00273,0.16581 -3.22649,0.71947 -3.37954,1.52895 -0.30242,1.59975 7.20849,11.81162 8.22532,11.18318 0.41379,-0.25574 0.75235,-1.95517 0.75235,-3.77652 z m 88.63272,4.70618 c -4.95784,-5.11869 -6.11822,-8.08148 -4.3702,-11.15841 1.9196,-3.37895 6.9724,-6.94677 10.04396,-7.09212 l 2.79488,-0.13225 0.62185,7.91814 c 0.34202,4.35498 0.41279,9.5122 0.15729,11.46047 -0.41342,3.15258 -0.70592,3.54233 -2.65838,3.54233 -1.56266,0 -3.4585,-1.30568 -6.5894,-4.53816 z m 5.7318,-4.28716 c -0.4048,-7.01057 -1.11895,-10.34492 -2.21564,-10.34492 -1.3409,0 -5.46612,3.78547 -5.46612,5.01593 0,2.47166 5.53181,10.22864 6.95233,9.74892 0.60217,-0.20337 0.87681,-1.86751 0.72943,-4.41993 z m -150.62497,3.38361 c -1.83368,-0.66061 -3.42772,-1.20674 -3.54233,-1.21365 -0.1146,-0.007 -0.20922,-0.85646 -0.21028,-1.8879 -0.002,-1.24937 2.07834,-3.85811 6.23028,-7.81547 6.8018,-6.48302 9.16672,-7.69375 10.42732,-5.33827 1.23635,2.31012 -2.03078,13.32664 -4.6425,15.65421 -2.42946,2.16515 -3.67044,2.25542 -8.26249,0.60108 z m 7.47006,-4.81209 c 0.69152,-1.05541 1.49719,-3.11829 1.79037,-4.5842 0.72941,-3.64707 -0.80463,-3.44186 -5.50974,0.73705 -3.60225,3.1994 -3.68666,3.37942 -2.13278,4.54865 2.32746,1.75132 4.40844,1.50187 5.85215,-0.7015 z m 184.51697,1.2842 c -5.4376,-4.55363 -7.30041,-7.26907 -5.92809,-8.64141 1.17327,-1.17327 11.57359,-4.0597 14.62781,-4.0597 1.92071,0 2.58679,0.56034 3.62785,3.05195 0.78704,1.88364 1.07713,4.1077 0.75779,5.80989 -0.66623,3.55133 -4.25355,7.81067 -6.56793,7.79834 -0.9907,-0.005 -3.92355,-1.78686 -6.51743,-3.95907 z m 9.00952,-2.19455 c 1.84436,-3.86766 0.98897,-7.1726 -1.85643,-7.1726 -4.28243,0 -9.61394,1.82201 -9.34951,3.19513 0.30279,1.57224 6.96081,6.80674 8.65784,6.80674 0.65941,0 1.80605,-1.27318 2.5481,-2.82927 z m -34.47288,3.45438 c -2.68403,-2.93537 -4.45625,-7.01841 -4.98534,-11.48579 -0.42606,-3.59737 -0.20449,-4.47218 1.79744,-7.09684 5.17084,-6.77934 12.62898,-9.92261 14.63777,-6.16915 0.70747,1.32193 0.54544,2.887 -0.71189,6.87627 -0.89532,2.84064 -2.28908,7.75363 -3.09727,10.91776 -1.33908,5.24271 -3.46808,8.8331 -5.23775,8.8331 -0.3785,0 -1.45985,-0.8439 -2.40296,-1.87535 z m 5.27176,-11.24988 c 1.04896,-4.01239 2.15641,-8.13916 2.46099,-9.1706 0.9089,-3.07803 -2.53294,-2.34755 -6.53696,1.38736 -3.05532,2.84998 -3.48656,3.69215 -3.40881,6.65718 0.0607,2.31493 0.81252,4.343 2.36403,6.37714 1.25126,1.64048 2.48618,2.77153 2.74427,2.51344 0.2581,-0.2581 1.32751,-3.75213 2.37648,-7.76452 z m -55.82318,6.44858 c -3.01152,-2.64415 -8.03555,-11.55138 -8.03555,-14.24644 0,-3.28164 8.47864,-5.70261 10.64558,-3.03972 0.4663,0.57302 1.0629,4.04242 1.32576,7.70977 0.26287,3.66736 0.58364,7.75651 0.71284,9.08701 0.32733,3.37101 -1.1853,3.53024 -4.64863,0.48938 z m -0.17865,-9.94874 c -0.52061,-4.60157 -0.76272,-5.10576 -2.34339,-4.88017 -1.39621,0.19927 -1.71034,0.7446 -1.51055,2.6223 0.23232,2.18346 3.54641,8.27778 4.16503,7.65914 0.14824,-0.14822 0.009,-2.57879 -0.31109,-5.40127 z m 12.62498,0.47763 c -6.6866,-6.68661 -6.19885,-10.71564 1.96017,-16.19193 3.57238,-2.39776 6.05313,-3.50143 7.49374,-3.33396 2.01698,0.2345 2.14472,0.5146 2.01481,4.41782 -0.19021,5.71515 -4.43018,18.257 -6.28797,18.59991 -0.81762,0.15091 -3.02741,-1.33849 -5.18075,-3.49184 z m 5.85861,-7.64822 c 2.29354,-6.91954 2.38441,-7.8766 0.74788,-7.8766 -1.92105,0 -7.91814,6.42985 -7.91814,8.48954 0,1.99117 3.17311,5.87231 4.4524,5.44588 0.43876,-0.14627 1.66181,-2.87273 2.71786,-6.05882 z m -104.27162,6.94369 c -2.75051,-1.43154 -7.25134,-3.38312 -10.00186,-4.33685 -6.35453,-2.2034 -6.68868,-4.10182 -1.25023,-7.10314 3.0404,-1.6779 5.22295,-2.1344 11.52493,-2.41059 5.25594,-0.23033 8.09082,-0.0238 8.75162,0.6375 1.02396,1.0248 1.13383,11.11014 0.15465,14.1953 -0.75263,2.37129 -3.24901,2.10417 -9.17911,-0.98222 z m 6.09084,-6.28659 c 0.22574,-3.1145 0.009,-3.63175 -1.81678,-4.32573 -2.89447,-1.10047 -12.1922,0.1432 -12.1922,1.63084 0,1.06377 10.89412,6.65588 12.50233,6.41762 0.83665,-0.12395 1.33506,-1.35544 1.50665,-3.72273 z m 18.2943,2.58116 c -2.07163,-1.67993 -5.4019,-3.6585 -7.40059,-4.39681 -4.7199,-1.74352 -5.14994,-3.7304 -1.09695,-5.06801 3.55262,-1.17247 11.6875,-0.49857 16.0661,1.33092 2.67453,1.1175 2.82241,1.38221 2.36092,4.22607 -0.5012,3.08853 -3.37933,6.96228 -5.17287,6.96228 -0.54449,0 -2.68497,-1.3745 -4.75661,-3.05445 z m 6.72294,-3.88847 c 0.34413,-1.77438 -3.32405,-3.22591 -7.3066,-2.89128 l -2.96428,0.24908 4.16745,2.251 c 4.52718,2.44531 5.6906,2.51987 6.10343,0.3912 z m 124.89312,3.05331 c -1.12092,-1.12092 -0.4873,-4.9739 1.53087,-9.30911 l 2.07026,-4.44708 3.1309,1.88784 c 6.66537,4.01901 10.267,6.95718 10.0309,8.18311 -0.45974,2.38728 -14.88876,5.55942 -16.76293,3.68524 z m 7.89089,-2.91023 c 1.77225,-0.53098 3.22228,-1.45902 3.22228,-2.06232 0,-0.92805 -3.98968,-3.64017 -5.35488,-3.64017 -0.84271,0 -3.04277,5.05856 -2.54813,5.8589 0.6293,1.01824 0.77652,1.01333 4.68073,-0.15641 z m -41.25162,0.9091 c -4.78498,-3.76387 -7.0053,-11.69051 -4.09095,-14.60488 2.22018,-2.22017 11.58883,-6.33413 13.73235,-6.03013 3.45547,0.49008 2.93775,4.98823 -1.60932,13.98248 -2.19029,4.33247 -4.38775,7.99951 -4.88325,8.14899 -0.49549,0.14947 -1.91246,-0.52393 -3.14883,-1.49646 z m 4.83911,-9.73184 c 4.44698,-8.3747 4.06857,-9.2675 -2.23392,-5.27058 -5.90885,3.74729 -6.55541,6.09895 -2.93462,10.67375 1.19272,1.50697 1.8817,0.78672 5.16854,-5.40317 z m -39.96333,1.50154 c -0.91684,-0.3847 -2.54302,-1.64277 -3.61373,-2.79569 -2.32737,-2.50607 -1.81062,-3.94529 2.90228,-8.08327 8.72298,-7.65888 19.93247,-7.79649 12.56409,-0.15424 -1.62627,1.68674 -4.04695,4.94204 -5.37926,7.23403 -2.51069,4.31915 -3.64608,4.98549 -6.47338,3.79917 z m 7.88948,-12.39129 c -0.86458,-0.32613 -6.71182,3.33725 -8.21213,5.145 -0.91729,1.10525 -0.93145,1.60488 -0.0748,2.63708 0.91581,1.10348 1.585,0.68626 5.01316,-3.12559 2.17593,-2.41948 3.64913,-4.51491 3.27377,-4.65649 z m 44.73197,2.24526 c -4.89257,-5.40646 -6.51977,-8.77875 -4.76057,-9.86599 2.98037,-1.84196 19.4414,4.73915 19.90095,7.9564 0.29709,2.07991 -4.3289,5.94699 -7.99002,6.67921 -2.13135,0.42628 -2.93116,-0.10724 -7.15036,-4.76962 z m 9.00914,-0.68507 c 1.91091,-2.11153 1.27674,-2.95295 -3.43586,-4.5587 -6.86359,-2.33865 -7.71514,-1.55686 -3.51491,3.22694 2.91791,3.32332 4.81884,3.68752 6.95077,1.33176 z m -39.37756,1.82283 c -2.31297,-3.28293 -5.16652,-9.10061 -5.16652,-10.53328 0,-4.48101 18.06298,-10.00129 23.39247,-7.14904 2.41363,1.29175 1.9676,2.88305 -1.60011,5.70874 -1.76675,1.39928 -4.84066,4.71267 -6.83092,7.36306 -5.8261,7.75852 -7.14094,8.37743 -9.79492,4.61052 z m 8.08682,-8.44807 c 2.33746,-2.69815 4.24991,-5.37272 4.24991,-5.94347 0,-2.58644 -11.85481,1.68437 -12.36776,4.45559 -0.38753,2.0937 1.49645,6.39362 2.80129,6.39362 0.58667,0 2.97911,-2.20757 5.31656,-4.90574 z m -79.88171,-14.43029 c -4.94816,-2.44925 -11.12003,-8.41779 -10.74396,-10.39001 0.38262,-2.00652 3.29844,-2.36526 6.35933,-0.7824 1.34573,0.6959 4.56051,1.42394 7.14395,1.61788 7.15212,0.53688 8.50652,2.45998 5.98416,8.49685 -1.4556,3.48373 -3.3735,3.71573 -8.74348,1.05768 z m 5.59252,-3.20749 c 0.17378,-0.90243 -1.33235,-1.78312 -5.19973,-3.04051 -2.99442,-0.97356 -5.44439,-1.46435 -5.44439,-1.09066 0,1.11294 7.7599,5.90992 9.13262,5.64555 0.69676,-0.13419 1.37692,-0.81565 1.5115,-1.51438 z m 12.78839,0.38734 c -3.79451,-4.82394 -3.00794,-7.70496 2.55176,-9.34653 2.00297,-0.59141 5.29236,-2.38146 7.30977,-3.9779 2.0174,-1.59643 4.07192,-2.76985 4.56559,-2.60759 2.92149,0.96027 -0.0117,8.26656 -5.96333,14.85437 -3.45137,3.82025 -6.04653,4.15068 -8.46379,1.07765 z m 6.21001,-2.65865 c 1.88929,-1.5812 4.84713,-5.98545 4.35216,-6.48042 -0.17134,-0.17134 -1.98289,0.79718 -4.02567,2.15224 -2.04278,1.35508 -4.06293,2.58174 -4.48921,2.72593 -1.11433,0.37689 0.10042,3.08297 1.37403,3.06085 0.58741,-0.0102 1.84232,-0.66657 2.78869,-1.4586 z m -46.76021,-11.12839 c -2.48355,-2.34884 -5.46165,-5.88503 -6.618,-7.85819 -2.09325,-3.57186 -2.78126,-8.19049 -1.35168,-9.07401 0.41292,-0.25519 3.31971,0.61899 6.45953,1.94265 3.13983,1.32366 7.02151,2.66233 8.62598,2.97485 6.51976,1.26991 8.33488,2.17411 8.33488,4.15199 0,2.8642 -7.48548,12.13336 -9.79851,12.13336 -0.62514,0 -3.16862,-1.9218 -5.6522,-4.27065 z m 8.74478,-2.95498 c 0.96246,-1.22357 1.62303,-2.63009 1.46792,-3.12558 -0.32531,-1.03922 -10.07872,-4.50005 -12.93748,-4.59066 -1.91916,-0.0609 -1.91988,-0.0565 -0.41675,2.52104 2.00525,3.43851 6.59779,7.41988 8.55889,7.41988 0.86762,0 2.36495,-1.0011 3.32742,-2.22468 z m 19.20825,4.23909 c -7.88208,-4.48243 -10.42023,-8.7642 -6.15623,-10.38539 2.72777,-1.03709 18.70976,-3.14273 20.11715,-2.65044 1.50508,0.52645 1.24872,4.23403 -0.56963,8.23881 -3.30481,7.27855 -6.81595,8.53632 -13.39129,4.79702 z m 7.8808,-1.69865 c 1.88842,-0.72466 4.14534,-5.29277 3.12103,-6.31709 -1.11552,-1.11551 -13.68775,0.28893 -14.11367,1.57663 -0.33102,1.00078 3.40841,3.30361 7.27389,4.47944 1.14902,0.34952 2.15221,0.66771 2.22932,0.70712 0.0771,0.0394 0.74735,-0.16134 1.48943,-0.4461 z m 19.20757,-5.05119 c -1.37526,-0.73411 -3.92687,-2.45416 -5.67026,-3.82237 -4.28514,-3.36298 -3.87504,-5.21339 1.91955,-8.66126 2.52131,-1.50019 6.55707,-4.45506 8.96836,-6.56635 5.87006,-5.13976 7.2891,-4.80439 7.27034,1.71817 -0.0205,7.11364 -5.65482,18.81374 -9.00522,18.69993 -0.54026,-0.0184 -2.10752,-0.63401 -3.48277,-1.36812 z m 6.08209,-6.30829 c 2.00988,-3.33224 3.84752,-8.89333 3.16447,-9.57638 -0.7562,-0.7562 -12.16377,7.28657 -12.16377,8.57592 0,1.50933 3.28289,3.70931 5.53514,3.70931 1.17414,0 2.41603,-0.97113 3.46416,-2.70885 z m -52.51086,-5.87891 c -9.13206,-7.44428 -8.53478,-10.32098 2.29701,-11.06303 8.93396,-0.61204 14.04306,0.35977 14.38514,2.73621 0.31648,2.1987 -1.79365,6.53923 -4.67748,9.62155 -3.24694,3.47039 -6.60321,3.10841 -12.00467,-1.29473 z m 10.97304,-1.57128 c 3.35547,-3.60166 2.38019,-4.55891 -5.17221,-5.07656 -3.77943,-0.25906 -7.04801,-0.29465 -7.26354,-0.0791 -1.33013,1.33014 6.16188,6.93585 9.31017,6.96612 0.78438,0.008 2.1909,-0.80715 3.12558,-1.81043 z m 17.73097,-0.77059 c -3.91062,-1.9357 -7.01791,-5.29214 -6.32789,-6.83521 0.64696,-1.44678 16.36201,-8.95369 19.1615,-9.15326 3.20678,-0.2286 3.52186,2.21351 1.11567,8.64757 -3.36837,9.00695 -6.86547,10.84733 -13.94928,7.3409 z m 8.25683,-3.7876 c 2.53188,-2.88299 4.25959,-7.07755 3.30739,-8.02975 -0.62397,-0.62397 -1.32043,-0.50092 -2.36303,0.41749 -0.81306,0.71622 -3.44741,2.28897 -5.8541,3.49501 -2.40671,1.20603 -4.37581,2.70221 -4.37581,3.32486 0,0.62265 1.2014,1.71395 2.6698,2.42512 2.83482,1.37294 4.29193,1.01334 6.61575,-1.63273 z m -52.12229,-0.97684 c -0.23496,-0.38018 -0.84657,-3.28698 -1.35912,-6.45953 -1.04686,-6.47995 -0.42648,-14.16987 1.19333,-14.79143 1.46681,-0.56288 7.23272,2.14693 9.14659,4.29863 2.04692,2.30126 1.42555,5.43908 -2.44909,12.3676 -2.00225,3.58037 -3.45732,5.27599 -4.52749,5.27599 -0.86735,0 -1.76924,-0.31107 -2.00422,-0.69126 z m 5.38074,-8.81498 c 1.86639,-4.21927 1.46181,-6.1278 -1.45416,-6.85966 -2.98679,-0.74963 -3.5793,0.37484 -3.02539,5.7416 0.61072,5.9174 2.18299,6.30982 4.47955,1.11806 z m 23.70344,-1.44418 c -4.81866,-1.11296 -11.25209,-6.03881 -11.25209,-8.61534 0,-2.68059 1.50006,-3.37117 10.00185,-4.60461 13.10051,-1.90061 17.41908,-2.02348 17.99905,-0.51209 0.90765,2.36527 -0.41119,5.33997 -4.04532,9.12448 -5.40648,5.63019 -6.52285,6.0351 -12.70349,4.60756 z m 7.66431,-3.63501 c 2.16328,-1.51522 5.64995,-6.96792 4.92141,-7.69645 -0.28792,-0.28793 -2.86242,-0.0884 -5.72112,0.44341 -2.85869,0.53179 -6.97921,1.20475 -9.15669,1.49545 -4.21808,0.56314 -4.93672,1.69664 -2.48333,3.91693 3.40217,3.07893 9.40398,3.96699 12.43973,1.84066 z m 22.89144,-0.82412 c -2.8239,-3.01876 -5.13189,-6.13132 -5.12887,-6.91677 0.0127,-3.28324 6.4312,-9.93317 8.73449,-9.04931 1.60672,0.61655 4.57534,10.70677 4.81703,16.37284 0.17444,4.08957 0.008,4.61103 -1.54637,4.83304 -1.24055,0.17723 -3.21971,-1.33092 -6.87628,-5.2398 z m 5.43408,-3.19352 c -0.27139,-1.98014 -0.89146,-4.64709 -1.3779,-5.92653 -0.83065,-2.18477 -0.99763,-2.25147 -2.7454,-1.09677 -2.9132,1.92468 -2.80568,4.5818 0.31573,7.80228 1.50397,1.5517 3.08697,2.8213 3.51777,2.8213 0.44399,0 0.56953,-1.55955 0.2898,-3.60028 z m -57.5306,-10.28582 c -1.63634,-0.4638 -1.62668,-0.76798 0.33961,-10.70182 1.12636,-5.69043 1.92706,-6.88737 3.65052,-5.45702 2.56102,2.12547 8.79901,11.05453 8.79901,12.59493 0,0.85528 -0.68526,1.92181 -1.5228,2.37004 -1.88536,1.00901 -9.18829,1.7829 -11.26634,1.19387 z m 9.0803,-4.51839 c 0.6369,-1.03051 -3.57843,-5.76669 -5.1325,-5.76669 -1.16358,0 -2.3965,4.50885 -1.58983,5.81408 0.70152,1.13509 6.01468,1.09764 6.72233,-0.0473 z m 23.39241,-1.23135 c -1.01198,-2.63715 3.48399,-16.20419 5.3699,-16.20419 1.29831,0 9.11954,12.00849 9.11954,14.00188 0,1.14188 -7.62439,3.50139 -11.31418,3.50139 -1.65519,0 -2.86701,-0.49578 -3.17526,-1.29908 z m 8.76685,-3.3863 c 1.3595,-1.23034 1.38212,-1.56641 0.2526,-3.7507 -0.6824,-1.31961 -1.78407,-2.39928 -2.44814,-2.39928 -1.29164,0 -3.75069,4.07129 -3.75069,6.20978 0,1.74206 3.99964,1.70183 5.94623,-0.0598 z m -22.61144,0.35205 c -1.9101,-1.97164 -4.41953,-5.1849 -5.57651,-7.14056 -2.0166,-3.40875 -2.0456,-3.64423 -0.70145,-5.69567 2.86541,-4.37317 9.63775,-5.47784 14.41054,-2.35058 2.22136,1.45549 2.14962,2.54417 -0.77432,11.75289 -2.34526,7.38613 -3.16072,7.76669 -7.35826,3.43392 z m 5.70624,-6.84526 c 1.12201,-4.59717 1.10038,-4.99204 -0.33073,-6.03849 -2.18967,-1.60113 -4.81885,-1.3843 -7.34924,0.60611 -2.4543,1.93055 -2.23611,2.86014 1.89719,8.08263 2.99892,3.7892 4.36382,3.16366 5.78278,-2.65025 z"
       style="fill:#ff6600;fill-opacity:1"
       inkscape:connector-curvature="0" />
    <path
       transform="matrix(1.1196396,0,0,1.1996139,194,222.79108)"
       d="m 157.19344,149.69075 a 17.86289,16.672031 0 1 1 -35.72578,0 17.86289,16.672031 0 1 1 35.72578,0 z"
       sodipodi:ry="16.672031"
       sodipodi:rx="17.86289"
       sodipodi:cy="149.69075"
       sodipodi:cx="139.33055"
       id="path3842"
       style="fill:#009999;fill-opacity:1;stroke:none"
       sodipodi:type="arc" />
  </g>
</svg>
