<?xml version="1.0" encoding="UTF-8" standalone="no"?>
<!-- Created with Inkscape (http://www.inkscape.org/) -->

<svg
   xmlns:dc="http://purl.org/dc/elements/1.1/"
   xmlns:cc="http://creativecommons.org/ns#"
   xmlns:rdf="http://www.w3.org/1999/02/22-rdf-syntax-ns#"
   xmlns:svg="http://www.w3.org/2000/svg"
   xmlns="http://www.w3.org/2000/svg"
   xmlns:sodipodi="http://sodipodi.sourceforge.net/DTD/sodipodi-0.dtd"
   xmlns:inkscape="http://www.inkscape.org/namespaces/inkscape"
   id="svg3904"
   sodipodi:version="0.32"
   inkscape:version="0.48.4 r9939"
   width="744.09448"
   height="1052.3622"
   version="1.0"
   sodipodi:docname="green_black_2015.svg"
   inkscape:output_extension="org.inkscape.output.svg.inkscape"
   inkscape:export-filename="/src_install/lvee/2008/logo2008.png"
   inkscape:export-xdpi="303.60001"
   inkscape:export-ydpi="303.60001">
  <metadata
     id="metadata3909">
    <rdf:RDF>
      <cc:Work
         rdf:about="">
        <dc:format>image/svg+xml</dc:format>
        <dc:type
           rdf:resource="http://purl.org/dc/dcmitype/StillImage" />
        <dc:title></dc:title>
      </cc:Work>
    </rdf:RDF>
  </metadata>
  <defs
     id="defs3907">
    <inkscape:perspective
       sodipodi:type="inkscape:persp3d"
       inkscape:vp_x="0 : 526.18109 : 1"
       inkscape:vp_y="0 : 1000 : 0"
       inkscape:vp_z="744.09448 : 526.18109 : 1"
       inkscape:persp3d-origin="372.04724 : 350.78739 : 1"
       id="perspective2954" />
    <inkscape:perspective
       sodipodi:type="inkscape:persp3d"
       inkscape:vp_x="0 : 526.18109 : 1"
       inkscape:vp_y="0 : 1000 : 0"
       inkscape:vp_z="744.09448 : 526.18109 : 1"
       inkscape:persp3d-origin="372.04724 : 350.78739 : 1"
       id="perspective2464" />
    <inkscape:perspective
       id="perspective3853"
       inkscape:persp3d-origin="372.04724 : 350.78739 : 1"
       inkscape:vp_z="744.09448 : 526.18109 : 1"
       inkscape:vp_y="0 : 1000 : 0"
       inkscape:vp_x="0 : 526.18109 : 1"
       sodipodi:type="inkscape:persp3d" />
    <inkscape:perspective
       sodipodi:type="inkscape:persp3d"
       inkscape:vp_x="0 : 526.18109 : 1"
       inkscape:vp_y="0 : 1000 : 0"
       inkscape:vp_z="744.09448 : 526.18109 : 1"
       inkscape:persp3d-origin="372.04724 : 350.78739 : 1"
       id="perspective4938" />
    <inkscape:perspective
       id="perspective4936"
       inkscape:persp3d-origin="372.04724 : 350.78739 : 1"
       inkscape:vp_z="744.09448 : 526.18109 : 1"
       inkscape:vp_y="0 : 1000 : 0"
       inkscape:vp_x="0 : 526.18109 : 1"
       sodipodi:type="inkscape:persp3d" />
    <inkscape:perspective
       id="perspective2433"
       inkscape:persp3d-origin="372.04724 : 350.78739 : 1"
       inkscape:vp_z="744.09448 : 526.18109 : 1"
       inkscape:vp_y="0 : 1000 : 0"
       inkscape:vp_x="0 : 526.18109 : 1"
       sodipodi:type="inkscape:persp3d" />
    <inkscape:perspective
       id="perspective2509"
       inkscape:persp3d-origin="372.04724 : 350.78739 : 1"
       inkscape:vp_z="744.09448 : 526.18109 : 1"
       inkscape:vp_y="0 : 1000 : 0"
       inkscape:vp_x="0 : 526.18109 : 1"
       sodipodi:type="inkscape:persp3d" />
  </defs>
  <sodipodi:namedview
     inkscape:window-height="1056"
     inkscape:window-width="1871"
     inkscape:pageshadow="2"
     inkscape:pageopacity="0.0"
     guidetolerance="10.0"
     gridtolerance="10.0"
     objecttolerance="10.0"
     borderopacity="1.0"
     bordercolor="#666666"
     pagecolor="#ffffff"
     id="base"
     inkscape:zoom="0.73"
     inkscape:cx="104.99598"
     inkscape:cy="770.78626"
     inkscape:window-x="49"
     inkscape:window-y="24"
     inkscape:current-layer="svg3904"
     width="744.09449px"
     height="1052.3622px"
     showgrid="false"
     inkscape:window-maximized="1" />
  <g
     id="g4297">
    <path
       inkscape:connector-curvature="0"
       style="fill:#ffffff;fill-opacity:1"
       id="path2818-3"
       d="m 356.82256,547.11649 c 1.15982,-2.88536 4.54029,-11.33682 7.5126,-18.7816 4.6013,-11.52618 8.03963,-18.13767 8.03963,-15.46001 0,1.26162 -11.82718,34.61534 -13.15307,37.09247 -0.70462,1.31719 -2.00729,2.39483 -2.89474,2.39483 -1.34497,0 -1.26279,-0.87188 0.49558,-5.24569 z m 274.44011,2.76099 c 0.28018,-1.36672 0.83115,-4.46599 1.22444,-6.88701 l 0.71474,-4.40232 -2.31461,2.09463 c -3.84584,3.48042 -3.56794,1.40725 0.58797,-4.3893 2.15559,-3.00667 4.88235,-7.33049 6.05964,-9.60806 2.13248,-4.12667 5.2344,-5.93364 3.7916,-2.20876 -1.38958,3.58817 -5.84388,19.5735 -6.53912,23.468 -0.37922,2.12602 0.58254,0.15616 2.1375,-4.37794 4.12867,-12.03706 5.81233,-13.50765 8.81559,-7.69982 2.13718,4.13301 3.67721,3.76694 6.70052,-1.59275 2.70442,-4.7943 6.49214,-7.76973 8.77545,-6.89336 2.77912,1.06626 1.75059,4.89261 -2.15232,8.00673 -3.69085,2.9451 -4.20151,5.9311 -1.0144,5.9311 0.88988,0 3.9427,-1.29897 6.78412,-2.88626 L 670,535.54608 l -5.18133,5.09504 c -5.80838,5.71136 -9.68092,6.55945 -12.37691,2.71028 -1.32698,-1.89455 -1.99209,-2.11732 -3.23574,-1.08534 -1.81717,1.50822 -4.71932,0.6852 -5.59063,-1.58517 -1.1761,-3.06524 -2.79301,-1.4866 -5.17821,5.05519 -2.03154,5.57103 -2.8355,6.6261 -5.05005,6.6261 -2.14653,0 -2.53972,-0.46011 -2.12446,-2.4847 z m 26.63247,-16.33711 c 1.6773,-1.85375 1.72331,-2.134 0.2566,-1.57131 -0.98217,0.37685 -2.05695,1.3922 -2.38834,2.25641 -0.82503,2.15028 -0.27398,1.97306 2.13174,-0.6851 z M 70.152758,549.53275 c -0.364084,-0.94912 -0.05474,-5.29728 0.687686,-9.66328 0.742335,-4.36636 1.205672,-8.43516 1.029678,-9.04264 -0.585004,-2.01884 1.412914,-12.07325 3.014478,-15.1705 2.073457,-4.00966 4.840695,-4.01792 4.814522,-0.0114 -0.0082,1.67059 -1.244396,8.2555 -2.741031,14.63345 -3.334581,14.20953 -3.436538,16.56543 -0.71699,16.56543 3.311271,0 9.049223,-2.33966 8.382773,-3.4183 -0.884852,-1.43153 8.874917,-11.42561 10.298645,-10.54587 0.655562,0.40514 1.518157,2.22197 1.916838,4.03739 0.398708,1.81514 1.356594,3.30044 2.128675,3.30044 0.772091,0 3.907268,-2.73337 6.967088,-6.07429 8.64509,-9.43879 10.98102,-7.80039 6.29816,4.41733 -0.54606,1.42501 0.60799,0.73885 3.25124,-1.93228 4.79579,-4.84693 6.87835,-5.18095 8.60986,-1.38048 1.74077,3.82058 3.26711,3.46968 7.04163,-1.61917 2.93475,-3.95655 5.75427,-6.18291 6.67023,-5.26654 0.18942,0.18891 -0.35686,2.3128 -1.21393,4.71917 -3.23972,9.09579 -1.54217,10.71861 3.99931,3.82295 3.85408,-4.79575 5.37953,-5.49696 5.40602,-2.48474 0.007,1.06299 0.45472,2.6243 0.99004,3.46966 0.80092,1.26494 1.57329,1.10956 4.36331,-0.87706 2.80954,-2.00046 3.28278,-2.94944 2.76384,-5.54423 -0.76285,-3.81377 1.22755,-5.39747 3.07174,-2.44425 1.29293,2.06981 1.48188,2.0292 5.47378,-1.17913 7.14216,-5.73947 9.19116,-0.53834 2.64293,6.70966 -3.33227,3.68866 -3.64154,4.47105 -2.23013,5.64237 1.33181,1.10558 2.58987,0.80295 6.71655,-1.6156 6.9005,-4.04394 7.43976,-2.74631 0.86354,2.07799 -5.73851,4.20885 -9.63101,5.00378 -11.15642,2.27784 -0.82474,-1.47386 -1.21968,-1.40062 -2.98696,0.55201 -1.12022,1.2378 -2.54334,2.25067 -3.1624,2.25067 -0.61906,0 0.0174,-1.21724 1.41529,-2.70489 1.488,-1.58387 2.26446,-3.4251 1.87415,-4.44274 -0.55971,-1.45855 -1.40063,-1.20619 -5.23552,1.572 -3.6086,2.614 -5.00627,3.07543 -6.65116,2.19485 -1.14542,-0.61317 -2.08507,-1.71814 -2.08784,-2.45613 -0.003,-0.73802 -1.51883,0.27376 -3.36898,2.24763 -3.73902,3.9893 -6.31558,4.57729 -7.25787,1.65636 -0.34291,-1.06283 -0.83723,-2.62805 -1.09853,-3.47859 -0.35966,-1.1703 -1.16244,-0.90209 -3.305,1.1046 l -2.82993,2.65038 -2.42843,-3.03743 c -1.33565,-1.67017 -2.93012,-3.03687 -3.54329,-3.03687 -0.61316,0 -3.05592,1.98798 -5.42834,4.41739 -4.88239,5.00009 -7.84411,5.85088 -6.7284,1.93278 2.47943,-8.70754 2.40629,-8.81747 -2.71472,-4.08987 -5.464743,5.04524 -8.310347,5.49779 -10.08415,1.60488 -0.691866,-1.51835 -1.721013,-2.76092 -2.286955,-2.76092 -2.206449,0 -5.794813,3.9959 -5.794813,6.45287 0,2.0261 -0.958101,2.92078 -4.417451,4.12468 -5.887454,2.04897 -10.401091,1.98681 -11.222763,-0.15451 z m 92.906722,-16.59293 c 1.02942,-1.57121 1.58654,-3.1417 1.23823,-3.4905 -0.90529,-0.90521 -5.0648,3.0876 -5.0648,4.86187 0,2.37016 1.79706,1.72623 3.82657,-1.37137 z m 30.53258,16.38529 c 0.14438,-1.06287 -0.59552,-4.66585 -1.64466,-8.00649 -1.04894,-3.34089 -2.19662,-10.32008 -2.55056,-15.50994 -0.55021,-8.06773 -0.36331,-9.71562 1.28981,-11.36896 1.06347,-1.06353 2.37826,-1.78528 2.92211,-1.60406 0.54368,0.18142 1.11739,6.2913 1.27454,13.57812 0.15724,7.28643 0.80965,14.14812 1.4497,15.24821 0.99383,1.70815 1.7066,0.82243 4.88766,-6.07423 2.04827,-4.44069 4.00703,-9.80794 4.35281,-11.92726 0.42036,-2.57692 1.31051,-3.98496 2.68752,-4.24997 1.8254,-0.35146 1.96928,0.0861 1.26834,3.85333 -0.88137,4.73604 -8.94164,23.05445 -11.46717,26.06125 -0.89267,1.06292 -2.32287,1.93283 -3.17812,1.93283 -0.85511,0 -1.43663,-0.86991 -1.29198,-1.93283 z m 197.47882,0.18223 c -1.17881,-1.42056 -1.21149,-3.90696 -0.17373,-13.19594 1.53775,-13.75934 3.34598,-18.50591 8.19183,-21.49855 4.80182,-2.96547 11.38624,-2.64594 11.38624,0.55285 0,1.82687 -0.6173,2.14702 -3.5685,1.85164 -7.25016,-0.72571 -7.89828,5.5e-4 -10.82084,12.12595 l -0.70695,2.93402 4.86204,-1.74873 c 5.13863,-1.84763 8.57797,-1.35381 8.57797,1.23143 0,1.0881 -1.83439,1.70636 -6.11328,2.06147 -3.36214,0.27873 -6.53424,0.96118 -7.04914,1.517 -0.51545,0.55583 -1.27357,3.37078 -1.68531,6.25622 l -0.74903,5.24569 3.6571,-0.0475 c 2.01117,-0.0262 5.52034,-0.71358 7.79809,-1.52647 3.24496,-1.15821 4.14157,-1.18096 4.14157,-0.10448 0,1.44313 -10.93029,6.09706 -14.32007,6.09706 -1.08644,0 -2.62906,-0.78795 -3.42799,-1.75058 l 0,4e-5 z m 154.61023,0 c -1.17863,-1.42056 -1.2113,-3.90696 -0.17345,-13.19594 1.53778,-13.75934 3.34628,-18.50591 8.19205,-21.49855 4.80162,-2.96547 11.38597,-2.64594 11.38597,0.55285 0,1.82687 -0.6172,2.14702 -3.56821,1.85164 -7.25043,-0.72571 -7.89834,5.5e-4 -10.82106,12.12595 l -0.70726,2.93402 4.86275,-1.74873 c 5.13835,-1.84763 8.57727,-1.35381 8.57727,1.23143 0,1.0881 -1.83398,1.70636 -6.11267,2.06147 -3.36218,0.27873 -6.53448,0.96118 -7.04954,1.517 -0.51493,0.55583 -1.27352,3.37078 -1.68536,6.25622 l -0.74875,5.24569 3.65682,-0.0475 c 2.01117,-0.0262 5.52051,-0.71358 7.79824,-1.52647 3.24513,-1.15821 4.14126,-1.18096 4.14126,-0.10448 0,1.44313 -10.92992,6.09706 -14.31983,6.09706 -1.08646,0 -2.629,-0.78795 -3.42823,-1.75058 l 0,4e-5 z m -106.59045,-3.21665 c -0.79712,-3.1748 0.1673,-6.50536 1.62303,-5.60575 0.54369,0.33634 1.20645,-0.87478 1.47291,-2.6907 0.26667,-1.81617 0.10422,-3.30174 -0.3614,-3.30174 -0.4652,0 -3.14259,1.98773 -5.94964,4.41717 -2.80736,2.42976 -5.34607,4.4177 -5.64174,4.4177 -0.29585,0 -1.71317,-1.26829 -3.14973,-2.81828 -2.56857,-2.77179 -2.6451,-2.78352 -4.6409,-0.70217 -4.32823,4.51487 -10.28166,5.70462 -8.76494,1.75202 0.7235,-1.88551 -0.63054,-2.0191 -2.41157,-0.23802 -0.71874,0.71874 -1.58262,1.03154 -1.9193,0.69447 -0.79356,-0.79353 14.71476,-15.18529 17.97388,-16.67973 4.61792,-2.11746 4.13882,0.44328 -0.95248,5.09161 -2.78176,2.53927 -5.75619,5.56829 -6.61043,6.73075 -1.43064,1.94707 -1.37816,2.02034 0.66833,0.9303 1.22172,-0.65032 3.16223,-2.22279 4.31255,-3.49386 2.80941,-3.10455 5.06221,-2.93321 5.06221,0.38488 0,4.62962 1.82948,4.1649 8.71987,-2.21454 3.90898,-3.619 7.1994,-5.85024 7.94677,-5.38824 1.30595,0.80696 0.85011,8.80806 -0.75163,13.18973 -1.3447,3.67828 4.6161,-2.29076 9.6496,-9.66325 l 4.33518,-6.35002 -5.01038,0 c -4.27467,0 -5.01088,-0.32479 -5.01088,-2.20888 0,-1.93765 0.73621,-2.20881 5.99966,-2.20881 5.02958,0 6.11295,-0.35701 6.70051,-2.20876 0.69259,-2.18233 2.76087,-3.1128 2.76087,-1.24225 0,0.53155 0.31066,2.51932 0.69017,4.41743 0.53658,2.68286 0.3076,3.45127 -1.02899,3.45127 -1.24063,0 -2.23592,2.32279 -3.57536,8.34265 -1.02082,4.58829 -1.54952,8.64879 -1.17522,9.02325 1.03741,1.03763 6.15979,-4.18021 8.40956,-8.56728 2.12416,-4.14039 6.70825,-7.34778 8.72243,-6.10284 2.31691,1.43205 1.18451,4.96047 -2.54772,7.93872 -3.86689,3.08558 -4.16753,5.9311 -0.62665,5.9311 2.61736,0 8.37519,-4.88402 10.16838,-8.62513 1.86722,-3.8962 4.83265,-4.30925 8.20338,-1.14235 2.39945,2.25427 2.66132,3.21001 2.07003,7.55431 l -0.67677,4.97406 7.71778,-8.00663 c 4.24455,-4.40395 8.2089,-8.00696 8.80959,-8.00696 2.51821,0 2.37613,2.9923 -0.49853,10.49175 -0.54574,1.42459 0.60813,0.73844 3.25135,-1.93274 4.95636,-5.0091 6.71574,-5.17044 8.96391,-0.8231 1.67212,3.23331 1.78658,3.27198 4.48015,1.50683 4.40791,-2.88769 4.25808,-1.03874 -0.23527,2.9065 l -4.10917,3.60788 -2.31954,-2.90894 c -1.27533,-1.59962 -2.82112,-2.90874 -3.43425,-2.90874 -0.61301,0 -3.05599,1.98793 -5.42815,4.41743 -4.88256,5.00011 -7.84412,5.85086 -6.72856,1.93279 0.38931,-1.3667 1.02054,-3.97588 1.40323,-5.79791 0.68225,-3.25023 0.58109,-3.20618 -5.33028,2.34132 -5.53816,5.19633 -10.309,7.98413 -11.54572,6.74743 -0.27494,-0.27485 0.008,-1.84342 0.63522,-3.48579 3.0198,-7.94259 -0.44775,-12.31289 -5.07689,-6.39793 -3.20815,4.09901 -9.21028,7.97338 -12.35347,7.97338 -1.26056,0 -3.06,-1.09687 -3.99875,-2.43707 l -1.70738,-2.4373 -3.80461,3.68762 c -5.39302,5.22732 -7.7201,4.12153 -7.00432,-3.32759 l 0.53631,-5.58157 -4.53877,4.32182 c -10.82399,10.30597 -11.30733,10.55339 -12.36747,6.3287 z m 34.37601,-12.75032 c 1.67744,-1.85375 1.7233,-2.134 0.2566,-1.57131 -0.98197,0.37685 -2.05666,1.3922 -2.38812,2.25641 -0.82524,2.15028 -0.27401,1.97306 2.13152,-0.6851 z m -200.10539,12.69518 c -0.36072,-0.94016 -0.39071,-3.68485 -0.0662,-6.09929 l 0.5886,-4.38991 -3.80167,3.33829 c -4.49157,3.94356 -7.28432,4.22504 -9.45709,0.95303 l -1.58359,-2.38531 -2.14031,2.23536 c -1.17695,1.22973 -3.343,2.86295 -4.81338,3.62964 -2.2648,1.18076 -2.87566,1.11732 -3.99608,-0.41478 -1.17284,-1.60396 -1.47837,-1.62045 -2.70331,-0.14488 -0.75947,0.91523 -3.23632,2.21972 -5.50425,2.89924 -5.02309,1.50502 -8.86667,-0.0956 -8.86667,-3.69408 0,-1.85952 -0.29456,-2.09613 -1.32519,-1.0653 -2.0868,2.08679 -5.9857,1.55136 -7.71967,-1.05989 l -1.58392,-2.38531 -2.13996,2.23536 c -4.42238,4.61944 -10.41577,5.88292 -8.87622,1.87122 0.72347,-1.88551 -0.63054,-2.0191 -2.41174,-0.23802 -0.71869,0.71874 -1.58245,1.03154 -1.91922,0.69447 -0.79378,-0.79353 14.7148,-15.18529 17.97395,-16.67973 4.61786,-2.11746 4.13873,0.44328 -0.95253,5.09161 -2.78177,2.53927 -5.75636,5.56829 -6.61042,6.73075 -1.4306,1.94707 -1.37807,2.02034 0.66829,0.9303 1.22165,-0.65032 3.16246,-2.22279 4.31253,-3.49386 2.80975,-3.10455 5.06236,-2.93321 5.06236,0.38488 0,1.48257 0.37269,2.91943 0.8281,3.19298 0.45564,0.27327 4.49785,-1.93361 8.98284,-4.90465 4.48508,-2.97079 8.58497,-5.40175 9.11116,-5.40175 2.55755,0 0.42728,3.55583 -4.06108,6.77902 -3.57476,2.56757 -4.92442,4.25432 -4.69352,5.86682 0.53447,3.73399 4.38953,3.27152 9.18469,-1.10219 9.78158,-8.92203 17.29349,-14.85655 18.80564,-14.85655 2.68244,0 1.79962,1.94325 -2.30585,5.07464 -2.14781,1.63822 -4.95578,4.4544 -6.24022,6.2581 -2.1615,3.03529 -2.17794,3.19565 -0.22415,2.14978 1.16126,-0.62157 3.05242,-2.17001 4.2026,-3.44108 2.80959,-3.10455 5.06238,-2.93321 5.06238,0.38488 0,1.48257 0.38648,2.93479 0.85908,3.22658 1.35758,0.83899 5.13758,-2.7029 8.97263,-8.40723 l 3.52662,-5.24567 -5.02266,0 c -4.28654,0 -5.02282,-0.32398 -5.02282,-2.20888 0,-1.93765 0.73628,-2.20881 5.99966,-2.20881 5.02977,0 6.11318,-0.35701 6.70067,-2.20876 0.69256,-2.18233 2.76087,-3.1128 2.76087,-1.24225 0,0.53155 0.31072,2.51932 0.69017,4.41743 0.53654,2.68286 0.30756,3.45127 -1.02905,3.45127 -1.24051,0 -2.23596,2.32279 -3.57526,8.34265 -1.02097,4.58829 -1.54018,8.65832 -1.15428,9.04447 0.3861,0.38578 3.12761,-1.68739 6.09269,-4.60784 2.96472,-2.92051 5.89679,-4.99678 6.51553,-4.61431 0.61884,0.38229 1.45149,2.1804 1.84999,3.99584 0.39883,1.81514 1.29226,3.30042 1.98564,3.30042 0.69346,0 4.05705,-2.76739 7.47474,-6.14943 5.86032,-5.7991 6.42267,-6.09513 9.88037,-5.19906 5.24351,1.35873 6.39211,3.71858 4.12453,8.474 -3.37902,7.08644 -12.14948,10.28063 -14.67605,5.34488 l -1.27943,-2.49939 -2.82605,2.22319 c -3.77281,2.9679 -6.12661,2.80232 -7.64828,-0.53783 -0.69191,-1.51834 -1.60533,-2.76094 -2.02945,-2.76094 -0.42435,0 -3.03023,1.98789 -5.79042,4.4177 -5.43627,4.78551 -7.15037,5.35401 -8.16554,2.70818 z m 37.77164,-6.5234 c 3.12821,-3.12901 3.42176,-4.81632 0.99799,-5.74652 -2.13792,-0.82035 -7.12223,3.68719 -7.12223,6.441 0,2.83658 2.92443,2.50503 6.12424,-0.69448 z m 288.17865,6.29979 c 0.4285,-1.06294 1.04277,-3.78724 1.36526,-6.05385 0.88095,-6.19551 -1.87265,-6.55692 -7.20906,-0.94749 -4.77177,5.01638 -6.93461,5.53329 -10.06357,2.40454 -2.08016,-2.08005 -2.1567,-2.06234 -5.03837,1.17181 -3.37733,3.79044 -6.28117,3.75492 -7.18812,-0.0876 -0.77847,-3.29849 -2.54655,-4.00865 -4.40486,-1.76957 -0.77292,0.93149 -1.88003,1.69333 -2.45985,1.69333 -0.99313,0 8.33344,-11.7641 10.71182,-13.51166 1.94968,-1.43222 3.02078,-0.90164 2.19543,1.0876 -1.76815,4.26097 -2.98985,10.34005 -2.22777,11.08328 0.4447,0.43371 2.63512,-1.32319 4.86791,-3.90478 4.43024,-5.12175 5.64712,-5.71422 5.67285,-2.76091 0.007,1.06298 0.44387,2.60609 0.96547,3.42929 1.27323,2.0095 6.18781,-1.13134 8.13818,-5.20015 1.8454,-3.85079 4.82226,-4.24875 8.1802,-1.09436 2.41377,2.26781 2.65988,3.18426 2.02838,7.55437 l -0.71848,4.974 8.19147,-8.08324 c 7.86441,-7.76054 8.33769,-8.04523 11.86248,-7.1317 2.01927,0.52307 4.20956,1.80541 4.8667,2.84973 1.86006,2.9537 -2.27943,9.69598 -7.5254,12.25731 -4.83384,2.35977 -7.3989,1.57419 -8.37625,-2.56578 l -0.58174,-2.46435 -2.75632,2.94976 c -4.80451,5.14213 -12.05571,7.98899 -10.49636,4.12089 l 0,-6e-5 z m 24.35552,-6.29979 c 3.12864,-3.12901 3.42167,-4.81632 0.99786,-5.74652 -2.13783,-0.82035 -7.12206,3.68719 -7.12206,6.441 0,2.83658 2.92429,2.50503 6.1242,-0.69448 z m -301.64316,4.64343 c 0.38935,-1.3667 1.02733,-3.95614 1.41771,-5.75439 l 0.71035,-3.26972 -4.30155,3.5458 c -2.36567,1.95017 -4.73506,3.54552 -5.26509,3.54552 -1.13464,0 9.83995,-12.26521 12.20771,-13.64288 3.62152,-2.10725 3.92198,1.60801 0.79047,9.77776 -0.54582,1.42459 0.60805,0.73844 3.25135,-1.93274 4.95635,-5.0091 6.71565,-5.17044 8.96387,-0.8231 1.67204,3.23331 1.78655,3.27198 4.48021,1.50683 4.40786,-2.88769 4.25805,-1.03874 -0.23538,2.9065 l -4.10908,3.60788 -2.31946,-2.90894 c -1.27554,-1.59962 -2.8212,-2.90874 -3.43446,-2.90874 -0.61293,0 -3.05588,1.98793 -5.42804,4.41743 -4.88249,5.00011 -7.84414,5.85086 -6.72861,1.93279 z M 92.971322,523.15897 c 0,-1.53682 4.006158,-5.0324 5.76754,-5.0324 1.485618,0 0.933349,3.08083 -0.876793,4.89101 -2.173064,2.17292 -4.890747,2.25148 -4.890747,0.14139 z m 195.471928,0 c 0,-1.53682 4.00613,-5.0324 5.76757,-5.0324 1.48565,0 0.9332,3.08083 -0.87694,4.89101 -2.17319,2.17292 -4.89063,2.25148 -4.89063,0.14139 z" />
    <path
       inkscape:connector-curvature="0"
       id="path3414"
       d="m 185.26486,483.8735 c -1.46375,-1.76372 -1.48399,-2.77207 -0.0892,-4.45252 1.40504,-1.69299 1.24586,-3.78975 -0.72123,-9.50033 -4.81354,-13.97356 -6.7941,-23.51008 -8.97634,-43.22132 -2.17058,-19.60605 -2.09345,-21.73782 1.02234,-28.25574 1.49433,-3.12605 9.91479,-7.40943 11.48296,-5.84125 0.38796,0.38796 0.85675,13.21643 1.04178,28.50771 0.18498,15.2913 0.7185,29.17042 1.18558,30.84246 0.46704,1.67206 1.34992,5.09217 1.96199,7.60024 1.844,7.55649 2.40549,7.47805 7.04625,-0.98431 7.69853,-14.03808 14.57593,-31.21848 15.66411,-39.13038 1.0948,-7.9603 2.3402,-9.74723 8.00317,-11.4833 2.81919,-0.86429 3.42012,-0.46814 3.42012,2.25462 0,7.44509 -5.35439,22.99927 -14.54069,42.23981 -5.3539,11.21362 -9.39777,20.93294 -8.98641,21.59852 0.90441,1.46339 -11.22886,12.10587 -13.80167,12.10587 -1.0012,0 -2.67188,-1.02603 -3.71266,-2.28008 z m -62.70218,-0.88179 c -3.26406,-1.90113 -3.38038,-7.1566 -0.51871,-23.43896 2.55523,-14.53899 3.39127,-24.61499 2.14572,-25.86053 -1.27141,-1.2714 4.25332,-26.11899 7.36711,-33.13367 3.46187,-7.79883 9.81674,-11.26578 11.69209,-6.37868 0.95505,2.48875 -2.89945,24.20147 -8.87429,49.9897 -2.10739,9.0958 -3.83163,19.18514 -3.83163,22.4207 0,5.41635 0.33151,5.87895 4.18014,5.83325 2.29909,-0.0274 7.94228,-1.373 12.54042,-2.99046 4.59817,-1.61749 8.87331,-2.96319 9.50036,-2.99045 2.55722,-0.11126 0.9133,8.15064 -2.15052,10.80789 -6.72353,5.83122 -25.97528,9.2798 -32.05069,5.74121 z m 113.81834,-2.07498 c -1.75703,-2.68154 -2.53114,-6.60658 -2.3511,-11.92089 0.43599,-12.86978 2.85651,-32.89332 5.55147,-45.92422 2.32862,-11.2596 3.09489,-12.74141 10.34481,-20.00411 8.51048,-8.52549 14.11288,-10.83124 25.67296,-10.56598 8.36507,0.19194 11.01455,2.71708 9.43874,8.99562 -0.97152,3.87083 -1.2511,3.95604 -10.4842,3.19488 -5.21733,-0.43006 -11.53812,-0.1862 -14.04621,0.54196 -4.1971,1.21851 -4.89226,2.46541 -8.73111,15.66096 -5.07249,17.4359 -4.95716,19.63163 0.79314,15.09848 2.4654,-1.94358 8.3809,-4.04103 14.21571,-5.04049 8.91559,-1.52719 10.19959,-1.42953 11.90697,0.90542 1.05253,1.43945 1.60111,4.25259 1.21901,6.25147 -0.63794,3.33714 -1.45943,3.6496 -10.04923,3.82241 -11.19029,0.2251 -20.44749,2.21046 -23.16561,4.96827 -1.09065,1.10655 -2.4568,7.31308 -3.0359,13.79228 l -1.05291,11.78036 7.2105,0 c 7.75833,0 24.97046,-3.90285 27.334,-6.19799 2.07281,-2.01279 3.87614,-1.72764 3.87614,0.61287 0,5.75453 -19.04194,15.57519 -33.10861,17.0754 -8.43651,0.89975 -9.06073,0.73493 -11.53857,-3.0467 z m 68.40237,0 c -1.75702,-2.68154 -2.53112,-6.60658 -2.3511,-11.92089 0.43601,-12.86978 2.85652,-32.89332 5.55149,-45.92422 2.32861,-11.2596 3.0949,-12.74141 10.3448,-20.00411 8.51048,-8.52549 14.11289,-10.83124 25.67293,-10.56598 8.36509,0.19194 11.0146,2.71708 9.43877,8.99562 -0.97152,3.87083 -1.25111,3.95604 -10.48421,3.19488 -5.21731,-0.43006 -11.53811,-0.1862 -14.0462,0.54196 -4.1971,1.21851 -4.89225,2.46541 -8.73111,15.66096 -5.07248,17.4359 -4.95714,19.63163 0.79313,15.09848 2.46542,-1.94358 8.38091,-4.04103 14.21571,-5.04049 8.91561,-1.52719 10.19959,-1.42953 11.90698,0.90542 1.05255,1.43945 1.60111,4.25259 1.21901,6.25147 -0.63796,3.33714 -1.45942,3.6496 -10.04926,3.82241 -11.19026,0.2251 -20.44746,2.21046 -23.1656,4.96827 -1.09062,1.10655 -2.4568,7.31308 -3.0359,13.79228 l -1.05291,11.78036 7.2105,0 c 7.75834,0 24.97048,-3.90285 27.33404,-6.19799 2.07277,-2.01279 3.87612,-1.72764 3.87612,0.61287 0,5.75453 -19.04196,15.57519 -33.10861,17.0754 -8.43651,0.89975 -9.06075,0.73493 -11.53858,-3.0467 z m 230.9937,2.42334 c -0.50699,-0.82036 -0.31823,-3.08798 0.41949,-5.03918 4.19193,-11.08748 11.06358,-65.10958 8.28194,-65.10958 -0.78729,0 -6.68982,4.84525 -13.11672,10.76723 -9.72873,8.96438 -11.6853,10.2123 -11.6853,7.45298 0,-1.91242 5.38136,-9.84224 12.72249,-18.7475 17.02399,-20.65122 18.23679,-21.67959 23.00491,-19.50707 4.30179,1.96001 4.32252,2.15228 2.24291,20.7944 -2.32421,20.83464 -9.40652,54.50645 -12.94928,61.56548 -2.58142,5.1435 -7.76631,9.69064 -8.92044,7.82324 z m 43.57086,-0.13166 c -5.08149,-1.2647 -9.5097,-4.14641 -9.5097,-6.18864 0,-0.63874 3.2491,-1.62183 7.22025,-2.18463 18.20317,-2.5799 31.30592,-8.46382 28.59951,-12.84292 -0.52764,-0.85373 -6.75866,-5.90468 -13.84674,-11.22434 -21.73235,-16.31033 -24.25872,-22.68666 -15.9486,-40.2526 3.1245,-6.60464 5.71234,-9.97646 8.45803,-11.02035 5.49511,-2.08923 35.6793,-1.97682 35.6793,0.13286 0,0.90034 -1.91655,3.55353 -4.25904,5.89601 -3.41017,3.41016 -6.21256,4.48192 -14.0605,5.3774 -11.85041,1.35226 -14.40661,2.57845 -17.38598,8.33986 -4.98212,9.63435 -2.92498,12.98007 16.21107,26.36533 16.64777,11.64484 20.07517,18.81349 13.18366,27.57463 -5.97589,7.59709 -23.52115,12.72013 -34.34126,10.02731 z M 403.12881,480.8617 c -10.29831,-4.74385 -8.86122,-8.77885 10.41469,-29.2419 15.95671,-16.93946 24.05013,-27.91517 24.05013,-32.61502 0,-1.62862 -2.4041,-3.93808 -6.01962,-5.78258 -10.59659,-5.40593 -21.86761,-3.33527 -24.60615,4.52054 -1.89697,5.44162 -3.55644,5.81185 -5.14863,1.14874 -5.23616,-15.3358 2.33639,-23.56971 20.14703,-21.90654 11.87171,1.10857 19.63042,4.63964 22.53456,10.25566 5.26054,10.17269 1.62824,18.62263 -18.30929,42.59332 -9.75271,11.72557 -13.85515,17.75193 -12.80285,18.80682 0.85168,0.85379 9.04025,1.78385 18.19691,2.06682 9.15663,0.28299 16.64843,1.08915 16.64843,1.7915 0,1.64956 -4.01904,5.65771 -7.58866,7.56814 -5.06339,2.7098 -32.11498,3.28267 -37.51655,0.79443 z m 62.85062,-2.27968 c -7.31904,-6.42619 -9.23207,-13.78411 -8.10913,-31.1896 0.92403,-14.32229 7.5788,-39.9699 12.20153,-47.02508 3.03269,-4.62841 6.20907,-5.16361 5.08269,-0.8564 -1.06889,4.08739 -0.11924,3.84657 5.99286,-1.52004 2.85655,-2.50806 6.57195,-4.56014 8.25644,-4.56014 5.87889,0 11.69859,4.43155 15.13094,11.52175 3.01295,6.22396 3.30562,8.57495 2.51241,20.1821 -2.16868,31.73398 -14.35456,55.47429 -29.5189,57.50827 -5.18856,0.69591 -6.76076,0.14303 -11.54884,-4.06086 z m 16.31676,-7.02582 c 3.89499,-1.49465 12.81917,-17.66006 15.47737,-28.03599 6.07173,-23.70023 -3.40937,-41.57332 -18.28928,-34.47761 -4.14102,1.9747 -5.63881,3.89502 -7.04205,9.02865 -4.42602,16.19234 -3.9289,43.48713 0.92704,50.89817 2.33484,3.5634 4.64064,4.23157 8.92692,2.58678 z"
       style="fill:#009933;fill-opacity:1" />
    <path
       sodipodi:nodetypes="cssscccscccsssccccsccsssccssccssccccsssccssccssccssccsssccssccsssccsssssccsssccsssc"
       style="fill:#009933;fill-opacity:1"
       d="m 420.49227,359.22616 c 1.50439,-3.12974 6.60043,-5.53562 25.61832,-14.86157 13.52272,-6.63125 15.22087,-4.11044 12.41847,-2.14355 -3.55727,2.49668 -3.17727,1.87916 -25.51555,13.2122 -8.09911,4.10895 -10.14235,4.96666 -12.52124,3.79292 z m 51.37541,2.4369 c 1.19086,-0.96298 7.42933,-4.95555 8.74948,-5.86929 4.35291,-2.09893 5.01156,-1.18447 3.78525,0.59232 -1.69745,2.45948 -8.3689,6.92242 -11.64146,9.04069 -5.60949,3.48631 -7.13103,0.89299 -0.89327,-3.76372 z m 66.27373,-2.51314 c -36.81556,-12.78411 1.95099,1.14159 -36.28921,-13.05003 -9.23661,-3.42788 -6.81124,-7.99925 8.19703,-2.29617 27.29216,10.37092 43.4666,15.09269 43.4666,17.41655 0,1.20652 -2.5956,2.64456 -15.37442,-2.07035 z m -158.0203,-17.65848 c 2.50641,-1.85683 30.67333,-16.9115 36.06835,-17.95478 4.82052,-0.7137 2.87209,0.86533 2.1792,2.00764 -1.88682,1.98717 -20.67479,11.38262 -25.14623,13.44629 -10.57971,4.88274 -17.42811,6.92988 -13.10132,2.50085 z m 84.36721,-13.53386 c -40.34928,-18.70975 -57.86224,-29.03679 -49.24158,-29.03679 2.24149,0 62.37853,29.48116 65.02791,31.87883 1.09711,0.99288 1.99476,2.22782 1.99476,2.74431 0,2.00035 -4.40264,0.61718 -17.78109,-5.58635 z m 41.45417,2.29948 c -1.74313,-0.93866 -6.11298,-13.84016 -6.15781,-17.44434 -0.0359,-3.01783 2.42819,-3.14235 5.72987,8.08609 2.15656,7.33404 2.69128,10.77753 0.42794,9.35825 z M 470.326,314.86793 c -3.19042,-5.77081 -5.57457,-16.76745 -6.16393,-20.57497 -0.69813,-4.51047 2.04077,-3.10365 2.68856,-1.97815 1.42329,2.47283 6.77148,19.14018 6.31669,23.0759 -0.32422,1.3909 -0.57125,0.929 -1.20429,0.7759 -0.54568,-0.17558 -1.16856,-0.96872 -1.63703,-1.29868 z m -35.5213,-25.29887 c -3.18094,-8.08114 -7.44611,-20.10058 -7.44611,-23.19015 0,-3.33205 1.04865,-3.73415 3.26135,-0.35712 2.10574,3.21377 7.41564,18.81213 8.53312,24.65684 0.9455,4.94522 -1.67571,4.54743 -4.34836,-1.10957 z M 259.42215,242.92373 c -2.17881,-1.35364 1.10264,-2.31958 9.16143,-5.0247 45.61063,-15.31025 45.40833,-8.0537 9.14395,1.39615 -6.81356,1.77548 -17.70211,5.38966 -18.30538,3.62855 z m -32.48496,-22.05201 c 0.52488,-1.57467 14.69098,-5.23462 22.22788,-7.42215 37.9888,-11.02587 48.4246,-8.17226 6.1194,2.90759 -10.63537,2.78543 -29.96025,8.48001 -28.34728,4.51456 z m 86.30166,-8.17039 c -8.7946,-7.34768 -33.2292,-36.34053 -33.2292,-39.42808 0,-3.70746 9.02756,4.86895 26.39206,25.07309 14.49732,16.86806 17.57215,23.32387 6.83714,14.35499 z m 13.57741,-19.69975 c 3.17624,-14.56319 10.11017,-36.92608 11.33459,-39.78723 4.25569,-9.94448 3.63909,-0.2148 2.97678,2.34944 -7.46506,28.90199 -9.83265,38.04064 -11.98937,41.26819 -2.26672,3.39218 -3.62692,2.56306 -2.322,-3.8304 z M 196.66084,192.3234 c 0,-2.49998 45.00898,-13.45077 55.01021,-13.38409 10.93364,0.0729 -3.2557,4.59379 -36.48456,11.62444 -14.03463,2.9695 -18.52565,3.39606 -18.52565,1.75965 z m 102.10949,-28.73076 c 0.88086,-5.50863 9.90404,-41.6395 14.84421,-58.58617 3.66655,-12.577682 6.86564,-16.878753 6.1174,-8.691984 -0.62272,6.813404 -14.04223,61.498214 -17.86591,70.677834 -2.10246,5.04744 -3.93697,1.8613 -3.0957,-3.39968 z m -33.14422,-6.05587 c -16.70917,-22.93691 6.47975,10.88483 -19.45393,-28.37577 -10.44992,-15.81998 -12.08295,-22.47426 -6.34221,-18.05324 2.0599,1.58634 2.12176,1.2705 10.78268,15.55847 3.80609,6.27896 9.81532,15.51521 12.75314,20.40502 5.16496,8.5967 6.95212,11.82325 5.05994,11.82325 -0.49686,0 -0.78398,1.40392 -2.79962,-1.35773 z m -90.08163,-8.66813 c -10.84424,-2.13423 -3.12392,-3.53478 0.85316,-3.70749 19.75833,-0.85136 60.67455,-0.11573 64.43806,1.10234 7.8922,2.55439 1.80257,3.231 -25.62135,3.08021 -16.65586,-0.0916 -28.72507,0.39715 -39.66987,-0.47506 z m 96.68593,-27.20778 c 0,-3.04695 10.82221,-48.488906 14.62174,-61.395987 2.54007,-8.62869 4.27066,-10.379385 4.27066,-4.320272 0,8.037889 -11.64403,58.669879 -14.97299,65.107409 -2.126,4.11124 -3.91941,4.38984 -3.91941,0.60885 z"
       id="path3857-3"
       inkscape:connector-curvature="0" />
    <path
       id="path2468-6"
       d="m 309.18015,339.06502 c 0,-2.05471 6.65199,-17.2453 8.25268,-18.84602 1.33319,-1.33318 2.22198,-1.41424 4.43764,-0.40471 2.99412,1.36422 9.97731,12.4709 8.66563,13.78258 -0.43951,0.43953 -4.18559,2.07379 -8.3246,3.63172 -7.65068,2.87971 -13.03135,3.63796 -13.03135,1.83643 z m 13.80963,-6.03014 c 1.89056,-1.38242 1.90151,-1.6794 0.18387,-5.00095 -1.00435,-1.94218 -2.51446,-3.53122 -3.35579,-3.53122 -1.46575,0 -3.96981,5.36206 -3.96981,8.50073 0,1.92453 4.52552,1.94445 7.14173,0.0315 z m 20.20447,1.93447 c -1.24958,-3.25635 -0.68748,-12.24679 0.90166,-14.4217 1.33315,-1.82453 3.24043,-2.21736 12.36744,-2.54717 10.93215,-0.3951 13.30692,0.36636 11.97421,3.83939 -1.28292,3.3432 -19.09956,14.88735 -22.97641,14.88735 -0.87579,0 -1.89591,-0.79103 -2.2669,-1.75787 z m 12.88626,-7.27708 c 2.98129,-1.91309 5.22591,-4.03851 4.988,-4.72311 -0.65092,-1.87331 -10.53356,-1.40141 -12.53345,0.59846 -1.8564,1.85642 -1.13571,7.603 0.95353,7.603 0.64428,0 3.61063,-1.56526 6.59192,-3.47835 z m -63.34998,2.73065 c -4.29723,-2.11782 -6.85987,-6.5032 -7.20046,-12.322 -0.23913,-4.08551 -0.14469,-4.18846 5.58836,-6.09053 3.20739,-1.06412 8.58339,-2.25818 11.94667,-2.65347 5.99285,-0.70435 6.11505,-0.66243 6.11505,2.09746 0,3.54935 -6.0894,18.66394 -8.01037,19.88262 -2.12281,1.34676 -4.3388,1.10673 -8.43925,-0.91408 z m 9.67261,-9.65415 c 3.5284,-8.26793 2.53744,-9.36962 -6.0056,-6.67667 -3.50148,1.10376 -6.60049,2.61707 -6.88671,3.3629 -1.33854,3.48823 5.59359,11.11109 9.09379,9.99987 0.60132,-0.19089 2.31064,-3.19964 3.79852,-6.6861 z m 75.18202,-3.21181 c -0.23478,-0.76405 -0.70681,-4.10914 -1.04893,-7.43357 -0.34213,-3.32443 -1.69901,-9.6722 -3.01531,-14.10616 -3.34877,-11.28042 -2.89176,-11.98624 7.26374,-11.21819 10.51778,0.79547 12.85562,2.02426 12.85562,6.75713 0,4.78986 -2.9582,14.72445 -5.83942,19.6107 -3.79078,6.42874 -9.16979,9.79341 -10.2157,6.39009 z m 9.85292,-16.38838 c 2.21036,-7.87762 1.31436,-10.48295 -3.96856,-11.53955 -5.50845,-1.10167 -6.063,0.38044 -3.79072,10.13137 1.10586,4.74549 2.24364,9.02753 2.5284,9.51561 1.09876,1.88322 3.45031,-1.76148 5.23088,-8.10743 z m -65.77073,2.47604 c -9.73534,-12.01013 -11.37588,-14.59784 -11.37588,-17.94387 0,-4.51285 11.04431,-4.38594 20.08084,0.23072 5.69508,2.90955 7.49098,6.90111 7.61755,16.93104 0.0925,7.32978 -1.92472,11.63831 -5.44899,11.63831 -1.28181,0 -5.43369,-4.14527 -10.87352,-10.8562 z m 12.00632,1.88246 c 1.69656,-3.17009 0.28682,-10.52087 -2.67901,-13.96885 -2.65343,-3.08479 -12.51523,-5.69366 -14.39959,-3.80931 -0.65178,0.65179 0.81882,3.26578 3.91135,6.95246 2.72572,3.24938 6.07731,7.53325 7.44799,9.51973 2.90626,4.212 4.02704,4.46792 5.71926,1.30597 z m 22.55531,4.25063 c -2.75799,-3.08341 -6.45479,-9.20339 -10.00619,-16.56514 -3.7587,-7.79146 -2.54561,-9.07022 8.09479,-8.53289 11.40266,0.5758 13.06489,2.26436 12.39932,12.59568 -0.83562,12.97107 -5.30408,18.29782 -10.48792,12.50235 z m 6.06626,-11.55095 c 0.24596,-5.11076 -0.11973,-7.25279 -1.46852,-8.60157 -2.13622,-2.13623 -9.4118,-2.45027 -9.42649,-0.40689 -0.005,0.76404 1.61981,4.74287 3.61179,8.84187 4.66072,9.59067 6.82732,9.64023 7.28322,0.16659 z m -81.44265,4.06741 c -0.87353,-1.41343 6.41248,-16.86282 8.9431,-18.96307 2.77796,-2.30549 14.93249,10.9969 12.91324,14.13274 -2.46687,3.83102 -20.06962,7.7213 -21.85634,4.83033 z m 16.87895,-6.30322 c 0.782,-2.03793 -3.19544,-5.93916 -6.05524,-5.93916 -2.07596,0 -4.63909,3.1905 -4.68715,5.83442 -0.0499,2.74442 9.693,2.8394 10.74239,0.10467 z m 204.26525,-1.04401 c -12.3747,-3.03475 -12.05319,-6.83312 0.96746,-11.42981 9.83124,-3.47074 13.8045,-2.92567 16.48607,2.26162 1.15487,2.23401 2.20044,5.48462 2.32345,7.22358 0.22126,3.12752 0.15155,3.16398 -6.44422,3.3704 -3.66735,0.1148 -9.6671,-0.52681 -13.33276,-1.42579 z m 13.88841,-3.30123 c 0,-5.49583 -3.98017,-7.24794 -10.94735,-4.81916 -4.70244,1.63928 -4.41698,3.87216 0.66767,5.22262 6.55991,1.74229 10.27968,1.59629 10.27968,-0.40346 z m -42.32629,-0.39273 c -5.31564,-3.33908 -12.31025,-10.73535 -14.99155,-15.85235 -1.4322,-2.73323 -1.34128,-3.24374 1.0885,-6.11227 1.45817,-1.72147 5.4043,-4.60816 8.7692,-6.41486 7.64982,-4.10742 9.09161,-3.22678 10.15869,6.20492 0.4214,3.72474 1.72881,9.84248 2.90537,13.59498 1.17655,3.75249 2.14565,7.94794 2.15353,9.32319 0.0203,3.51951 -3.73836,3.24233 -10.08374,-0.74361 z m 2.54651,-5.64647 c 0.65686,-1.60346 -2.84615,-16.72618 -4.11916,-17.78269 -2.26582,-1.88047 -8.87482,4.32289 -7.8949,7.41036 1.63579,5.15392 10.88174,13.13638 12.01406,10.37233 z m 56.44954,-2.25833 c 0,-6.635 2.50537,-13.30014 4.99941,-13.30014 3.24912,0 8.02722,3.19729 12.68378,8.48743 2.53102,2.87539 4.42642,5.7677 4.212,6.42736 -0.46803,1.43988 -10.58918,3.72113 -17.17208,3.87048 l -4.72311,0.1072 0,-5.59227 z m 13.16333,-0.31216 c 0.91583,-1.10348 0.39866,-2.34854 -2.1216,-5.10791 -2.73136,-2.99043 -3.62705,-3.40439 -4.96454,-2.29439 -1.65539,1.37387 -2.2469,6.76472 -0.89103,8.12059 1.2894,1.28942 6.71651,0.80074 7.97717,-0.71829 z m -157.63135,-4.64457 c -0.61302,-1.61231 -1.11455,-4.15164 -1.11455,-5.6429 0,-1.49129 -1.25024,-5.30302 -2.77831,-8.47056 -3.4116,-7.07191 -3.44244,-8.20529 -0.27782,-10.20938 4.37445,-2.77027 9.22885,-3.24942 11.35726,-1.12102 1.57948,1.5795 1.8384,3.55178 1.50295,11.44915 -0.42964,10.1147 -2.41225,15.93197 -5.64188,16.55394 -1.25711,0.2421 -2.32284,-0.65283 -3.04765,-2.55923 z m 5.32062,-17.78964 c -0.24106,-2.48872 -0.95685,-3.42397 -2.8234,-3.68907 -2.80782,-0.39877 -2.8903,-0.1024 -1.4908,5.35605 0.5485,2.13929 1.36792,5.38991 1.82092,7.22359 l 0.82364,3.33397 0.9963,-4.44529 c 0.54796,-2.44491 0.85097,-5.94558 0.67334,-7.77925 z m -60.88974,14.44213 c -14.20381,-9.41775 -15.55844,-10.52571 -15.55844,-12.72549 0,-2.90124 3.20712,-4.48465 11.50605,-5.68076 12.16907,-1.75392 16.27689,1.34495 16.27689,12.27897 0,6.3436 -1.57191,11.17876 -3.58427,11.02504 -0.77916,-0.0596 -4.66727,-2.26352 -8.64023,-4.89776 z m 8.87353,-6.38505 c -0.009,-1.98648 -0.44854,-4.29291 -0.97601,-5.12542 -2.01459,-3.17976 -16.85463,-3.93131 -16.74264,-0.84792 0.0564,1.55531 13.13884,9.44848 15.79087,9.5273 1.46845,0.0437 1.94064,-0.82683 1.92778,-3.55396 z m 23.85003,7.51377 c -5.3969,-5.72238 -13.83115,-17.75682 -13.83115,-19.735 0,-4.14484 18.13403,-5.40536 22.00951,-1.52991 2.38717,2.38721 3.06408,14.35235 1.13858,20.12604 -1.96896,5.90403 -4.52784,6.21682 -9.31694,1.13887 z m 6.17256,-8.44855 c 0,-2.42845 -0.73754,-6.18059 -1.63899,-8.33804 -1.51337,-3.62202 -1.95987,-3.89613 -5.82519,-3.57612 -2.6703,0.22108 -4.30198,0.9593 -4.50605,2.03861 -0.40323,2.133 9.61132,15.74884 10.96709,14.91092 0.55172,-0.34099 1.00314,-2.6069 1.00314,-5.03537 z m 118.17695,6.27492 c -6.61045,-6.82493 -8.15762,-10.77532 -5.82693,-14.8779 2.55947,-4.50527 9.29653,-9.26237 13.39195,-9.45617 l 3.7265,-0.17633 0.82914,10.55753 c 0.45602,5.80665 0.55038,12.68295 0.20972,15.28064 -0.55123,4.20345 -0.94123,4.72311 -3.54451,4.72311 -2.08355,0 -4.61133,-1.7409 -8.78587,-6.05088 z m 7.6424,-5.71622 c -0.53973,-9.34744 -1.49193,-13.79324 -2.95418,-13.79324 -1.78787,0 -7.28816,5.0473 -7.28816,6.68791 0,3.29555 7.37574,13.6382 9.26977,12.99857 0.80289,-0.27116 1.16908,-2.49001 0.97257,-5.89324 z m -200.83328,4.51148 c -2.44491,-0.88081 -4.5703,-1.60899 -4.72311,-1.6182 -0.1528,-0.009 -0.27896,-1.14195 -0.28037,-2.5172 -0.003,-1.66583 2.77112,-5.14415 8.30704,-10.42064 9.06906,-8.64404 12.22229,-10.25834 13.90309,-7.1177 1.64847,3.08016 -2.70771,17.76887 -6.19,20.8723 -3.23928,2.88687 -4.89392,3.00723 -11.01665,0.80144 z m 9.96008,-6.41612 c 0.92202,-1.40722 1.99625,-4.15773 2.38716,-6.11228 0.97254,-4.86276 -1.07284,-4.58915 -7.34632,0.98274 -4.803,4.26587 -4.91555,4.5059 -2.84371,6.06487 3.10328,2.3351 5.87792,2.0025 7.80287,-0.93533 z m 246.02262,1.71226 c -7.25014,-6.07151 -9.73388,-9.6921 -7.90412,-11.52189 1.56436,-1.56436 15.43145,-5.41294 19.50374,-5.41294 2.56095,0 3.44906,0.74712 4.83714,4.06927 1.04938,2.51153 1.43617,5.47694 1.01038,7.74653 -0.8883,4.73511 -5.6714,10.41424 -8.75724,10.3978 -1.32093,-0.007 -5.2314,-2.38248 -8.6899,-5.27877 z m 12.01269,-2.92607 c 2.45915,-5.15688 1.31863,-9.56347 -2.47524,-9.56347 -5.70991,0 -12.81859,2.42935 -12.46601,4.26018 0.40372,2.09632 9.28108,9.07566 11.54378,9.07566 0.87922,0 2.40807,-1.69758 3.39747,-3.77237 z m -45.96384,4.60585 c -3.57871,-3.91383 -5.94167,-9.35789 -6.64712,-15.3144 -0.56808,-4.7965 -0.27265,-5.96292 2.39659,-9.46247 6.89445,-9.03913 16.83864,-13.23016 19.51702,-8.22554 0.9433,1.76258 0.72726,3.84934 -0.94918,9.16837 -1.19376,3.78752 -3.05211,10.33818 -4.1297,14.55703 -1.78544,6.99029 -4.6241,11.77748 -6.98366,11.77748 -0.50467,0 -1.94647,-1.1252 -3.20395,-2.50047 z m 7.02901,-14.99986 c 1.39862,-5.34986 2.87522,-10.85222 3.28132,-12.22748 1.21187,-4.10404 -3.37725,-3.13007 -8.71594,1.84982 -4.07376,3.79998 -4.64875,4.92287 -4.54508,8.87625 0.0809,3.08658 1.08336,5.79067 3.15204,8.50286 1.66834,2.18731 3.3149,3.69538 3.65902,3.35126 0.34414,-0.34414 1.77002,-5.00285 3.16864,-10.35271 z m -74.4309,8.59812 c -4.01536,-3.52554 -10.71407,-15.40186 -10.71407,-18.99527 0,-4.37553 11.30486,-7.60349 14.19411,-4.05297 0.62173,0.76403 1.4172,5.3899 1.76768,10.27971 0.35049,4.88981 0.77819,10.34202 0.95045,12.11602 0.43644,4.49469 -1.5804,4.70699 -6.19817,0.65251 z m -0.2382,-13.265 c -0.69415,-6.13544 -1.01696,-6.80769 -3.12452,-6.5069 -1.86161,0.26569 -2.28045,0.9928 -2.01407,3.4964 0.30976,2.91128 4.72855,11.03705 5.55338,10.2122 0.19765,-0.19763 0.012,-3.43839 -0.41479,-7.2017 z m 16.83331,0.63684 c -8.91547,-8.91549 -8.26514,-14.28754 2.61356,-21.58926 4.76317,-3.19702 8.07083,-4.66858 9.99165,-4.44529 2.6893,0.31267 2.85962,0.68613 2.68641,5.89043 -0.25361,7.62021 -5.90691,24.3427 -8.38396,24.79991 -1.09016,0.20121 -4.03654,-1.78465 -6.90766,-4.65579 z m 7.81148,-10.19764 c 3.05805,-9.22606 3.17921,-10.50214 0.99717,-10.50214 -2.5614,0 -10.55752,8.57314 -10.55752,11.3194 0,2.65489 4.23081,7.82975 5.93653,7.26118 0.58502,-0.19503 2.21575,-3.83031 3.62382,-8.07844 z m -139.02883,9.25826 c -3.66734,-1.90872 -9.66845,-4.51083 -13.33581,-5.78247 -8.47271,-2.93787 -8.91824,-5.4691 -1.66697,-9.47086 4.05386,-2.2372 6.96393,-2.84587 15.36657,-3.21413 7.00792,-0.3071 10.78776,-0.0317 11.66882,0.85001 1.36528,1.3664 1.51178,14.81353 0.2062,18.92708 -1.0035,3.16173 -4.33201,2.80557 -12.23881,-1.30963 z m 8.12112,-8.38212 c 0.30099,-4.15268 0.012,-4.84234 -2.42237,-5.76765 -3.85929,-1.4673 -16.25627,0.19093 -16.25627,2.17445 0,1.41837 14.5255,8.87452 16.66978,8.55684 1.11553,-0.16527 1.78007,-1.80725 2.00886,-4.96364 z m 24.3924,3.44155 c -2.76217,-2.23991 -7.20253,-4.87801 -9.86745,-5.86242 -6.2932,-2.3247 -6.86659,-4.97388 -1.4626,-6.75736 4.73682,-1.56329 15.58333,-0.66476 21.42146,1.77456 3.56604,1.49001 3.76322,1.84295 3.1479,5.63477 -0.66827,4.11804 -4.50578,9.28305 -6.89716,9.28305 -0.72599,0 -3.57996,-1.83267 -6.34215,-4.0726 z m 8.96392,-5.18464 c 0.45884,-2.36584 -4.43207,-4.30121 -9.74213,-3.85504 l -3.95238,0.33211 5.5566,3.00133 c 6.03624,3.26042 7.58747,3.35983 8.13791,0.5216 z m 166.52416,4.07109 c -1.49456,-1.49456 -0.64974,-6.63188 2.04116,-12.41216 l 2.76034,-5.92945 4.17454,2.51712 c 8.88716,5.35869 13.68933,9.27625 13.37453,10.91083 -0.61299,3.18304 -19.85168,7.41257 -22.35057,4.91366 z m 10.52118,-3.88031 c 2.363,-0.70798 4.29638,-1.94537 4.29638,-2.74977 0,-1.2374 -5.31958,-4.85356 -7.13984,-4.85356 -1.12362,0 -4.05703,6.74475 -3.39751,7.81187 0.83907,1.35766 1.03536,1.35111 6.24097,-0.20854 z m -55.00216,1.21213 c -6.37997,-5.0185 -9.3404,-15.58736 -5.4546,-19.47319 2.96024,-2.96023 15.45178,-8.44552 18.3098,-8.04019 4.6073,0.65345 3.917,6.65099 -2.14576,18.64333 -2.92038,5.77663 -5.85033,10.66603 -6.511,10.86533 -0.66065,0.1993 -2.54994,-0.69857 -4.19844,-1.99528 z m 6.45215,-12.9758 c 5.92931,-11.16628 5.42476,-12.35668 -2.97856,-7.02745 -7.87847,4.9964 -8.74055,8.13195 -3.91283,14.23169 1.5903,2.00929 2.50894,1.04896 6.89139,-7.20424 z m -53.28444,2.00206 c -1.22245,-0.51294 -3.39069,-2.19037 -4.8183,-3.72759 -3.10316,-3.34143 -2.41416,-5.2604 3.8697,-10.77771 11.63064,-10.21185 26.57663,-10.39533 16.75212,-0.20565 -2.16836,2.24899 -5.39593,6.58939 -7.17234,9.64538 -3.34759,5.75887 -4.86144,6.64733 -8.63118,5.06557 z m 10.51931,-16.52174 c -1.15277,-0.43484 -8.94909,4.44967 -10.94951,6.86001 -1.22305,1.47366 -1.24193,2.13984 -0.0997,3.51611 1.22108,1.4713 2.11333,0.91501 6.68421,-4.16746 2.90124,-3.22598 4.86551,-6.01989 4.36503,-6.20866 z m 59.64262,2.99368 c -6.52342,-7.20862 -8.69302,-11.70501 -6.34742,-13.15467 3.97382,-2.45595 25.92186,6.31888 26.5346,10.60855 0.39612,2.77321 -5.77187,7.92933 -10.65336,8.90562 -2.8418,0.56838 -3.90822,-0.14299 -9.53382,-6.3595 z m 12.01219,-0.91343 c 2.54788,-2.81537 1.70232,-3.93727 -4.58115,-6.07827 -9.15145,-3.1182 -10.28685,-2.07582 -4.68654,4.30259 3.89054,4.4311 6.42512,4.9167 9.26769,1.77568 z m -52.50341,2.43045 c -3.08396,-4.37725 -6.88869,-12.13416 -6.88869,-14.04439 0,-5.97469 24.08397,-13.33507 31.18995,-9.53207 3.21818,1.72234 2.62347,3.84407 -2.13348,7.61167 -2.35566,1.8657 -6.45421,6.28356 -9.10789,9.81742 -7.76813,10.3447 -9.52125,11.16992 -13.05989,6.14737 z m 10.78242,-11.26411 c 3.11662,-3.59754 5.66655,-7.16363 5.66655,-7.92463 0,-3.4486 -15.80641,2.24582 -16.49035,5.94079 -0.5167,2.7916 1.99527,8.52483 3.73506,8.52483 0.78222,0 3.97214,-2.94343 7.08874,-6.54099 z M 387.03995,187.58933 c -6.59755,-3.26567 -14.82671,-11.22373 -14.32528,-13.85336 0.51016,-2.67536 4.39792,-3.15368 8.47911,-1.0432 1.7943,0.92787 6.08068,1.89859 9.52526,2.15718 9.53616,0.71584 11.34203,3.27997 7.97888,11.32914 -1.9408,4.64498 -4.498,4.95431 -11.65797,1.41024 z m 7.45669,-4.27666 c 0.23171,-1.20324 -1.77646,-2.37749 -6.93297,-4.05401 -3.99256,-1.29808 -7.25919,-1.95247 -7.25919,-1.45422 0,1.48392 10.34654,7.8799 12.17683,7.52741 0.92901,-0.17892 1.83589,-1.08753 2.01533,-2.01918 z m 17.05119,0.51646 c -5.05935,-6.43193 -4.01059,-10.27329 3.40235,-12.46206 2.67062,-0.78854 7.05648,-3.17528 9.74636,-5.30387 2.68986,-2.12857 5.42922,-3.69314 6.08745,-3.47679 3.89532,1.28036 -0.0156,11.02209 -7.95111,19.80585 -4.60182,5.09367 -8.06204,5.53425 -11.28505,1.43687 z m 8.28001,-3.54487 c 2.51906,-2.10827 6.46284,-7.98061 5.80288,-8.64057 -0.22845,-0.22846 -2.64385,1.06291 -5.36756,2.86966 -2.7237,1.80677 -5.41724,3.44232 -5.98561,3.63457 -1.48577,0.50252 0.13389,4.11063 1.83204,4.08114 0.78321,-0.0136 2.45643,-0.88876 3.71825,-1.9448 z M 357.4809,165.44639 c -3.3114,-3.13179 -7.2822,-7.84672 -8.824,-10.4776 -2.791,-4.76249 -3.70835,-10.92067 -1.80224,-12.09869 0.55056,-0.34026 4.42628,0.82532 8.6127,2.5902 4.18644,1.76488 9.36202,3.54978 11.50131,3.96647 8.69301,1.69322 11.11317,2.89882 11.11317,5.53599 0,3.81894 -9.98064,16.17783 -13.06468,16.17783 -0.83352,0 -4.22482,-2.5624 -7.53626,-5.6942 z m 11.6597,-3.93998 c 1.28328,-1.63143 2.16404,-3.50679 1.95723,-4.16744 -0.43375,-1.38563 -13.43829,-6.00008 -17.24997,-6.12089 -2.55888,-0.0812 -2.55984,-0.0753 -0.55567,3.36139 2.67367,4.58468 8.79705,9.89318 11.41185,9.89318 1.15683,0 3.15327,-1.3348 4.43656,-2.96624 z m 25.611,5.65213 c -10.50944,-5.97658 -13.89364,-11.68562 -8.2083,-13.8472 3.63702,-1.38279 24.94634,-4.19032 26.82286,-3.53393 2.00678,0.70194 1.66496,5.64538 -0.7595,10.98509 -4.40642,9.70475 -9.08794,11.38178 -17.85506,6.39604 z m 10.50774,-2.26487 c 2.51789,-0.96622 5.52712,-7.05704 4.16137,-8.4228 -1.48736,-1.48735 -18.25033,0.38524 -18.81823,2.10218 -0.44136,1.33437 4.54455,4.40482 9.69852,5.97259 1.53203,0.46603 2.86962,0.89028 2.97243,0.94283 0.1028,0.0525 0.99647,-0.21512 1.98591,-0.5948 z m 25.61009,-6.73493 c -1.83368,-0.97881 -5.23583,-3.27222 -7.56035,-5.0965 -5.71352,-4.48398 -5.16672,-6.95119 2.5594,-11.54836 3.36175,-2.00025 8.74276,-5.94008 11.95782,-8.75514 7.82674,-6.85302 9.7188,-6.40586 9.69378,2.29089 -0.0273,9.48487 -7.53976,25.08502 -12.00696,24.93327 -0.72034,-0.0245 -2.81002,-0.84535 -4.64369,-1.82416 z m 8.10945,-8.41106 c 2.67984,-4.44299 5.13003,-11.85779 4.2193,-12.76852 -1.00827,-1.00827 -16.21836,9.71543 -16.21836,11.43457 0,2.01244 4.37718,4.94575 7.38018,4.94575 1.56552,0 3.22138,-1.29484 4.61888,-3.6118 z m -70.01448,-7.83856 c -12.17608,-9.92572 -11.3797,-13.76132 3.06268,-14.75072 11.91195,-0.81605 18.72408,0.47969 19.18019,3.64828 0.42197,2.93161 -2.39153,8.71899 -6.23664,12.82875 -4.32925,4.62719 -8.80428,4.14455 -16.00623,-1.72631 z m 14.63072,-2.09504 c 4.47396,-4.80222 3.17359,-6.07855 -6.89628,-6.76875 -5.03924,-0.34542 -9.39734,-0.39287 -9.68472,-0.10547 -1.7735,1.77352 8.21584,9.24781 12.41356,9.28817 1.04584,0.0107 2.9212,-1.0762 4.16744,-2.41391 z m 23.6413,-1.02745 c -5.21416,-2.58094 -9.35722,-7.0562 -8.43719,-9.11363 0.86261,-1.92904 21.81601,-11.93826 25.54867,-12.20436 4.2757,-0.3048 4.69581,2.95135 1.48756,11.53011 -4.49116,12.00928 -9.15396,14.46312 -18.59904,9.78788 z m 11.0091,-5.05014 c 3.37584,-3.84399 5.67946,-9.43675 4.40986,-10.70635 -0.83196,-0.83196 -1.76058,-0.66789 -3.15071,0.55666 -1.08408,0.95496 -4.59655,3.05196 -7.80547,4.66001 -3.20894,1.60805 -5.83441,3.60295 -5.83441,4.43316 0,0.8302 1.60187,2.28526 3.55973,3.23349 3.77976,1.83059 5.72258,1.35112 8.821,-2.17697 z m -69.49638,-1.30246 c -0.31328,-0.50691 -1.12876,-4.38264 -1.81216,-8.61271 -1.39582,-8.63995 -0.56864,-18.89318 1.5911,-19.72193 1.95575,-0.75051 9.64363,2.86257 12.19546,5.73151 2.72922,3.06835 1.90073,7.25212 -3.26546,16.49015 -2.66966,4.77383 -4.60976,7.03466 -6.03665,7.03466 -1.15647,0 -2.35899,-0.41476 -2.67229,-0.92168 z m 7.17432,-11.75332 c 2.48852,-5.6257 1.94908,-8.17041 -1.93888,-9.14622 -3.98239,-0.99951 -4.7724,0.49979 -4.03386,7.65547 0.8143,7.88988 2.91066,8.41311 5.97274,1.49075 z m 31.60458,-1.92557 c -6.42488,-1.48395 -15.00278,-8.05176 -15.00278,-11.48714 0,-3.57412 2.00008,-4.49489 13.3358,-6.13948 17.46734,-2.534152 23.22544,-2.697979 23.99873,-0.68279 1.2102,3.1537 -0.54825,7.11997 -5.39376,12.16599 -7.20864,7.50693 -8.69713,8.04681 -16.93799,6.14342 z m 10.21908,-4.84669 c 2.88438,-2.02029 7.53327,-9.29057 6.56188,-10.26194 -0.38389,-0.38391 -3.81656,-0.11787 -7.62816,0.59121 -3.81158,0.70906 -9.30561,1.60634 -12.20892,1.99394 -5.6241,0.75085 -6.58229,2.26219 -3.3111,5.22258 4.53622,4.10524 12.53864,5.28932 16.5863,2.45421 z m 30.52192,-1.09883 c -3.7652,-4.02501 -6.84252,-8.1751 -6.83849,-9.22237 0.0169,-4.377654 8.57493,-13.244238 11.64599,-12.065756 2.14229,0.822067 6.10045,14.275706 6.4227,21.830476 0.23259,5.45277 0.0107,6.14805 -2.06182,6.44406 -1.65407,0.23631 -4.29295,-1.77456 -9.16838,-6.98641 z m 7.24544,-4.25803 c -0.36185,-2.64019 -1.18861,-6.19612 -1.8372,-7.90205 -1.10753,-2.913026 -1.33017,-3.00196 -3.66053,-1.462358 -3.88427,2.566238 -3.74091,6.109078 0.42097,10.403048 2.0053,2.06894 4.11596,3.76174 4.69036,3.76174 0.59199,0 0.75938,-2.0794 0.3864,-4.80038 z M 358.80702,94.837151 c -2.18179,-0.618401 -2.16891,-1.023975 0.45281,-14.269109 1.50181,-7.587249 2.56941,-9.18317 4.86736,-7.276035 3.41469,2.833963 11.73201,14.73939 11.73201,16.793258 0,1.140375 -0.91368,2.562417 -2.0304,3.160057 -2.51381,1.345348 -12.25105,2.377203 -15.02178,1.591829 z m 12.10706,-6.024527 c 0.8492,-1.374015 -4.77124,-7.688928 -6.84333,-7.688928 -1.55144,0 -3.19533,6.011806 -2.11977,7.752115 0.93536,1.513455 8.01957,1.463521 8.9631,-0.06307 z m 31.18988,-1.641802 c -1.3493,-3.516204 4.64532,-21.60561 7.15987,-21.60561 1.73108,0 12.15939,16.011337 12.15939,18.669194 0,1.522508 -10.16586,4.668525 -15.08558,4.668525 -2.20692,0 -3.82268,-0.661041 -4.23368,-1.732109 z m 11.68914,-4.515071 c 1.81266,-1.640455 1.84282,-2.088549 0.3368,-5.000939 -0.90987,-1.759482 -2.37876,-3.199044 -3.26419,-3.199044 -1.72219,0 -5.00092,5.428393 -5.00092,8.279716 0,2.322749 5.33285,2.269109 7.92831,-0.07973 z m -30.14859,0.4694 c -2.5468,-2.628856 -5.89271,-6.913207 -7.43535,-9.520757 -2.6888,-4.545005 -2.72746,-4.858979 -0.93526,-7.594235 3.82054,-5.8309 12.85033,-7.303795 19.21405,-3.13411 2.96181,1.940655 2.86616,3.39223 -1.03243,15.670537 -3.12701,9.848184 -4.21429,10.355598 -9.81101,4.578565 z m 7.60832,-9.127023 c 1.49601,-6.129567 1.46717,-6.656061 -0.44097,-8.051329 -2.91956,-2.134842 -6.42514,-1.845735 -9.79899,0.808147 -3.2724,2.57407 -2.98148,3.813525 2.52959,10.776852 3.99856,5.052273 5.81842,4.218218 7.71037,-3.53367 z"
       style="fill:#884400;fill-opacity:1"
       inkscape:connector-curvature="0" />
  </g>
</svg>
