<?xml version="1.0" encoding="UTF-8" standalone="no"?>
<!-- Created with Inkscape (http://www.inkscape.org/) -->

<svg
   xmlns:dc="http://purl.org/dc/elements/1.1/"
   xmlns:cc="http://creativecommons.org/ns#"
   xmlns:rdf="http://www.w3.org/1999/02/22-rdf-syntax-ns#"
   xmlns:svg="http://www.w3.org/2000/svg"
   xmlns="http://www.w3.org/2000/svg"
   xmlns:sodipodi="http://sodipodi.sourceforge.net/DTD/sodipodi-0.dtd"
   xmlns:inkscape="http://www.inkscape.org/namespaces/inkscape"
   id="svg3904"
   sodipodi:version="0.32"
   inkscape:version="0.48.4 r9939"
   width="744.09448"
   height="1052.3622"
   version="1.0"
   sodipodi:docname="green_black_2015.eps"
   inkscape:output_extension="org.inkscape.output.svg.inkscape"
   inkscape:export-filename="/src_install/lvee/2008/logo2008.png"
   inkscape:export-xdpi="303.60001"
   inkscape:export-ydpi="303.60001">
  <metadata
     id="metadata3909">
    <rdf:RDF>
      <cc:Work
         rdf:about="">
        <dc:format>image/svg+xml</dc:format>
        <dc:type
           rdf:resource="http://purl.org/dc/dcmitype/StillImage" />
        <dc:title></dc:title>
      </cc:Work>
    </rdf:RDF>
  </metadata>
  <defs
     id="defs3907">
    <inkscape:perspective
       sodipodi:type="inkscape:persp3d"
       inkscape:vp_x="0 : 526.18109 : 1"
       inkscape:vp_y="0 : 1000 : 0"
       inkscape:vp_z="744.09448 : 526.18109 : 1"
       inkscape:persp3d-origin="372.04724 : 350.78739 : 1"
       id="perspective2954" />
    <inkscape:perspective
       sodipodi:type="inkscape:persp3d"
       inkscape:vp_x="0 : 526.18109 : 1"
       inkscape:vp_y="0 : 1000 : 0"
       inkscape:vp_z="744.09448 : 526.18109 : 1"
       inkscape:persp3d-origin="372.04724 : 350.78739 : 1"
       id="perspective2464" />
    <inkscape:perspective
       id="perspective3853"
       inkscape:persp3d-origin="372.04724 : 350.78739 : 1"
       inkscape:vp_z="744.09448 : 526.18109 : 1"
       inkscape:vp_y="0 : 1000 : 0"
       inkscape:vp_x="0 : 526.18109 : 1"
       sodipodi:type="inkscape:persp3d" />
    <inkscape:perspective
       sodipodi:type="inkscape:persp3d"
       inkscape:vp_x="0 : 526.18109 : 1"
       inkscape:vp_y="0 : 1000 : 0"
       inkscape:vp_z="744.09448 : 526.18109 : 1"
       inkscape:persp3d-origin="372.04724 : 350.78739 : 1"
       id="perspective4938" />
    <inkscape:perspective
       id="perspective4936"
       inkscape:persp3d-origin="372.04724 : 350.78739 : 1"
       inkscape:vp_z="744.09448 : 526.18109 : 1"
       inkscape:vp_y="0 : 1000 : 0"
       inkscape:vp_x="0 : 526.18109 : 1"
       sodipodi:type="inkscape:persp3d" />
    <inkscape:perspective
       id="perspective2433"
       inkscape:persp3d-origin="372.04724 : 350.78739 : 1"
       inkscape:vp_z="744.09448 : 526.18109 : 1"
       inkscape:vp_y="0 : 1000 : 0"
       inkscape:vp_x="0 : 526.18109 : 1"
       sodipodi:type="inkscape:persp3d" />
    <inkscape:perspective
       id="perspective2509"
       inkscape:persp3d-origin="372.04724 : 350.78739 : 1"
       inkscape:vp_z="744.09448 : 526.18109 : 1"
       inkscape:vp_y="0 : 1000 : 0"
       inkscape:vp_x="0 : 526.18109 : 1"
       sodipodi:type="inkscape:persp3d" />
  </defs>
  <sodipodi:namedview
     inkscape:window-height="1056"
     inkscape:window-width="1871"
     inkscape:pageshadow="2"
     inkscape:pageopacity="0.0"
     guidetolerance="10.0"
     gridtolerance="10.0"
     objecttolerance="10.0"
     borderopacity="1.0"
     bordercolor="#666666"
     pagecolor="#ffffff"
     id="base"
     inkscape:zoom="0.73"
     inkscape:cx="104.99598"
     inkscape:cy="770.78626"
     inkscape:window-x="49"
     inkscape:window-y="24"
     inkscape:current-layer="svg3904"
     width="744.09449px"
     height="1052.3622px"
     showgrid="false"
     inkscape:window-maximized="1" />
  <g
     id="g4229">
    <path
       inkscape:connector-curvature="0"
       style="fill:#ffffff;fill-opacity:1"
       id="path2818-3"
       d="m 356.82256,547.11649 c 1.15982,-2.88536 4.54029,-11.33682 7.5126,-18.7816 4.6013,-11.52618 8.03963,-18.13767 8.03963,-15.46001 0,1.26162 -11.82718,34.61534 -13.15307,37.09247 -0.70462,1.31719 -2.00729,2.39483 -2.89474,2.39483 -1.34497,0 -1.26279,-0.87188 0.49558,-5.24569 z m 274.44011,2.76099 c 0.28018,-1.36672 0.83115,-4.46599 1.22444,-6.88701 l 0.71474,-4.40232 -2.31461,2.09463 c -3.84584,3.48042 -3.56794,1.40725 0.58797,-4.3893 2.15559,-3.00667 4.88235,-7.33049 6.05964,-9.60806 2.13248,-4.12667 5.2344,-5.93364 3.7916,-2.20876 -1.38958,3.58817 -5.84388,19.5735 -6.53912,23.468 -0.37922,2.12602 0.58254,0.15616 2.1375,-4.37794 4.12867,-12.03706 5.81233,-13.50765 8.81559,-7.69982 2.13718,4.13301 3.67721,3.76694 6.70052,-1.59275 2.70442,-4.7943 6.49214,-7.76973 8.77545,-6.89336 2.77912,1.06626 1.75059,4.89261 -2.15232,8.00673 -3.69085,2.9451 -4.20151,5.9311 -1.0144,5.9311 0.88988,0 3.9427,-1.29897 6.78412,-2.88626 L 670,535.54608 l -5.18133,5.09504 c -5.80838,5.71136 -9.68092,6.55945 -12.37691,2.71028 -1.32698,-1.89455 -1.99209,-2.11732 -3.23574,-1.08534 -1.81717,1.50822 -4.71932,0.6852 -5.59063,-1.58517 -1.1761,-3.06524 -2.79301,-1.4866 -5.17821,5.05519 -2.03154,5.57103 -2.8355,6.6261 -5.05005,6.6261 -2.14653,0 -2.53972,-0.46011 -2.12446,-2.4847 z m 26.63247,-16.33711 c 1.6773,-1.85375 1.72331,-2.134 0.2566,-1.57131 -0.98217,0.37685 -2.05695,1.3922 -2.38834,2.25641 -0.82503,2.15028 -0.27398,1.97306 2.13174,-0.6851 z M 70.152758,549.53275 c -0.364084,-0.94912 -0.05474,-5.29728 0.687686,-9.66328 0.742335,-4.36636 1.205672,-8.43516 1.029678,-9.04264 -0.585004,-2.01884 1.412914,-12.07325 3.014478,-15.1705 2.073457,-4.00966 4.840695,-4.01792 4.814522,-0.0114 -0.0082,1.67059 -1.244396,8.2555 -2.741031,14.63345 -3.334581,14.20953 -3.436538,16.56543 -0.71699,16.56543 3.311271,0 9.049223,-2.33966 8.382773,-3.4183 -0.884852,-1.43153 8.874917,-11.42561 10.298645,-10.54587 0.655562,0.40514 1.518157,2.22197 1.916838,4.03739 0.398708,1.81514 1.356594,3.30044 2.128675,3.30044 0.772091,0 3.907268,-2.73337 6.967088,-6.07429 8.64509,-9.43879 10.98102,-7.80039 6.29816,4.41733 -0.54606,1.42501 0.60799,0.73885 3.25124,-1.93228 4.79579,-4.84693 6.87835,-5.18095 8.60986,-1.38048 1.74077,3.82058 3.26711,3.46968 7.04163,-1.61917 2.93475,-3.95655 5.75427,-6.18291 6.67023,-5.26654 0.18942,0.18891 -0.35686,2.3128 -1.21393,4.71917 -3.23972,9.09579 -1.54217,10.71861 3.99931,3.82295 3.85408,-4.79575 5.37953,-5.49696 5.40602,-2.48474 0.007,1.06299 0.45472,2.6243 0.99004,3.46966 0.80092,1.26494 1.57329,1.10956 4.36331,-0.87706 2.80954,-2.00046 3.28278,-2.94944 2.76384,-5.54423 -0.76285,-3.81377 1.22755,-5.39747 3.07174,-2.44425 1.29293,2.06981 1.48188,2.0292 5.47378,-1.17913 7.14216,-5.73947 9.19116,-0.53834 2.64293,6.70966 -3.33227,3.68866 -3.64154,4.47105 -2.23013,5.64237 1.33181,1.10558 2.58987,0.80295 6.71655,-1.6156 6.9005,-4.04394 7.43976,-2.74631 0.86354,2.07799 -5.73851,4.20885 -9.63101,5.00378 -11.15642,2.27784 -0.82474,-1.47386 -1.21968,-1.40062 -2.98696,0.55201 -1.12022,1.2378 -2.54334,2.25067 -3.1624,2.25067 -0.61906,0 0.0174,-1.21724 1.41529,-2.70489 1.488,-1.58387 2.26446,-3.4251 1.87415,-4.44274 -0.55971,-1.45855 -1.40063,-1.20619 -5.23552,1.572 -3.6086,2.614 -5.00627,3.07543 -6.65116,2.19485 -1.14542,-0.61317 -2.08507,-1.71814 -2.08784,-2.45613 -0.003,-0.73802 -1.51883,0.27376 -3.36898,2.24763 -3.73902,3.9893 -6.31558,4.57729 -7.25787,1.65636 -0.34291,-1.06283 -0.83723,-2.62805 -1.09853,-3.47859 -0.35966,-1.1703 -1.16244,-0.90209 -3.305,1.1046 l -2.82993,2.65038 -2.42843,-3.03743 c -1.33565,-1.67017 -2.93012,-3.03687 -3.54329,-3.03687 -0.61316,0 -3.05592,1.98798 -5.42834,4.41739 -4.88239,5.00009 -7.84411,5.85088 -6.7284,1.93278 2.47943,-8.70754 2.40629,-8.81747 -2.71472,-4.08987 -5.464743,5.04524 -8.310347,5.49779 -10.08415,1.60488 -0.691866,-1.51835 -1.721013,-2.76092 -2.286955,-2.76092 -2.206449,0 -5.794813,3.9959 -5.794813,6.45287 0,2.0261 -0.958101,2.92078 -4.417451,4.12468 -5.887454,2.04897 -10.401091,1.98681 -11.222763,-0.15451 z m 92.906722,-16.59293 c 1.02942,-1.57121 1.58654,-3.1417 1.23823,-3.4905 -0.90529,-0.90521 -5.0648,3.0876 -5.0648,4.86187 0,2.37016 1.79706,1.72623 3.82657,-1.37137 z m 30.53258,16.38529 c 0.14438,-1.06287 -0.59552,-4.66585 -1.64466,-8.00649 -1.04894,-3.34089 -2.19662,-10.32008 -2.55056,-15.50994 -0.55021,-8.06773 -0.36331,-9.71562 1.28981,-11.36896 1.06347,-1.06353 2.37826,-1.78528 2.92211,-1.60406 0.54368,0.18142 1.11739,6.2913 1.27454,13.57812 0.15724,7.28643 0.80965,14.14812 1.4497,15.24821 0.99383,1.70815 1.7066,0.82243 4.88766,-6.07423 2.04827,-4.44069 4.00703,-9.80794 4.35281,-11.92726 0.42036,-2.57692 1.31051,-3.98496 2.68752,-4.24997 1.8254,-0.35146 1.96928,0.0861 1.26834,3.85333 -0.88137,4.73604 -8.94164,23.05445 -11.46717,26.06125 -0.89267,1.06292 -2.32287,1.93283 -3.17812,1.93283 -0.85511,0 -1.43663,-0.86991 -1.29198,-1.93283 z m 197.47882,0.18223 c -1.17881,-1.42056 -1.21149,-3.90696 -0.17373,-13.19594 1.53775,-13.75934 3.34598,-18.50591 8.19183,-21.49855 4.80182,-2.96547 11.38624,-2.64594 11.38624,0.55285 0,1.82687 -0.6173,2.14702 -3.5685,1.85164 -7.25016,-0.72571 -7.89828,5.5e-4 -10.82084,12.12595 l -0.70695,2.93402 4.86204,-1.74873 c 5.13863,-1.84763 8.57797,-1.35381 8.57797,1.23143 0,1.0881 -1.83439,1.70636 -6.11328,2.06147 -3.36214,0.27873 -6.53424,0.96118 -7.04914,1.517 -0.51545,0.55583 -1.27357,3.37078 -1.68531,6.25622 l -0.74903,5.24569 3.6571,-0.0475 c 2.01117,-0.0262 5.52034,-0.71358 7.79809,-1.52647 3.24496,-1.15821 4.14157,-1.18096 4.14157,-0.10448 0,1.44313 -10.93029,6.09706 -14.32007,6.09706 -1.08644,0 -2.62906,-0.78795 -3.42799,-1.75058 l 0,4e-5 z m 154.61023,0 c -1.17863,-1.42056 -1.2113,-3.90696 -0.17345,-13.19594 1.53778,-13.75934 3.34628,-18.50591 8.19205,-21.49855 4.80162,-2.96547 11.38597,-2.64594 11.38597,0.55285 0,1.82687 -0.6172,2.14702 -3.56821,1.85164 -7.25043,-0.72571 -7.89834,5.5e-4 -10.82106,12.12595 l -0.70726,2.93402 4.86275,-1.74873 c 5.13835,-1.84763 8.57727,-1.35381 8.57727,1.23143 0,1.0881 -1.83398,1.70636 -6.11267,2.06147 -3.36218,0.27873 -6.53448,0.96118 -7.04954,1.517 -0.51493,0.55583 -1.27352,3.37078 -1.68536,6.25622 l -0.74875,5.24569 3.65682,-0.0475 c 2.01117,-0.0262 5.52051,-0.71358 7.79824,-1.52647 3.24513,-1.15821 4.14126,-1.18096 4.14126,-0.10448 0,1.44313 -10.92992,6.09706 -14.31983,6.09706 -1.08646,0 -2.629,-0.78795 -3.42823,-1.75058 l 0,4e-5 z m -106.59045,-3.21665 c -0.79712,-3.1748 0.1673,-6.50536 1.62303,-5.60575 0.54369,0.33634 1.20645,-0.87478 1.47291,-2.6907 0.26667,-1.81617 0.10422,-3.30174 -0.3614,-3.30174 -0.4652,0 -3.14259,1.98773 -5.94964,4.41717 -2.80736,2.42976 -5.34607,4.4177 -5.64174,4.4177 -0.29585,0 -1.71317,-1.26829 -3.14973,-2.81828 -2.56857,-2.77179 -2.6451,-2.78352 -4.6409,-0.70217 -4.32823,4.51487 -10.28166,5.70462 -8.76494,1.75202 0.7235,-1.88551 -0.63054,-2.0191 -2.41157,-0.23802 -0.71874,0.71874 -1.58262,1.03154 -1.9193,0.69447 -0.79356,-0.79353 14.71476,-15.18529 17.97388,-16.67973 4.61792,-2.11746 4.13882,0.44328 -0.95248,5.09161 -2.78176,2.53927 -5.75619,5.56829 -6.61043,6.73075 -1.43064,1.94707 -1.37816,2.02034 0.66833,0.9303 1.22172,-0.65032 3.16223,-2.22279 4.31255,-3.49386 2.80941,-3.10455 5.06221,-2.93321 5.06221,0.38488 0,4.62962 1.82948,4.1649 8.71987,-2.21454 3.90898,-3.619 7.1994,-5.85024 7.94677,-5.38824 1.30595,0.80696 0.85011,8.80806 -0.75163,13.18973 -1.3447,3.67828 4.6161,-2.29076 9.6496,-9.66325 l 4.33518,-6.35002 -5.01038,0 c -4.27467,0 -5.01088,-0.32479 -5.01088,-2.20888 0,-1.93765 0.73621,-2.20881 5.99966,-2.20881 5.02958,0 6.11295,-0.35701 6.70051,-2.20876 0.69259,-2.18233 2.76087,-3.1128 2.76087,-1.24225 0,0.53155 0.31066,2.51932 0.69017,4.41743 0.53658,2.68286 0.3076,3.45127 -1.02899,3.45127 -1.24063,0 -2.23592,2.32279 -3.57536,8.34265 -1.02082,4.58829 -1.54952,8.64879 -1.17522,9.02325 1.03741,1.03763 6.15979,-4.18021 8.40956,-8.56728 2.12416,-4.14039 6.70825,-7.34778 8.72243,-6.10284 2.31691,1.43205 1.18451,4.96047 -2.54772,7.93872 -3.86689,3.08558 -4.16753,5.9311 -0.62665,5.9311 2.61736,0 8.37519,-4.88402 10.16838,-8.62513 1.86722,-3.8962 4.83265,-4.30925 8.20338,-1.14235 2.39945,2.25427 2.66132,3.21001 2.07003,7.55431 l -0.67677,4.97406 7.71778,-8.00663 c 4.24455,-4.40395 8.2089,-8.00696 8.80959,-8.00696 2.51821,0 2.37613,2.9923 -0.49853,10.49175 -0.54574,1.42459 0.60813,0.73844 3.25135,-1.93274 4.95636,-5.0091 6.71574,-5.17044 8.96391,-0.8231 1.67212,3.23331 1.78658,3.27198 4.48015,1.50683 4.40791,-2.88769 4.25808,-1.03874 -0.23527,2.9065 l -4.10917,3.60788 -2.31954,-2.90894 c -1.27533,-1.59962 -2.82112,-2.90874 -3.43425,-2.90874 -0.61301,0 -3.05599,1.98793 -5.42815,4.41743 -4.88256,5.00011 -7.84412,5.85086 -6.72856,1.93279 0.38931,-1.3667 1.02054,-3.97588 1.40323,-5.79791 0.68225,-3.25023 0.58109,-3.20618 -5.33028,2.34132 -5.53816,5.19633 -10.309,7.98413 -11.54572,6.74743 -0.27494,-0.27485 0.008,-1.84342 0.63522,-3.48579 3.0198,-7.94259 -0.44775,-12.31289 -5.07689,-6.39793 -3.20815,4.09901 -9.21028,7.97338 -12.35347,7.97338 -1.26056,0 -3.06,-1.09687 -3.99875,-2.43707 l -1.70738,-2.4373 -3.80461,3.68762 c -5.39302,5.22732 -7.7201,4.12153 -7.00432,-3.32759 l 0.53631,-5.58157 -4.53877,4.32182 c -10.82399,10.30597 -11.30733,10.55339 -12.36747,6.3287 z m 34.37601,-12.75032 c 1.67744,-1.85375 1.7233,-2.134 0.2566,-1.57131 -0.98197,0.37685 -2.05666,1.3922 -2.38812,2.25641 -0.82524,2.15028 -0.27401,1.97306 2.13152,-0.6851 z m -200.10539,12.69518 c -0.36072,-0.94016 -0.39071,-3.68485 -0.0662,-6.09929 l 0.5886,-4.38991 -3.80167,3.33829 c -4.49157,3.94356 -7.28432,4.22504 -9.45709,0.95303 l -1.58359,-2.38531 -2.14031,2.23536 c -1.17695,1.22973 -3.343,2.86295 -4.81338,3.62964 -2.2648,1.18076 -2.87566,1.11732 -3.99608,-0.41478 -1.17284,-1.60396 -1.47837,-1.62045 -2.70331,-0.14488 -0.75947,0.91523 -3.23632,2.21972 -5.50425,2.89924 -5.02309,1.50502 -8.86667,-0.0956 -8.86667,-3.69408 0,-1.85952 -0.29456,-2.09613 -1.32519,-1.0653 -2.0868,2.08679 -5.9857,1.55136 -7.71967,-1.05989 l -1.58392,-2.38531 -2.13996,2.23536 c -4.42238,4.61944 -10.41577,5.88292 -8.87622,1.87122 0.72347,-1.88551 -0.63054,-2.0191 -2.41174,-0.23802 -0.71869,0.71874 -1.58245,1.03154 -1.91922,0.69447 -0.79378,-0.79353 14.7148,-15.18529 17.97395,-16.67973 4.61786,-2.11746 4.13873,0.44328 -0.95253,5.09161 -2.78177,2.53927 -5.75636,5.56829 -6.61042,6.73075 -1.4306,1.94707 -1.37807,2.02034 0.66829,0.9303 1.22165,-0.65032 3.16246,-2.22279 4.31253,-3.49386 2.80975,-3.10455 5.06236,-2.93321 5.06236,0.38488 0,1.48257 0.37269,2.91943 0.8281,3.19298 0.45564,0.27327 4.49785,-1.93361 8.98284,-4.90465 4.48508,-2.97079 8.58497,-5.40175 9.11116,-5.40175 2.55755,0 0.42728,3.55583 -4.06108,6.77902 -3.57476,2.56757 -4.92442,4.25432 -4.69352,5.86682 0.53447,3.73399 4.38953,3.27152 9.18469,-1.10219 9.78158,-8.92203 17.29349,-14.85655 18.80564,-14.85655 2.68244,0 1.79962,1.94325 -2.30585,5.07464 -2.14781,1.63822 -4.95578,4.4544 -6.24022,6.2581 -2.1615,3.03529 -2.17794,3.19565 -0.22415,2.14978 1.16126,-0.62157 3.05242,-2.17001 4.2026,-3.44108 2.80959,-3.10455 5.06238,-2.93321 5.06238,0.38488 0,1.48257 0.38648,2.93479 0.85908,3.22658 1.35758,0.83899 5.13758,-2.7029 8.97263,-8.40723 l 3.52662,-5.24567 -5.02266,0 c -4.28654,0 -5.02282,-0.32398 -5.02282,-2.20888 0,-1.93765 0.73628,-2.20881 5.99966,-2.20881 5.02977,0 6.11318,-0.35701 6.70067,-2.20876 0.69256,-2.18233 2.76087,-3.1128 2.76087,-1.24225 0,0.53155 0.31072,2.51932 0.69017,4.41743 0.53654,2.68286 0.30756,3.45127 -1.02905,3.45127 -1.24051,0 -2.23596,2.32279 -3.57526,8.34265 -1.02097,4.58829 -1.54018,8.65832 -1.15428,9.04447 0.3861,0.38578 3.12761,-1.68739 6.09269,-4.60784 2.96472,-2.92051 5.89679,-4.99678 6.51553,-4.61431 0.61884,0.38229 1.45149,2.1804 1.84999,3.99584 0.39883,1.81514 1.29226,3.30042 1.98564,3.30042 0.69346,0 4.05705,-2.76739 7.47474,-6.14943 5.86032,-5.7991 6.42267,-6.09513 9.88037,-5.19906 5.24351,1.35873 6.39211,3.71858 4.12453,8.474 -3.37902,7.08644 -12.14948,10.28063 -14.67605,5.34488 l -1.27943,-2.49939 -2.82605,2.22319 c -3.77281,2.9679 -6.12661,2.80232 -7.64828,-0.53783 -0.69191,-1.51834 -1.60533,-2.76094 -2.02945,-2.76094 -0.42435,0 -3.03023,1.98789 -5.79042,4.4177 -5.43627,4.78551 -7.15037,5.35401 -8.16554,2.70818 z m 37.77164,-6.5234 c 3.12821,-3.12901 3.42176,-4.81632 0.99799,-5.74652 -2.13792,-0.82035 -7.12223,3.68719 -7.12223,6.441 0,2.83658 2.92443,2.50503 6.12424,-0.69448 z m 288.17865,6.29979 c 0.4285,-1.06294 1.04277,-3.78724 1.36526,-6.05385 0.88095,-6.19551 -1.87265,-6.55692 -7.20906,-0.94749 -4.77177,5.01638 -6.93461,5.53329 -10.06357,2.40454 -2.08016,-2.08005 -2.1567,-2.06234 -5.03837,1.17181 -3.37733,3.79044 -6.28117,3.75492 -7.18812,-0.0876 -0.77847,-3.29849 -2.54655,-4.00865 -4.40486,-1.76957 -0.77292,0.93149 -1.88003,1.69333 -2.45985,1.69333 -0.99313,0 8.33344,-11.7641 10.71182,-13.51166 1.94968,-1.43222 3.02078,-0.90164 2.19543,1.0876 -1.76815,4.26097 -2.98985,10.34005 -2.22777,11.08328 0.4447,0.43371 2.63512,-1.32319 4.86791,-3.90478 4.43024,-5.12175 5.64712,-5.71422 5.67285,-2.76091 0.007,1.06298 0.44387,2.60609 0.96547,3.42929 1.27323,2.0095 6.18781,-1.13134 8.13818,-5.20015 1.8454,-3.85079 4.82226,-4.24875 8.1802,-1.09436 2.41377,2.26781 2.65988,3.18426 2.02838,7.55437 l -0.71848,4.974 8.19147,-8.08324 c 7.86441,-7.76054 8.33769,-8.04523 11.86248,-7.1317 2.01927,0.52307 4.20956,1.80541 4.8667,2.84973 1.86006,2.9537 -2.27943,9.69598 -7.5254,12.25731 -4.83384,2.35977 -7.3989,1.57419 -8.37625,-2.56578 l -0.58174,-2.46435 -2.75632,2.94976 c -4.80451,5.14213 -12.05571,7.98899 -10.49636,4.12089 l 0,-6e-5 z m 24.35552,-6.29979 c 3.12864,-3.12901 3.42167,-4.81632 0.99786,-5.74652 -2.13783,-0.82035 -7.12206,3.68719 -7.12206,6.441 0,2.83658 2.92429,2.50503 6.1242,-0.69448 z m -301.64316,4.64343 c 0.38935,-1.3667 1.02733,-3.95614 1.41771,-5.75439 l 0.71035,-3.26972 -4.30155,3.5458 c -2.36567,1.95017 -4.73506,3.54552 -5.26509,3.54552 -1.13464,0 9.83995,-12.26521 12.20771,-13.64288 3.62152,-2.10725 3.92198,1.60801 0.79047,9.77776 -0.54582,1.42459 0.60805,0.73844 3.25135,-1.93274 4.95635,-5.0091 6.71565,-5.17044 8.96387,-0.8231 1.67204,3.23331 1.78655,3.27198 4.48021,1.50683 4.40786,-2.88769 4.25805,-1.03874 -0.23538,2.9065 l -4.10908,3.60788 -2.31946,-2.90894 c -1.27554,-1.59962 -2.8212,-2.90874 -3.43446,-2.90874 -0.61293,0 -3.05588,1.98793 -5.42804,4.41743 -4.88249,5.00011 -7.84414,5.85086 -6.72861,1.93279 z M 92.971322,523.15897 c 0,-1.53682 4.006158,-5.0324 5.76754,-5.0324 1.485618,0 0.933349,3.08083 -0.876793,4.89101 -2.173064,2.17292 -4.890747,2.25148 -4.890747,0.14139 z m 195.471928,0 c 0,-1.53682 4.00613,-5.0324 5.76757,-5.0324 1.48565,0 0.9332,3.08083 -0.87694,4.89101 -2.17319,2.17292 -4.89063,2.25148 -4.89063,0.14139 z" />
    <path
       inkscape:connector-curvature="0"
       id="path3414"
       d="m 185.26486,483.8735 c -1.46375,-1.76372 -1.48399,-2.77207 -0.0892,-4.45252 1.40504,-1.69299 1.24586,-3.78975 -0.72123,-9.50033 -4.81354,-13.97356 -6.7941,-23.51008 -8.97634,-43.22132 -2.17058,-19.60605 -2.09345,-21.73782 1.02234,-28.25574 1.49433,-3.12605 9.91479,-7.40943 11.48296,-5.84125 0.38796,0.38796 0.85675,13.21643 1.04178,28.50771 0.18498,15.2913 0.7185,29.17042 1.18558,30.84246 0.46704,1.67206 1.34992,5.09217 1.96199,7.60024 1.844,7.55649 2.40549,7.47805 7.04625,-0.98431 7.69853,-14.03808 14.57593,-31.21848 15.66411,-39.13038 1.0948,-7.9603 2.3402,-9.74723 8.00317,-11.4833 2.81919,-0.86429 3.42012,-0.46814 3.42012,2.25462 0,7.44509 -5.35439,22.99927 -14.54069,42.23981 -5.3539,11.21362 -9.39777,20.93294 -8.98641,21.59852 0.90441,1.46339 -11.22886,12.10587 -13.80167,12.10587 -1.0012,0 -2.67188,-1.02603 -3.71266,-2.28008 z m -62.70218,-0.88179 c -3.26406,-1.90113 -3.38038,-7.1566 -0.51871,-23.43896 2.55523,-14.53899 3.39127,-24.61499 2.14572,-25.86053 -1.27141,-1.2714 4.25332,-26.11899 7.36711,-33.13367 3.46187,-7.79883 9.81674,-11.26578 11.69209,-6.37868 0.95505,2.48875 -2.89945,24.20147 -8.87429,49.9897 -2.10739,9.0958 -3.83163,19.18514 -3.83163,22.4207 0,5.41635 0.33151,5.87895 4.18014,5.83325 2.29909,-0.0274 7.94228,-1.373 12.54042,-2.99046 4.59817,-1.61749 8.87331,-2.96319 9.50036,-2.99045 2.55722,-0.11126 0.9133,8.15064 -2.15052,10.80789 -6.72353,5.83122 -25.97528,9.2798 -32.05069,5.74121 z m 113.81834,-2.07498 c -1.75703,-2.68154 -2.53114,-6.60658 -2.3511,-11.92089 0.43599,-12.86978 2.85651,-32.89332 5.55147,-45.92422 2.32862,-11.2596 3.09489,-12.74141 10.34481,-20.00411 8.51048,-8.52549 14.11288,-10.83124 25.67296,-10.56598 8.36507,0.19194 11.01455,2.71708 9.43874,8.99562 -0.97152,3.87083 -1.2511,3.95604 -10.4842,3.19488 -5.21733,-0.43006 -11.53812,-0.1862 -14.04621,0.54196 -4.1971,1.21851 -4.89226,2.46541 -8.73111,15.66096 -5.07249,17.4359 -4.95716,19.63163 0.79314,15.09848 2.4654,-1.94358 8.3809,-4.04103 14.21571,-5.04049 8.91559,-1.52719 10.19959,-1.42953 11.90697,0.90542 1.05253,1.43945 1.60111,4.25259 1.21901,6.25147 -0.63794,3.33714 -1.45943,3.6496 -10.04923,3.82241 -11.19029,0.2251 -20.44749,2.21046 -23.16561,4.96827 -1.09065,1.10655 -2.4568,7.31308 -3.0359,13.79228 l -1.05291,11.78036 7.2105,0 c 7.75833,0 24.97046,-3.90285 27.334,-6.19799 2.07281,-2.01279 3.87614,-1.72764 3.87614,0.61287 0,5.75453 -19.04194,15.57519 -33.10861,17.0754 -8.43651,0.89975 -9.06073,0.73493 -11.53857,-3.0467 z m 68.40237,0 c -1.75702,-2.68154 -2.53112,-6.60658 -2.3511,-11.92089 0.43601,-12.86978 2.85652,-32.89332 5.55149,-45.92422 2.32861,-11.2596 3.0949,-12.74141 10.3448,-20.00411 8.51048,-8.52549 14.11289,-10.83124 25.67293,-10.56598 8.36509,0.19194 11.0146,2.71708 9.43877,8.99562 -0.97152,3.87083 -1.25111,3.95604 -10.48421,3.19488 -5.21731,-0.43006 -11.53811,-0.1862 -14.0462,0.54196 -4.1971,1.21851 -4.89225,2.46541 -8.73111,15.66096 -5.07248,17.4359 -4.95714,19.63163 0.79313,15.09848 2.46542,-1.94358 8.38091,-4.04103 14.21571,-5.04049 8.91561,-1.52719 10.19959,-1.42953 11.90698,0.90542 1.05255,1.43945 1.60111,4.25259 1.21901,6.25147 -0.63796,3.33714 -1.45942,3.6496 -10.04926,3.82241 -11.19026,0.2251 -20.44746,2.21046 -23.1656,4.96827 -1.09062,1.10655 -2.4568,7.31308 -3.0359,13.79228 l -1.05291,11.78036 7.2105,0 c 7.75834,0 24.97048,-3.90285 27.33404,-6.19799 2.07277,-2.01279 3.87612,-1.72764 3.87612,0.61287 0,5.75453 -19.04196,15.57519 -33.10861,17.0754 -8.43651,0.89975 -9.06075,0.73493 -11.53858,-3.0467 z m 230.9937,2.42334 c -0.50699,-0.82036 -0.31823,-3.08798 0.41949,-5.03918 4.19193,-11.08748 11.06358,-65.10958 8.28194,-65.10958 -0.78729,0 -6.68982,4.84525 -13.11672,10.76723 -9.72873,8.96438 -11.6853,10.2123 -11.6853,7.45298 0,-1.91242 5.38136,-9.84224 12.72249,-18.7475 17.02399,-20.65122 18.23679,-21.67959 23.00491,-19.50707 4.30179,1.96001 4.32252,2.15228 2.24291,20.7944 -2.32421,20.83464 -9.40652,54.50645 -12.94928,61.56548 -2.58142,5.1435 -7.76631,9.69064 -8.92044,7.82324 z m 43.57086,-0.13166 c -5.08149,-1.2647 -9.5097,-4.14641 -9.5097,-6.18864 0,-0.63874 3.2491,-1.62183 7.22025,-2.18463 18.20317,-2.5799 31.30592,-8.46382 28.59951,-12.84292 -0.52764,-0.85373 -6.75866,-5.90468 -13.84674,-11.22434 -21.73235,-16.31033 -24.25872,-22.68666 -15.9486,-40.2526 3.1245,-6.60464 5.71234,-9.97646 8.45803,-11.02035 5.49511,-2.08923 35.6793,-1.97682 35.6793,0.13286 0,0.90034 -1.91655,3.55353 -4.25904,5.89601 -3.41017,3.41016 -6.21256,4.48192 -14.0605,5.3774 -11.85041,1.35226 -14.40661,2.57845 -17.38598,8.33986 -4.98212,9.63435 -2.92498,12.98007 16.21107,26.36533 16.64777,11.64484 20.07517,18.81349 13.18366,27.57463 -5.97589,7.59709 -23.52115,12.72013 -34.34126,10.02731 z M 403.12881,480.8617 c -10.29831,-4.74385 -8.86122,-8.77885 10.41469,-29.2419 15.95671,-16.93946 24.05013,-27.91517 24.05013,-32.61502 0,-1.62862 -2.4041,-3.93808 -6.01962,-5.78258 -10.59659,-5.40593 -21.86761,-3.33527 -24.60615,4.52054 -1.89697,5.44162 -3.55644,5.81185 -5.14863,1.14874 -5.23616,-15.3358 2.33639,-23.56971 20.14703,-21.90654 11.87171,1.10857 19.63042,4.63964 22.53456,10.25566 5.26054,10.17269 1.62824,18.62263 -18.30929,42.59332 -9.75271,11.72557 -13.85515,17.75193 -12.80285,18.80682 0.85168,0.85379 9.04025,1.78385 18.19691,2.06682 9.15663,0.28299 16.64843,1.08915 16.64843,1.7915 0,1.64956 -4.01904,5.65771 -7.58866,7.56814 -5.06339,2.7098 -32.11498,3.28267 -37.51655,0.79443 z m 62.85062,-2.27968 c -7.31904,-6.42619 -9.23207,-13.78411 -8.10913,-31.1896 0.92403,-14.32229 7.5788,-39.9699 12.20153,-47.02508 3.03269,-4.62841 6.20907,-5.16361 5.08269,-0.8564 -1.06889,4.08739 -0.11924,3.84657 5.99286,-1.52004 2.85655,-2.50806 6.57195,-4.56014 8.25644,-4.56014 5.87889,0 11.69859,4.43155 15.13094,11.52175 3.01295,6.22396 3.30562,8.57495 2.51241,20.1821 -2.16868,31.73398 -14.35456,55.47429 -29.5189,57.50827 -5.18856,0.69591 -6.76076,0.14303 -11.54884,-4.06086 z m 16.31676,-7.02582 c 3.89499,-1.49465 12.81917,-17.66006 15.47737,-28.03599 6.07173,-23.70023 -3.40937,-41.57332 -18.28928,-34.47761 -4.14102,1.9747 -5.63881,3.89502 -7.04205,9.02865 -4.42602,16.19234 -3.9289,43.48713 0.92704,50.89817 2.33484,3.5634 4.64064,4.23157 8.92692,2.58678 z"
       style="fill:#008000;fill-opacity:1" />
    <g
       transform="matrix(1.3333333,0,0,1.3333348,-123.33333,-236.11264)"
       id="g3871">
      <path
         inkscape:connector-curvature="0"
         id="path3857-3"
         d="m 407.86921,446.50361 c 1.12829,-2.3473 4.95032,-4.15171 19.21374,-11.14617 10.14204,-4.97343 11.41565,-3.08282 9.31385,-1.60766 -2.66795,1.87251 -2.38295,1.40937 -19.13666,9.90914 -6.07433,3.08171 -7.60676,3.72499 -9.39093,2.84469 z m 38.53156,1.82767 c 0.89314,-0.72223 5.572,-3.71666 6.56211,-4.40196 3.26468,-1.5742 3.75867,-0.88835 2.83894,0.44424 -1.27309,1.84461 -6.27668,5.19181 -8.7311,6.78051 -4.20712,2.61473 -5.34827,0.66974 -0.66995,-2.82279 z m 49.7053,-1.88485 c -27.61167,-9.58807 1.46324,0.85619 -27.21691,-9.78751 -6.92746,-2.57091 -5.10843,-5.99943 6.14777,-1.72213 20.46912,7.77818 32.59995,11.31951 32.59995,13.0624 0,0.90489 -1.9467,1.98342 -11.53081,-1.55276 z M 377.59084,433.20258 c 1.87981,-1.39262 23.005,-12.68361 27.05126,-13.46607 3.61539,-0.53527 2.15407,0.649 1.6344,1.50573 -1.41511,1.49038 -15.50609,8.53696 -18.85967,10.08471 -7.93478,3.66205 -13.07108,5.1974 -9.82599,1.87563 z m 63.27541,-10.15038 c -30.26196,-14.0323 -43.39668,-21.77757 -36.93119,-21.77757 1.68112,0 46.7839,22.11085 48.77094,23.9091 0.82283,0.74466 1.49607,1.67086 1.49607,2.05823 0,1.50026 -3.30198,0.46288 -13.33582,-4.18976 z m 31.09063,1.72461 c -1.30735,-0.704 -4.58474,-10.38011 -4.61836,-13.08324 -0.0269,-2.26337 1.82114,-2.35676 4.2974,6.06456 1.61742,5.50052 2.01846,8.08314 0.32096,7.01868 z m -26.71237,-11.54184 c -2.39282,-4.3281 -4.18093,-12.57557 -4.62295,-15.43121 -0.5236,-3.38285 1.53058,-2.32773 2.01642,-1.48361 1.06747,1.85462 5.07861,14.35512 4.73752,17.30691 -0.24317,1.04317 -0.42844,0.69675 -0.90322,0.58192 -0.40926,-0.13168 -0.87642,-0.72654 -1.22777,-0.97401 z m -26.64098,-18.97413 c -2.3857,-6.06085 -5.58458,-15.07542 -5.58458,-17.39259 0,-2.49904 0.78649,-2.80061 2.44601,-0.26784 1.57931,2.41032 5.56173,14.10908 6.39984,18.49261 0.70913,3.70891 -1.25678,3.41057 -3.26127,-0.83218 z M 287.06662,359.27688 c -1.63411,-1.01523 0.82698,-1.73968 6.87107,-3.76852 34.20797,-11.48267 34.05625,-6.04027 6.85796,1.04711 -5.11017,1.33161 -13.27658,4.04224 -13.72903,2.72141 z M 262.7029,342.73789 c 0.39366,-1.181 11.01823,-3.92596 16.67091,-5.5666 28.4916,-8.2694 36.31845,-6.12919 4.58955,2.18069 -7.97653,2.08907 -22.47019,6.36 -21.26046,3.38591 z m 64.72624,-6.12778 c -6.59595,-5.51076 -24.9219,-27.25537 -24.9219,-29.57103 0,-2.78059 6.77067,3.65171 19.79405,18.8048 10.87299,12.65103 13.17911,17.49288 5.12785,10.76623 z m 10.18306,-14.7748 c 2.38218,-10.92238 7.58263,-27.69453 8.50094,-29.84039 3.19177,-7.45835 2.72932,-0.1611 2.23259,1.76208 -5.5988,21.67647 -7.37449,28.53045 -8.99203,30.95111 -1.70004,2.54413 -2.72019,1.92229 -1.7415,-2.8728 z m -97.61657,-0.50863 c 0,-1.87499 33.75674,-10.08807 41.25766,-10.03806 8.20023,0.0547 -2.44177,3.44534 -27.36342,8.71832 -10.52597,2.22712 -13.89424,2.54704 -13.89424,1.31974 z m 76.58212,-21.54805 c 0.66065,-4.13147 7.42803,-31.22959 11.13316,-43.93958 2.74991,-9.43325 5.14923,-12.65905 4.58805,-6.51898 -0.46704,5.11005 -10.53167,46.12361 -13.39943,53.00832 -1.57685,3.78557 -2.95273,1.39597 -2.32178,-2.54976 z m -24.85816,-4.5419 c -12.53188,-17.20266 4.85981,8.16362 -14.59045,-21.2818 -7.83744,-11.86497 -9.06221,-16.85568 -4.75666,-13.53992 1.54493,1.18976 1.59132,0.95288 8.08701,11.66884 2.85457,4.70922 7.36149,11.6364 9.56486,15.30375 3.87372,6.44752 5.21409,8.86743 3.79495,8.86743 -0.37264,0 -0.58798,1.05294 -2.09971,-1.0183 z m -67.56123,-6.50109 c -8.13318,-1.60067 -2.34294,-2.65108 0.63987,-2.78061 14.81875,-0.63852 45.50592,-0.0868 48.32855,0.82675 5.91915,1.91579 1.35193,2.42325 -19.21601,2.31016 -12.4919,-0.0687 -21.54381,0.29786 -29.75241,-0.3563 z m 72.51445,-20.40581 c 0,-2.28521 8.11666,-36.36664 10.96631,-46.04694 1.90505,-6.47151 3.20299,-7.78453 3.20299,-3.2402 0,6.02841 -8.73302,44.00236 -11.22974,48.8305 -1.5945,3.08343 -2.93956,3.29238 -2.93956,0.45664 z"
         style="fill:#009933;fill-opacity:1"
         sodipodi:nodetypes="cssscccscccsssccccsccsssccssccssccccsssccssccssccssccsssccssccsssccsssssccsssccsssc" />
      <path
         inkscape:connector-curvature="0"
         style="fill:#884400;fill-opacity:1"
         d="m 324.38512,431.38277 c 0,-1.54103 4.98899,-12.93396 6.18951,-14.1345 0.99989,-0.99988 1.66648,-1.06068 3.32823,-0.30353 2.24559,1.02316 7.48298,9.35316 6.49922,10.33692 -0.32963,0.32965 -3.13919,1.55534 -6.24345,2.72379 -5.73801,2.15978 -9.77351,2.72847 -9.77351,1.37732 z m 10.35722,-4.5226 c 1.41792,-1.03681 1.42613,-1.25955 0.1379,-3.75071 -0.75326,-1.45663 -1.88584,-2.64841 -2.51684,-2.64841 -1.09931,0 -2.97736,4.02154 -2.97736,6.37554 0,1.4434 3.39414,1.45834 5.3563,0.0236 z m 15.15335,1.45085 c -0.93718,-2.44226 -0.51561,-9.18508 0.67625,-10.81626 0.99986,-1.3684 2.43032,-1.66302 9.27558,-1.91038 8.19911,-0.29632 9.98019,0.27477 8.98066,2.87954 -0.96219,2.5074 -14.32467,11.1655 -17.23231,11.1655 -0.65684,0 -1.42193,-0.59327 -1.70018,-1.3184 z m 9.6647,-5.4578 c 2.23597,-1.43482 3.91943,-3.02888 3.741,-3.54233 -0.48819,-1.40498 -7.90017,-1.05106 -9.40009,0.44884 -1.3923,1.39232 -0.85178,5.70225 0.71515,5.70225 0.48321,0 2.70797,-1.17395 4.94394,-2.60876 z m -47.51249,2.04798 c -3.22292,-1.58836 -5.1449,-4.87739 -5.40034,-9.24149 -0.17935,-3.06413 -0.10852,-3.14134 4.19127,-4.56789 2.40554,-0.79809 6.43754,-1.69363 8.96,-1.9901 4.49464,-0.52826 4.58629,-0.49682 4.58629,1.57309 0,2.66201 -4.56705,13.99794 -6.00778,14.91195 -1.59211,1.01007 -3.2541,0.83005 -6.32944,-0.68556 z m 7.25446,-7.2406 c 2.6463,-6.20094 1.90308,-7.02721 -4.5042,-5.0075 -2.62611,0.82782 -4.95037,1.9628 -5.16503,2.52217 -1.00391,2.61617 4.19519,8.33331 6.82034,7.4999 0.45099,-0.14317 1.73298,-2.39973 2.84889,-5.01457 z m 56.38652,-2.40886 c -0.17609,-0.57303 -0.53011,-3.08185 -0.7867,-5.57517 -0.2566,-2.49332 -1.27426,-7.25414 -2.26148,-10.57961 -2.51158,-8.4603 -2.16882,-8.98967 5.4478,-8.41363 7.88834,0.5966 9.64172,1.51819 9.64172,5.06784 0,3.59239 -2.21865,11.04333 -4.37957,14.70801 -2.84308,4.82155 -6.87734,7.34505 -7.66177,4.79256 z m 7.38969,-12.29127 c 1.65777,-5.90821 0.98577,-7.8622 -2.97642,-8.65465 -4.13134,-0.82625 -4.54725,0.28533 -2.84304,7.59852 0.82939,3.55911 1.68273,6.77064 1.8963,7.1367 0.82407,1.41241 2.58773,-1.32111 3.92316,-6.08057 z m -49.32805,1.85703 c -7.30151,-9.00759 -8.53191,-10.94837 -8.53191,-13.45789 0,-3.38463 8.28323,-3.28945 15.06063,0.17304 4.27131,2.18216 5.61823,5.17583 5.71316,12.69827 0.0694,5.49733 -1.44354,8.72872 -4.08674,8.72872 -0.96136,0 -4.07527,-3.10895 -8.15514,-8.14214 z m 9.00474,1.41184 c 1.27242,-2.37756 0.21511,-7.89064 -2.00926,-10.47662 -1.99007,-2.31359 -9.38642,-4.27024 -10.79969,-2.85698 -0.48884,0.48884 0.61411,2.44933 2.93351,5.21434 2.04429,2.43703 4.55798,5.64993 5.58599,7.13979 2.1797,3.15899 3.02028,3.35093 4.28945,0.97947 z m 16.91648,3.18797 c -2.06849,-2.31255 -4.84109,-6.90253 -7.50464,-12.42384 -2.81903,-5.84359 -1.90921,-6.80266 6.07109,-6.39966 8.552,0.43185 9.79867,1.69827 9.29949,9.44675 -0.62671,9.72829 -3.97806,13.72335 -7.86594,9.37675 z m 4.5497,-8.6632 c 0.18447,-3.83307 -0.0898,-5.43959 -1.10139,-6.45117 -1.60217,-1.60217 -7.05885,-1.8377 -7.06987,-0.30517 -0.004,0.57303 1.21486,3.55715 2.70884,6.6314 3.49554,7.19299 5.12049,7.23016 5.46242,0.12494 z m -61.08199,3.05055 c -0.65515,-1.06007 4.80936,-12.6471 6.70732,-14.22228 2.08347,-1.72912 11.19937,8.24766 9.68493,10.59954 -1.85015,2.87326 -15.05221,5.79097 -16.39225,3.62274 z m 12.65921,-4.72741 c 0.5865,-1.52844 -2.39658,-4.45436 -4.54143,-4.45436 -1.55697,0 -3.47932,2.39287 -3.51536,4.37581 -0.0374,2.05831 7.26975,2.12955 8.05679,0.0785 z m 153.19894,-0.783 c -9.28102,-2.27606 -9.03989,-5.12484 0.7256,-8.57235 7.37343,-2.60305 10.35337,-2.19425 12.36455,1.69621 0.86615,1.67551 1.65033,4.11346 1.74259,5.41768 0.16594,2.34564 0.11366,2.37298 -4.83317,2.5278 -2.75051,0.0861 -7.25032,-0.39511 -9.99957,-1.06934 z m 10.41631,-2.47592 c 0,-4.12187 -2.98513,-5.43595 -8.21051,-3.61437 -3.52683,1.22946 -3.31274,2.90412 0.50075,3.91696 4.91993,1.30672 7.70976,1.19722 7.70976,-0.30259 z m -31.74472,-0.29455 c -3.98673,-2.50431 -9.23269,-8.0515 -11.24366,-11.88925 -1.07415,-2.04992 -1.00596,-2.4328 0.81637,-4.5842 1.09363,-1.2911 4.05323,-3.45611 6.5769,-4.81114 5.73737,-3.08056 6.81871,-2.42008 7.61902,4.65369 0.31605,2.79355 1.29661,7.38185 2.17903,10.19622 0.88241,2.81437 1.60924,5.96095 1.61515,6.99239 0.0152,2.63963 -2.80377,2.43174 -7.56281,-0.55771 z m 1.90988,-4.23485 c 0.49265,-1.20259 -2.13461,-12.54462 -3.08937,-13.337 -1.69936,-1.41035 -6.65611,3.24216 -5.92117,5.55776 1.22684,3.86544 8.1613,9.85228 9.01054,7.77924 z m 42.33716,-1.69374 c 0,-4.97625 1.87903,-9.9751 3.74956,-9.9751 2.43684,0 6.02041,2.39797 9.51283,6.36557 1.89827,2.15654 3.31982,4.32577 3.159,4.82051 -0.35102,1.07991 -7.94188,2.79085 -12.87906,2.90286 l -3.54233,0.0804 0,-4.1942 z m 9.8725,-0.23412 c 0.68687,-0.82761 0.29899,-1.76141 -1.5912,-3.83093 -2.04852,-2.24282 -2.72029,-2.55329 -3.72341,-1.72079 -1.24154,1.0304 -1.68517,5.07353 -0.66827,6.09043 0.96705,0.96707 5.03738,0.60056 5.98288,-0.53871 z m -118.22352,-3.48343 c -0.45976,-1.20923 -0.83591,-3.11372 -0.83591,-4.23217 0,-1.11846 -0.93768,-3.97726 -2.08373,-6.35291 -2.5587,-5.30393 -2.58183,-6.15396 -0.20837,-7.65703 3.28084,-2.0777 6.92164,-2.43706 8.51795,-0.84076 1.18461,1.18462 1.3788,2.66383 1.12721,8.58685 -0.32223,7.58602 -1.80919,11.94897 -4.23141,12.41544 -0.94283,0.18158 -1.74213,-0.48962 -2.28574,-1.91942 z m 3.99047,-13.34221 c -0.1808,-1.86654 -0.71764,-2.56798 -2.11755,-2.7668 -2.10587,-0.29908 -2.16773,-0.0768 -1.1181,4.01703 0.41137,1.60447 1.02594,4.04243 1.36569,5.41769 l 0.61773,2.50047 0.74722,-3.33396 c 0.41097,-1.83368 0.63823,-4.45918 0.50501,-5.83443 z m -45.66731,10.83158 c -10.65286,-7.0633 -11.66883,-7.89427 -11.66883,-9.5441 0,-2.17593 2.40534,-3.36349 8.62954,-4.26057 9.1268,-1.31544 12.20767,1.00871 12.20767,9.20922 0,4.75769 -1.17894,8.38406 -2.68821,8.26877 -0.58437,-0.0447 -3.50045,-1.69764 -6.48017,-3.67332 z m 6.65515,-4.78878 c -0.007,-1.48986 -0.33641,-3.21968 -0.73201,-3.84406 -1.51094,-2.38482 -12.64097,-2.94848 -12.55698,-0.63594 0.0423,1.16648 9.85413,7.08635 11.84315,7.14547 1.10134,0.0328 1.45548,-0.62012 1.44584,-2.66547 z m 17.88752,5.63532 c -4.04767,-4.29178 -10.37336,-13.3176 -10.37336,-14.80123 0,-3.10863 13.60052,-4.05402 16.50713,-1.14743 1.79038,1.7904 2.29806,10.76425 0.85394,15.09451 -1.47672,4.42802 -3.39588,4.66261 -6.98771,0.85415 z m 4.62942,-6.3364 c 0,-1.82134 -0.55315,-4.63544 -1.22924,-6.25353 -1.13503,-2.71651 -1.4699,-2.92209 -4.36889,-2.68208 -2.00273,0.16581 -3.22649,0.71947 -3.37954,1.52895 -0.30242,1.59975 7.20849,11.81162 8.22532,11.18318 0.41379,-0.25574 0.75235,-1.95517 0.75235,-3.77652 z m 88.63272,4.70618 c -4.95784,-5.11869 -6.11822,-8.08148 -4.3702,-11.15841 1.9196,-3.37895 6.9724,-6.94677 10.04396,-7.09212 l 2.79488,-0.13225 0.62185,7.91814 c 0.34202,4.35498 0.41279,9.5122 0.15729,11.46047 -0.41342,3.15258 -0.70592,3.54233 -2.65838,3.54233 -1.56266,0 -3.4585,-1.30568 -6.5894,-4.53816 z m 5.7318,-4.28716 c -0.4048,-7.01057 -1.11895,-10.34492 -2.21564,-10.34492 -1.3409,0 -5.46612,3.78547 -5.46612,5.01593 0,2.47166 5.53181,10.22864 6.95233,9.74892 0.60217,-0.20337 0.87681,-1.86751 0.72943,-4.41993 z m -150.62497,3.38361 c -1.83368,-0.66061 -3.42772,-1.20674 -3.54233,-1.21365 -0.1146,-0.007 -0.20922,-0.85646 -0.21028,-1.8879 -0.002,-1.24937 2.07834,-3.85811 6.23028,-7.81547 6.8018,-6.48302 9.16672,-7.69375 10.42732,-5.33827 1.23635,2.31012 -2.03078,13.32664 -4.6425,15.65421 -2.42946,2.16515 -3.67044,2.25542 -8.26249,0.60108 z m 7.47006,-4.81209 c 0.69152,-1.05541 1.49719,-3.11829 1.79037,-4.5842 0.72941,-3.64707 -0.80463,-3.44186 -5.50974,0.73705 -3.60225,3.1994 -3.68666,3.37942 -2.13278,4.54865 2.32746,1.75132 4.40844,1.50187 5.85215,-0.7015 z m 184.51697,1.2842 c -5.4376,-4.55363 -7.30041,-7.26907 -5.92809,-8.64141 1.17327,-1.17327 11.57359,-4.0597 14.62781,-4.0597 1.92071,0 2.58679,0.56034 3.62785,3.05195 0.78704,1.88364 1.07713,4.1077 0.75779,5.80989 -0.66623,3.55133 -4.25355,7.81067 -6.56793,7.79834 -0.9907,-0.005 -3.92355,-1.78686 -6.51743,-3.95907 z m 9.00952,-2.19455 c 1.84436,-3.86766 0.98897,-7.1726 -1.85643,-7.1726 -4.28243,0 -9.61394,1.82201 -9.34951,3.19513 0.30279,1.57224 6.96081,6.80674 8.65784,6.80674 0.65941,0 1.80605,-1.27318 2.5481,-2.82927 z m -34.47288,3.45438 c -2.68403,-2.93537 -4.45625,-7.01841 -4.98534,-11.48579 -0.42606,-3.59737 -0.20449,-4.47218 1.79744,-7.09684 5.17084,-6.77934 12.62898,-9.92261 14.63777,-6.16915 0.70747,1.32193 0.54544,2.887 -0.71189,6.87627 -0.89532,2.84064 -2.28908,7.75363 -3.09727,10.91776 -1.33908,5.24271 -3.46808,8.8331 -5.23775,8.8331 -0.3785,0 -1.45985,-0.8439 -2.40296,-1.87535 z m 5.27176,-11.24988 c 1.04896,-4.01239 2.15641,-8.13916 2.46099,-9.1706 0.9089,-3.07803 -2.53294,-2.34755 -6.53696,1.38736 -3.05532,2.84998 -3.48656,3.69215 -3.40881,6.65718 0.0607,2.31493 0.81252,4.343 2.36403,6.37714 1.25126,1.64048 2.48618,2.77153 2.74427,2.51344 0.2581,-0.2581 1.32751,-3.75213 2.37648,-7.76452 z m -55.82318,6.44858 c -3.01152,-2.64415 -8.03555,-11.55138 -8.03555,-14.24644 0,-3.28164 8.47864,-5.70261 10.64558,-3.03972 0.4663,0.57302 1.0629,4.04242 1.32576,7.70977 0.26287,3.66736 0.58364,7.75651 0.71284,9.08701 0.32733,3.37101 -1.1853,3.53024 -4.64863,0.48938 z m -0.17865,-9.94874 c -0.52061,-4.60157 -0.76272,-5.10576 -2.34339,-4.88017 -1.39621,0.19927 -1.71034,0.7446 -1.51055,2.6223 0.23232,2.18346 3.54641,8.27778 4.16503,7.65914 0.14824,-0.14822 0.009,-2.57879 -0.31109,-5.40127 z m 12.62498,0.47763 c -6.6866,-6.68661 -6.19885,-10.71564 1.96017,-16.19193 3.57238,-2.39776 6.05313,-3.50143 7.49374,-3.33396 2.01698,0.2345 2.14472,0.5146 2.01481,4.41782 -0.19021,5.71515 -4.43018,18.257 -6.28797,18.59991 -0.81762,0.15091 -3.02741,-1.33849 -5.18075,-3.49184 z m 5.85861,-7.64822 c 2.29354,-6.91954 2.38441,-7.8766 0.74788,-7.8766 -1.92105,0 -7.91814,6.42985 -7.91814,8.48954 0,1.99117 3.17311,5.87231 4.4524,5.44588 0.43876,-0.14627 1.66181,-2.87273 2.71786,-6.05882 z m -104.27162,6.94369 c -2.75051,-1.43154 -7.25134,-3.38312 -10.00186,-4.33685 -6.35453,-2.2034 -6.68868,-4.10182 -1.25023,-7.10314 3.0404,-1.6779 5.22295,-2.1344 11.52493,-2.41059 5.25594,-0.23033 8.09082,-0.0238 8.75162,0.6375 1.02396,1.0248 1.13383,11.11014 0.15465,14.1953 -0.75263,2.37129 -3.24901,2.10417 -9.17911,-0.98222 z m 6.09084,-6.28659 c 0.22574,-3.1145 0.009,-3.63175 -1.81678,-4.32573 -2.89447,-1.10047 -12.1922,0.1432 -12.1922,1.63084 0,1.06377 10.89412,6.65588 12.50233,6.41762 0.83665,-0.12395 1.33506,-1.35544 1.50665,-3.72273 z m 18.2943,2.58116 c -2.07163,-1.67993 -5.4019,-3.6585 -7.40059,-4.39681 -4.7199,-1.74352 -5.14994,-3.7304 -1.09695,-5.06801 3.55262,-1.17247 11.6875,-0.49857 16.0661,1.33092 2.67453,1.1175 2.82241,1.38221 2.36092,4.22607 -0.5012,3.08853 -3.37933,6.96228 -5.17287,6.96228 -0.54449,0 -2.68497,-1.3745 -4.75661,-3.05445 z m 6.72294,-3.88847 c 0.34413,-1.77438 -3.32405,-3.22591 -7.3066,-2.89128 l -2.96428,0.24908 4.16745,2.251 c 4.52718,2.44531 5.6906,2.51987 6.10343,0.3912 z m 124.89312,3.05331 c -1.12092,-1.12092 -0.4873,-4.9739 1.53087,-9.30911 l 2.07026,-4.44708 3.1309,1.88784 c 6.66537,4.01901 10.267,6.95718 10.0309,8.18311 -0.45974,2.38728 -14.88876,5.55942 -16.76293,3.68524 z m 7.89089,-2.91023 c 1.77225,-0.53098 3.22228,-1.45902 3.22228,-2.06232 0,-0.92805 -3.98968,-3.64017 -5.35488,-3.64017 -0.84271,0 -3.04277,5.05856 -2.54813,5.8589 0.6293,1.01824 0.77652,1.01333 4.68073,-0.15641 z m -41.25162,0.9091 c -4.78498,-3.76387 -7.0053,-11.69051 -4.09095,-14.60488 2.22018,-2.22017 11.58883,-6.33413 13.73235,-6.03013 3.45547,0.49008 2.93775,4.98823 -1.60932,13.98248 -2.19029,4.33247 -4.38775,7.99951 -4.88325,8.14899 -0.49549,0.14947 -1.91246,-0.52393 -3.14883,-1.49646 z m 4.83911,-9.73184 c 4.44698,-8.3747 4.06857,-9.2675 -2.23392,-5.27058 -5.90885,3.74729 -6.55541,6.09895 -2.93462,10.67375 1.19272,1.50697 1.8817,0.78672 5.16854,-5.40317 z m -39.96333,1.50154 c -0.91684,-0.3847 -2.54302,-1.64277 -3.61373,-2.79569 -2.32737,-2.50607 -1.81062,-3.94529 2.90228,-8.08327 8.72298,-7.65888 19.93247,-7.79649 12.56409,-0.15424 -1.62627,1.68674 -4.04695,4.94204 -5.37926,7.23403 -2.51069,4.31915 -3.64608,4.98549 -6.47338,3.79917 z m 7.88948,-12.39129 c -0.86458,-0.32613 -6.71182,3.33725 -8.21213,5.145 -0.91729,1.10525 -0.93145,1.60488 -0.0748,2.63708 0.91581,1.10348 1.585,0.68626 5.01316,-3.12559 2.17593,-2.41948 3.64913,-4.51491 3.27377,-4.65649 z m 44.73197,2.24526 c -4.89257,-5.40646 -6.51977,-8.77875 -4.76057,-9.86599 2.98037,-1.84196 19.4414,4.73915 19.90095,7.9564 0.29709,2.07991 -4.3289,5.94699 -7.99002,6.67921 -2.13135,0.42628 -2.93116,-0.10724 -7.15036,-4.76962 z m 9.00914,-0.68507 c 1.91091,-2.11153 1.27674,-2.95295 -3.43586,-4.5587 -6.86359,-2.33865 -7.71514,-1.55686 -3.51491,3.22694 2.91791,3.32332 4.81884,3.68752 6.95077,1.33176 z m -39.37756,1.82283 c -2.31297,-3.28293 -5.16652,-9.10061 -5.16652,-10.53328 0,-4.48101 18.06298,-10.00129 23.39247,-7.14904 2.41363,1.29175 1.9676,2.88305 -1.60011,5.70874 -1.76675,1.39928 -4.84066,4.71267 -6.83092,7.36306 -5.8261,7.75852 -7.14094,8.37743 -9.79492,4.61052 z m 8.08682,-8.44807 c 2.33746,-2.69815 4.24991,-5.37272 4.24991,-5.94347 0,-2.58644 -11.85481,1.68437 -12.36776,4.45559 -0.38753,2.0937 1.49645,6.39362 2.80129,6.39362 0.58667,0 2.97911,-2.20757 5.31656,-4.90574 z m -79.88171,-14.43029 c -4.94816,-2.44925 -11.12003,-8.41779 -10.74396,-10.39001 0.38262,-2.00652 3.29844,-2.36526 6.35933,-0.7824 1.34573,0.6959 4.56051,1.42394 7.14395,1.61788 7.15212,0.53688 8.50652,2.45998 5.98416,8.49685 -1.4556,3.48373 -3.3735,3.71573 -8.74348,1.05768 z m 5.59252,-3.20749 c 0.17378,-0.90243 -1.33235,-1.78312 -5.19973,-3.04051 -2.99442,-0.97356 -5.44439,-1.46435 -5.44439,-1.09066 0,1.11294 7.7599,5.90992 9.13262,5.64555 0.69676,-0.13419 1.37692,-0.81565 1.5115,-1.51438 z m 12.78839,0.38734 c -3.79451,-4.82394 -3.00794,-7.70496 2.55176,-9.34653 2.00297,-0.59141 5.29236,-2.38146 7.30977,-3.9779 2.0174,-1.59643 4.07192,-2.76985 4.56559,-2.60759 2.92149,0.96027 -0.0117,8.26656 -5.96333,14.85437 -3.45137,3.82025 -6.04653,4.15068 -8.46379,1.07765 z m 6.21001,-2.65865 c 1.88929,-1.5812 4.84713,-5.98545 4.35216,-6.48042 -0.17134,-0.17134 -1.98289,0.79718 -4.02567,2.15224 -2.04278,1.35508 -4.06293,2.58174 -4.48921,2.72593 -1.11433,0.37689 0.10042,3.08297 1.37403,3.06085 0.58741,-0.0102 1.84232,-0.66657 2.78869,-1.4586 z m -46.76021,-11.12839 c -2.48355,-2.34884 -5.46165,-5.88503 -6.618,-7.85819 -2.09325,-3.57186 -2.78126,-8.19049 -1.35168,-9.07401 0.41292,-0.25519 3.31971,0.61899 6.45953,1.94265 3.13983,1.32366 7.02151,2.66233 8.62598,2.97485 6.51976,1.26991 8.33488,2.17411 8.33488,4.15199 0,2.8642 -7.48548,12.13336 -9.79851,12.13336 -0.62514,0 -3.16862,-1.9218 -5.6522,-4.27065 z m 8.74478,-2.95498 c 0.96246,-1.22357 1.62303,-2.63009 1.46792,-3.12558 -0.32531,-1.03922 -10.07872,-4.50005 -12.93748,-4.59066 -1.91916,-0.0609 -1.91988,-0.0565 -0.41675,2.52104 2.00525,3.43851 6.59779,7.41988 8.55889,7.41988 0.86762,0 2.36495,-1.0011 3.32742,-2.22468 z m 19.20825,4.23909 c -7.88208,-4.48243 -10.42023,-8.7642 -6.15623,-10.38539 2.72777,-1.03709 18.70976,-3.14273 20.11715,-2.65044 1.50508,0.52645 1.24872,4.23403 -0.56963,8.23881 -3.30481,7.27855 -6.81595,8.53632 -13.39129,4.79702 z m 7.8808,-1.69865 c 1.88842,-0.72466 4.14534,-5.29277 3.12103,-6.31709 -1.11552,-1.11551 -13.68775,0.28893 -14.11367,1.57663 -0.33102,1.00078 3.40841,3.30361 7.27389,4.47944 1.14902,0.34952 2.15221,0.66771 2.22932,0.70712 0.0771,0.0394 0.74735,-0.16134 1.48943,-0.4461 z m 19.20757,-5.05119 c -1.37526,-0.73411 -3.92687,-2.45416 -5.67026,-3.82237 -4.28514,-3.36298 -3.87504,-5.21339 1.91955,-8.66126 2.52131,-1.50019 6.55707,-4.45506 8.96836,-6.56635 5.87006,-5.13976 7.2891,-4.80439 7.27034,1.71817 -0.0205,7.11364 -5.65482,18.81374 -9.00522,18.69993 -0.54026,-0.0184 -2.10752,-0.63401 -3.48277,-1.36812 z m 6.08209,-6.30829 c 2.00988,-3.33224 3.84752,-8.89333 3.16447,-9.57638 -0.7562,-0.7562 -12.16377,7.28657 -12.16377,8.57592 0,1.50933 3.28289,3.70931 5.53514,3.70931 1.17414,0 2.41603,-0.97113 3.46416,-2.70885 z m -52.51086,-5.87891 c -9.13206,-7.44428 -8.53478,-10.32098 2.29701,-11.06303 8.93396,-0.61204 14.04306,0.35977 14.38514,2.73621 0.31648,2.1987 -1.79365,6.53923 -4.67748,9.62155 -3.24694,3.47039 -6.60321,3.10841 -12.00467,-1.29473 z m 10.97304,-1.57128 c 3.35547,-3.60166 2.38019,-4.55891 -5.17221,-5.07656 -3.77943,-0.25906 -7.04801,-0.29465 -7.26354,-0.0791 -1.33013,1.33014 6.16188,6.93585 9.31017,6.96612 0.78438,0.008 2.1909,-0.80715 3.12558,-1.81043 z m 17.73097,-0.77059 c -3.91062,-1.9357 -7.01791,-5.29214 -6.32789,-6.83521 0.64696,-1.44678 16.36201,-8.95369 19.1615,-9.15326 3.20678,-0.2286 3.52186,2.21351 1.11567,8.64757 -3.36837,9.00695 -6.86547,10.84733 -13.94928,7.3409 z m 8.25683,-3.7876 c 2.53188,-2.88299 4.25959,-7.07755 3.30739,-8.02975 -0.62397,-0.62397 -1.32043,-0.50092 -2.36303,0.41749 -0.81306,0.71622 -3.44741,2.28897 -5.8541,3.49501 -2.40671,1.20603 -4.37581,2.70221 -4.37581,3.32486 0,0.62265 1.2014,1.71395 2.6698,2.42512 2.83482,1.37294 4.29193,1.01334 6.61575,-1.63273 z m -52.12229,-0.97684 c -0.23496,-0.38018 -0.84657,-3.28698 -1.35912,-6.45953 -1.04686,-6.47995 -0.42648,-14.16987 1.19333,-14.79143 1.46681,-0.56288 7.23272,2.14693 9.14659,4.29863 2.04692,2.30126 1.42555,5.43908 -2.44909,12.3676 -2.00225,3.58037 -3.45732,5.27599 -4.52749,5.27599 -0.86735,0 -1.76924,-0.31107 -2.00422,-0.69126 z m 5.38074,-8.81498 c 1.86639,-4.21927 1.46181,-6.1278 -1.45416,-6.85966 -2.98679,-0.74963 -3.5793,0.37484 -3.02539,5.7416 0.61072,5.9174 2.18299,6.30982 4.47955,1.11806 z m 23.70344,-1.44418 c -4.81866,-1.11296 -11.25209,-6.03881 -11.25209,-8.61534 0,-2.68059 1.50006,-3.37117 10.00185,-4.60461 13.10051,-1.90061 17.41908,-2.02348 17.99905,-0.51209 0.90765,2.36527 -0.41119,5.33997 -4.04532,9.12448 -5.40648,5.63019 -6.52285,6.0351 -12.70349,4.60756 z m 7.66431,-3.63501 c 2.16328,-1.51522 5.64995,-6.96792 4.92141,-7.69645 -0.28792,-0.28793 -2.86242,-0.0884 -5.72112,0.44341 -2.85869,0.53179 -6.97921,1.20475 -9.15669,1.49545 -4.21808,0.56314 -4.93672,1.69664 -2.48333,3.91693 3.40217,3.07893 9.40398,3.96699 12.43973,1.84066 z m 22.89144,-0.82412 c -2.8239,-3.01876 -5.13189,-6.13132 -5.12887,-6.91677 0.0127,-3.28324 6.4312,-9.93317 8.73449,-9.04931 1.60672,0.61655 4.57534,10.70677 4.81703,16.37284 0.17444,4.08957 0.008,4.61103 -1.54637,4.83304 -1.24055,0.17723 -3.21971,-1.33092 -6.87628,-5.2398 z m 5.43408,-3.19352 c -0.27139,-1.98014 -0.89146,-4.64709 -1.3779,-5.92653 -0.83065,-2.18477 -0.99763,-2.25147 -2.7454,-1.09677 -2.9132,1.92468 -2.80568,4.5818 0.31573,7.80228 1.50397,1.5517 3.08697,2.8213 3.51777,2.8213 0.44399,0 0.56953,-1.55955 0.2898,-3.60028 z m -57.5306,-10.28582 c -1.63634,-0.4638 -1.62668,-0.76798 0.33961,-10.70182 1.12636,-5.69043 1.92706,-6.88737 3.65052,-5.45702 2.56102,2.12547 8.79901,11.05453 8.79901,12.59493 0,0.85528 -0.68526,1.92181 -1.5228,2.37004 -1.88536,1.00901 -9.18829,1.7829 -11.26634,1.19387 z m 9.0803,-4.51839 c 0.6369,-1.03051 -3.57843,-5.76669 -5.1325,-5.76669 -1.16358,0 -2.3965,4.50885 -1.58983,5.81408 0.70152,1.13509 6.01468,1.09764 6.72233,-0.0473 z m 23.39241,-1.23135 c -1.01198,-2.63715 3.48399,-16.20419 5.3699,-16.20419 1.29831,0 9.11954,12.00849 9.11954,14.00188 0,1.14188 -7.62439,3.50139 -11.31418,3.50139 -1.65519,0 -2.86701,-0.49578 -3.17526,-1.29908 z m 8.76685,-3.3863 c 1.3595,-1.23034 1.38212,-1.56641 0.2526,-3.7507 -0.6824,-1.31961 -1.78407,-2.39928 -2.44814,-2.39928 -1.29164,0 -3.75069,4.07129 -3.75069,6.20978 0,1.74206 3.99964,1.70183 5.94623,-0.0598 z m -22.61144,0.35205 c -1.9101,-1.97164 -4.41953,-5.1849 -5.57651,-7.14056 -2.0166,-3.40875 -2.0456,-3.64423 -0.70145,-5.69567 2.86541,-4.37317 9.63775,-5.47784 14.41054,-2.35058 2.22136,1.45549 2.14962,2.54417 -0.77432,11.75289 -2.34526,7.38613 -3.16072,7.76669 -7.35826,3.43392 z m 5.70624,-6.84526 c 1.12201,-4.59717 1.10038,-4.99204 -0.33073,-6.03849 -2.18967,-1.60113 -4.81885,-1.3843 -7.34924,0.60611 -2.4543,1.93055 -2.23611,2.86014 1.89719,8.08263 2.99892,3.7892 4.36382,3.16366 5.78278,-2.65025 z"
         id="path2468-6" />
    </g>
  </g>
</svg>
